<?xml version="1.0" encoding="UTF-8"?>

<svg width="340px" height="99px" viewBox="0 0 340 99" version="1.1" xmlns="http://www.w3.org/2000/svg" xmlns:xlink="http://www.w3.org/1999/xlink">

    <title>DrinkCoupons</title>

    <g id="Check-in-Home" stroke="none" stroke-width="1" fill="none" fill-rule="evenodd">

        <g id="SWA-iOS-Rev-Boarding-Pass" transform="translate(-19.000000, -512.000000)">

            <g id="MBP" transform="translate(0.000000, 88.000000)">

                <g id="Primary-Info" transform="translate(16.000000, 0.000000)">

                    <g id="DrinkCoupons" transform="translate(4.000527, 425.000000)">

                        <path d="M337.999157,0 L337.999157,97 L80.7279841,97.000573 C80.7363665,96.834804 80.7406097,96.6679107 80.7406097,96.5 C80.7406097,91.2532949 76.5976412,87 71.4870305,87 C66.3764198,87 62.2334513,91.2532949 62.2334513,96.5 C62.2334513,96.6679107 62.2376945,96.834804 62.2460768,97.000573 L0,97 L0,0 L62.2452249,0.000396823436 C62.4986801,5.01449264 66.5390741,9 71.4861874,9 C76.4333008,9 80.4736947,5.01449264 80.72715,0.000396823436 L337.999157,0 Z" id="Combined-Shape" stroke="#A4BAF2" stroke-linecap="round" stroke-linejoin="round"></path>

                        <g id="Shared/Icons/ic_drink" transform="translate(18.681291, 25.875000)" fill="#A4BAF2" fill-rule="nonzero">

                            <path d="M24.5,13.75 L23.6090909,20.625 L20.0454545,20.625 L21.1145455,13.75 L24.5,13.75 L24.5,13.75 Z M17.8181818,13.75 L16.5249267,20.625 L5.53225806,20.625 L4.45454545,13.75 L17.8181818,13.75 L17.8181818,13.75 Z M35.6363636,3.85302198 L35.6363636,0 L23.1132375,0 C21.8177417,0 20.7381619,0.793269231 20.5222459,2.15315934 L19.4426661,8.61263736 L1.84551476,8.61263736 C0.657976942,8.61263736 -0.0977289438,9.51923077 0.0102290398,10.7657967 C0.226145007,12.0123626 3.78875847,37.6236264 3.89671645,38.8701923 C4.00467443,40.2300824 5.08425427,41.25 6.37975007,41.25 L25.2723972,41.25 C26.675851,41.25 27.6474728,40.4567308 27.8633888,38.9835165 C28.0793048,37.6236264 31.5339603,12.4656593 31.7498762,10.9924451 C31.9657922,9.40590659 31.4260023,8.61263736 29.9145905,8.61263736 L23.2211955,8.61263736 L23.6530275,5.77953297 C23.8689434,4.41964286 24.3007754,3.85302198 25.8121871,3.85302198 C26.9997249,3.85302198 35.6363636,3.85302198 35.6363636,3.85302198 L35.6363636,3.85302198 Z" id="icon_drink"></path>

                        </g>

                        <line x1="71.4994727" y1="9.5" x2="71.4994727" y2="86.5" id="Line" stroke="#A4BAF2" stroke-linecap="square" stroke-dasharray="2,6"></line>

                    </g>

                </g>

            </g>

        </g>

    </g>

</svg>