<?xml version="1.0" encoding="UTF-8"?>
<svg width="86px" height="24px" viewBox="0 0 86 24" version="1.1" xmlns="http://www.w3.org/2000/svg" xmlns:xlink="http://www.w3.org/1999/xlink">
    <title>SWA-iOS-BP-TSA</title>
    <defs>
        <linearGradient x1="45.604%" y1="73.073%" x2="49.507%" y2="98.342%" id="linearGradient-1">
            <stop stop-color="#000000" offset="0%"></stop>
            <stop stop-color="#46AC3A" offset="33.1%"></stop>
            <stop stop-color="#6AC757" offset="100%"></stop>
        </linearGradient>
        <linearGradient x1="47.635%" y1="74.156%" x2="47.635%" y2="0.04%" id="linearGradient-2">
            <stop stop-color="#274621" offset="0%"></stop>
            <stop stop-color="#64A953" offset="50%"></stop>
            <stop stop-color="#2BA641" offset="100%"></stop>
        </linearGradient>
        <linearGradient x1="37.125%" y1="0.685%" x2="37.125%" y2="100.434%" id="linearGradient-3">
            <stop stop-color="#3D913A" offset="0%"></stop>
            <stop stop-color="#6AC64E" offset="50%"></stop>
            <stop stop-color="#90D36A" offset="100%"></stop>
        </linearGradient>
        <linearGradient x1="49.547%" y1="0.32%" x2="49.547%" y2="97.102%" id="linearGradient-4">
            <stop stop-color="#32582A" offset="0%"></stop>
            <stop stop-color="#295828" offset="82.4%"></stop>
            <stop stop-color="#5DC243" offset="90%"></stop>
            <stop stop-color="#8FDC5C" offset="100%"></stop>
        </linearGradient>
        <linearGradient x1="52.455%" y1="-0.036%" x2="52.455%" y2="100.165%" id="linearGradient-5">
            <stop stop-color="#45A938" offset="0%"></stop>
            <stop stop-color="#50BD36" offset="100%"></stop>
        </linearGradient>
    </defs>
    <g id="SWA-iOS-BP-TSA" stroke="none" stroke-width="1" fill="none" fill-rule="evenodd">
        <g id="TSA">
            <rect id="Rectangle" fill="#FFFFFF" x="0" y="0" width="86" height="24" rx="6"></rect>
            <g id="Shared/Icons/TSA-Pre" transform="translate(12.000000, 3.000000)" fill-rule="nonzero">
                <g id="tsaprecheck">
                    <path d="M2.95779661,14.1666441 L2.95779661,5.44122034 L0,5.44122034 L0.0396610169,4.16016949 L7.26833898,4.16016949 L7.29518644,5.44091525 L4.33708475,5.44091525 L4.33708475,14.1666441 L2.95779661,14.1666441 Z M10.2136271,14.3533559 C9.07291525,14.3533559 8.09145763,14.0598644 7.29549153,13.5927797 L7.50783051,12.352 C8.31691525,12.8456271 9.17877966,13.1125763 10.2002034,13.1125763 C11.606339,13.1125763 12.2961356,12.4722034 12.2961356,11.4047119 C12.2961356,9.13671186 7.37511864,10.1239661 7.37511864,6.80189831 C7.37511864,5.22766102 8.38311864,4 10.6514237,4 C11.6197627,4 12.5612542,4.18671186 13.2775932,4.53359322 L13.0917966,5.72128814 C12.3092542,5.4140678 11.5532542,5.24077966 10.7176271,5.24077966 C9.21874576,5.24077966 8.68820339,5.93454237 8.68820339,6.72166102 C8.68820339,8.89630508 13.6092203,7.88250847 13.6092203,11.3113559 C13.6092203,13.1925085 12.402,14.3530508 10.2136271,14.3530508 L10.2136271,14.3533559 Z M17.5091186,6.20149153 L16.0367797,10.5910508 L19.6315932,10.5910508 L18.1857966,6.20149153 L17.8807119,5.16054237 L17.8410508,5.16054237 L17.5091186,6.20149153 Z M20.016,11.7784407 L15.6392542,11.7784407 L14.8429831,14.1666441 L13.3840678,14.1666441 L17.0450847,4.16016949 L18.6632542,4.16016949 L22.3373898,14.1666441 L20.8119661,14.1666441 L20.016,11.7784407 Z M29.4342712,5.34755932 L27.4841695,5.34755932 L27.4841695,9.2700339 L29.4342712,9.2700339 C30.8401017,9.2700339 31.5164746,8.82949153 31.5164746,7.29552542 C31.5164746,5.84118644 30.8800678,5.34755932 29.4342712,5.34755932 L29.4342712,5.34755932 Z M29.4342712,10.4174576 L27.4841695,10.4174576 L27.4841695,14.1666441 L26.1314237,14.1666441 L26.1314237,4.16016949 L29.4342712,4.16016949 C31.8749492,4.16016949 32.9091864,5.12057627 32.9091864,7.29552542 C32.9091864,9.3499661 31.9011864,10.4174576 29.4342712,10.4174576 L29.4342712,10.4174576 Z M33.7323051,14.1666441 L33.7323051,6.268 L34.7403051,6.20149153 L34.8464746,7.90905085 L34.8730169,7.90905085 C35.3638983,6.7619322 36.2257627,6.09471186 37.3002712,6.09471186 C37.5919322,6.09471186 37.8707797,6.13467797 38.0831186,6.20149153 L38.0031864,7.48223729 C37.7643051,7.40230508 37.4994915,7.37545763 37.2206441,7.37545763 C35.9871864,7.37545763 34.9923051,8.42952542 34.9923051,10.1373898 L34.9923051,14.1666441 L33.7323051,14.1666441 Z M43.3623051,9.49671186 C43.3357627,7.81569492 42.5532203,7.17532203 41.4125085,7.17532203 C40.0728814,7.17532203 39.4758305,7.92247458 39.3962034,9.49701695 L43.3623051,9.49671186 Z M38.1362034,9.97722034 C38.1362034,7.48223729 39.2238305,6.08128814 41.3990847,6.08128814 C43.2823729,6.08128814 44.5161356,7.20216949 44.5161356,9.75023729 C44.5161356,9.95037288 44.5030169,10.1907797 44.4895932,10.3640678 L39.4227458,10.3640678 C39.4889492,12.4587797 40.258678,13.1793898 41.9564746,13.1793898 C42.7524407,13.1793898 43.4285085,13.0057966 44.1051864,12.672339 L44.2507119,13.7398305 C43.5877627,14.0998305 42.7652542,14.3265085 41.8100339,14.3265085 C39.2107119,14.3265085 38.1362034,12.9524068 38.1362034,9.97722034 L38.1362034,9.97722034 Z" id="Shape" fill="#0D4D84"></path>
                    <path d="M61.8605085,1.34847458 C62.1707797,1.34847458 62.4175932,1.58949153 62.4175932,1.89884746 C62.4175932,2.20759322 62.1707797,2.45257627 61.8571525,2.45257627 C61.5438305,2.45257627 61.293661,2.20759322 61.293661,1.89884746 C61.293661,1.58979661 61.5438305,1.34847458 61.8605085,1.34847458 Z M61.8541017,1.45891525 C61.6170508,1.45891525 61.4330847,1.65722034 61.4330847,1.89884746 C61.4330847,2.14383051 61.6170508,2.33816949 61.8605085,2.33816949 C62.0972542,2.34152542 62.2781695,2.14383051 62.2781695,1.90189831 C62.2781695,1.65722034 62.0972542,1.45891525 61.8541017,1.45891525 Z M61.8541017,1.61694915 C61.9572203,1.61694915 62.0035932,1.63342373 62.0408136,1.66057627 C62.0779778,1.68791635 62.0991293,1.73193468 62.0972542,1.7780339 C62.0972542,1.84515254 62.0472203,1.88877966 61.9840678,1.90922034 C62.0374576,1.93240678 62.064,1.97572881 62.0807797,2.04955932 C62.0972542,2.13376271 62.110678,2.1639661 62.1207458,2.18379661 L61.9874237,2.18379661 C61.9709492,2.1639661 61.9605763,2.11698305 61.9437966,2.04955932 C61.9340339,1.99281356 61.9004746,1.9659661 61.8306102,1.9659661 L61.7705085,1.9659661 L61.7705085,2.18379661 L61.6435932,2.18379661 L61.6435932,1.63342373 C61.6936271,1.62701695 61.7637966,1.61694915 61.8541017,1.61694915 Z" id="Combined-Shape" fill="#0D4D84"></path>
                    <g id="Check" transform="translate(45.301932, 0.303684)">
                        <path d="M6.89974568,9.16531606 C6.34286199,9.12436288 5.78347385,9.1318486 5.22788555,9.18768887 C4.81947958,9.22836673 4.45093813,9.74009428 4.39927721,9.94836493 C3.65283857,12.9406286 1.8695209,14.1080834 0.139491481,15.9455025 C-0.0134572646,16.1074004 -0.0647115019,16.3331625 0.109796668,16.4682131 C0.658947685,16.89289 1.23657348,17.2480077 1.89433436,17.4770241 C2.1953508,17.581973 2.71195965,17.4151937 3.00199274,17.1516012 C3.99621816,16.2461859 4.8490847,15.196831 5.53215602,14.0385242" id="Path" fill="url(#linearGradient-1)" transform="translate(3.449873, 13.324080) scale(-1, 1) rotate(-180.000000) translate(-3.449873, -13.324080) "></path>
                        <path d="M14.3451864,0.00140082136 C13.9043389,-0.0169042634 13.497966,0.146010991 13.1562711,0.383366923 C9.08277958,3.21516353 6.65216941,7.83658726 5.60176263,12.9851974 L5.60176263,16.5159432 L6.90020331,17.5074686 C7.54576263,17.3967229 7.82888128,17.0986551 7.8764745,16.5385195 C8.42562704,10.2858076 10.4510847,5.1738076 15.5222033,1.10489235 C15.6765762,0.981943194 15.7205084,0.660994042 15.5505762,0.508451669 C15.2647118,0.251875398 14.8562033,0.0715703129 14.5358643,0.0203160756 C14.4727304,0.0102824119 14.4090613,0.00396644678 14.3451864,0.00140082136 Z" id="Path" fill="url(#linearGradient-2)"></path>
                        <path d="M5.97879887,0.466933145 L6.12727294,0.14761191 L10.1214327,8.46176061 L15.1618268,13.5627648 C15.1618268,13.5627648 14.6008791,13.8170015 14.4162015,13.7950354 C13.1189843,13.6408663 7.47452382,9.05565743 5.97879887,0.466933145 Z" id="Path" fill="url(#linearGradient-3)" transform="translate(10.570313, 6.971996) scale(-1, 1) rotate(-180.000000) translate(-10.570313, -6.971996) "></path>
                        <path d="M2.89989124,17.4311604 C2.20389287,17.8082442 1.2841664,17.1000425 0.696778193,16.71523 C0.279830159,16.4422815 0.364033244,16.1823499 0.707761244,15.8561135 C3.26029701,13.4325263 4.3655147,11.6455477 4.82761528,9.75362023 C4.94964887,9.25368929 6.51737382,9.33423145 6.89974568,9.37450255 L2.89989124,17.4311604 Z" id="Path" fill="url(#linearGradient-4)" transform="translate(3.657826, 13.441114) scale(-1, 1) rotate(-180.000000) translate(-3.657826, -13.441114) "></path>
                        <path d="M6.21269667,4.30367893 C7.14381287,9.31641216 9.5970948,14.4068401 13.7616947,17.1700874 C14.1574903,17.4332732 14.2522698,17.5821542 14.7664379,17.4995781 C15.0869795,17.4487308 15.2199961,17.422697 15.5059615,17.1660197 C15.675995,17.0134776 15.5995206,16.7917833 15.4445379,16.6685294 C10.4228555,12.6820987 8.39099626,7.46516253 7.82150616,1.20280532 C7.78448931,0.796840231 7.51235433,0.473857987 7.18611775,0.374603998 C6.6357464,0.206604418 6.08090036,0.260299199 5.53581674,0.330671905 C5.03873331,0.39494293 5.01839453,0.83914521 4.95005555,1.04172097 C3.96280375,3.96442555 2.50857033,5.14611749 0.778133922,6.98353663 C0.625591854,7.14584131 0.673185074,7.31628157 0.848099922,7.45133207 C1.39725094,7.87600896 1.86301253,8.10421181 2.52199406,8.32794006 C2.66924779,8.37797384 2.88239982,8.38326193 3.05731467,8.24495719 C4.1198205,7.40455254 5.55493548,5.34462546 6.06056128,4.18734023 C6.14923904,3.98476448 6.21269667,4.30367893 6.21269667,4.30367893" id="Path" fill="url(#linearGradient-5)" transform="translate(8.144423, 8.892800) scale(-1, 1) rotate(-180.000000) translate(-8.144423, -8.892800) "></path>
                    </g>
                </g>
            </g>
        </g>
    </g>
</svg>