<?xml version="1.0" encoding="UTF-8" standalone="no"?>
<!DOCTYPE svg PUBLIC "-//W3C//DTD SVG 1.1//EN"
 "http://www.w3.org/Graphics/SVG/1.1/DTD/svg11.dtd">
<!-- Generated by graphviz version 2.38.0 (20140413.2041)
 -->
<!-- Title: %3 Pages: 1 -->
<svg width="1250pt" height="500pt"
 viewBox="0.00 0.00 1250.00 500.00" xmlns="http://www.w3.org/2000/svg" xmlns:xlink="http://www.w3.org/1999/xlink">
<g id="graph0" class="graph" transform="scale(1 1) rotate(0) translate(4 496)">
<title>%3</title>
<polygon fill="white" stroke="none" points="-4,4 -4,-496 1246,-496 1246,4 -4,4"/>
<text text-anchor="middle" x="621" y="-7.8" font-family="Times,serif" font-size="14.00">Back/Forward prefill/cache behavior in mobile web</text>
<!-- back_flowEnd -->
<g id="node1" class="node"><title>back_flowEnd</title>
<path fill="none" stroke="black" d="M263,-213C263,-213 147,-213 147,-213 141,-213 135,-207 135,-201 135,-201 135,-189 135,-189 135,-183 141,-177 147,-177 147,-177 263,-177 263,-177 269,-177 275,-183 275,-189 275,-189 275,-201 275,-201 275,-207 269,-213 263,-213"/>
<text text-anchor="middle" x="205" y="-191.3" font-family="Times,serif" font-size="14.00">Go back to home page</text>
</g>
<!-- back_notFlowEnd_clickedButtonBefore -->
<g id="node2" class="node"><title>back_notFlowEnd_clickedButtonBefore</title>
<path fill="none" stroke="black" d="M485,-91C485,-91 327,-91 327,-91 321,-91 315,-85 315,-79 315,-79 315,-35 315,-35 315,-29 321,-23 327,-23 327,-23 485,-23 485,-23 491,-23 497,-29 497,-35 497,-35 497,-79 497,-79 497,-85 491,-91 485,-91"/>
<text text-anchor="middle" x="406" y="-75.8" font-family="Times,serif" font-size="14.00">Page: previous</text>
<text text-anchor="middle" x="406" y="-60.8" font-family="Times,serif" font-size="14.00">Data: app state (prefilled from</text>
<text text-anchor="middle" x="406" y="-45.8" font-family="Times,serif" font-size="14.00">	previous visit</text>
<text text-anchor="middle" x="406" y="-30.8" font-family="Times,serif" font-size="14.00">	after clicking button)</text>
</g>
<!-- back_notFlowEnd_clickedForwardBefore -->
<g id="node3" class="node"><title>back_notFlowEnd_clickedForwardBefore</title>
<path fill="none" stroke="black" d="M699,-91C699,-91 527,-91 527,-91 521,-91 515,-85 515,-79 515,-79 515,-35 515,-35 515,-29 521,-23 527,-23 527,-23 699,-23 699,-23 705,-23 711,-29 711,-35 711,-35 711,-79 711,-79 711,-85 705,-91 699,-91"/>
<text text-anchor="middle" x="613" y="-75.8" font-family="Times,serif" font-size="14.00">Page: previous</text>
<text text-anchor="middle" x="613" y="-60.8" font-family="Times,serif" font-size="14.00">Data: form cache (prefilled from</text>
<text text-anchor="middle" x="613" y="-45.8" font-family="Times,serif" font-size="14.00">	previous visit</text>
<text text-anchor="middle" x="613" y="-30.8" font-family="Times,serif" font-size="14.00">	before clicking forward)</text>
</g>
<!-- forward -->
<g id="node4" class="node"><title>forward</title>
<path fill="none" stroke="black" d="M184,-386C184,-386 12,-386 12,-386 6,-386 1.42109e-14,-380 1.42109e-14,-374 1.42109e-14,-374 1.42109e-14,-330 1.42109e-14,-330 1.42109e-14,-324 6,-318 12,-318 12,-318 184,-318 184,-318 190,-318 196,-324 196,-330 196,-330 196,-374 196,-374 196,-380 190,-386 184,-386"/>
<text text-anchor="middle" x="98" y="-370.8" font-family="Times,serif" font-size="14.00">Page: next</text>
<text text-anchor="middle" x="98" y="-355.8" font-family="Times,serif" font-size="14.00">Data: form cache (prefilled from</text>
<text text-anchor="middle" x="98" y="-340.8" font-family="Times,serif" font-size="14.00">	previous visit</text>
<text text-anchor="middle" x="98" y="-325.8" font-family="Times,serif" font-size="14.00">	before clicking back)</text>
</g>
<!-- button_passedBefore -->
<g id="node5" class="node"><title>button_passedBefore</title>
<path fill="none" stroke="black" d="M830,-229C830,-229 672,-229 672,-229 666,-229 660,-223 660,-217 660,-217 660,-173 660,-173 660,-167 666,-161 672,-161 672,-161 830,-161 830,-161 836,-161 842,-167 842,-173 842,-173 842,-217 842,-217 842,-223 836,-229 830,-229"/>
<text text-anchor="middle" x="751" y="-213.8" font-family="Times,serif" font-size="14.00">Page: (depends on button)</text>
<text text-anchor="middle" x="751" y="-198.8" font-family="Times,serif" font-size="14.00">Data: app state (prefilled from</text>
<text text-anchor="middle" x="751" y="-183.8" font-family="Times,serif" font-size="14.00">	previous visit</text>
<text text-anchor="middle" x="751" y="-168.8" font-family="Times,serif" font-size="14.00">	after clicking button)</text>
</g>
<!-- button_notPassedBefore_airBookingAndLoggedIn -->
<g id="node6" class="node"><title>button_notPassedBefore_airBookingAndLoggedIn</title>
<path fill="none" stroke="black" d="M996.5,-83.5C996.5,-83.5 837.5,-83.5 837.5,-83.5 831.5,-83.5 825.5,-77.5 825.5,-71.5 825.5,-71.5 825.5,-42.5 825.5,-42.5 825.5,-36.5 831.5,-30.5 837.5,-30.5 837.5,-30.5 996.5,-30.5 996.5,-30.5 1002.5,-30.5 1008.5,-36.5 1008.5,-42.5 1008.5,-42.5 1008.5,-71.5 1008.5,-71.5 1008.5,-77.5 1002.5,-83.5 996.5,-83.5"/>
<text text-anchor="middle" x="917" y="-68.3" font-family="Times,serif" font-size="14.00">Page: (depends on button)</text>
<text text-anchor="middle" x="917" y="-53.3" font-family="Times,serif" font-size="14.00">Data: user data (prefilled from</text>
<text text-anchor="middle" x="917" y="-38.3" font-family="Times,serif" font-size="14.00">	data returned from API)</text>
</g>
<!-- button_notPassedBefore_notAirBookingOrNotLoggedIn -->
<g id="node7" class="node"><title>button_notPassedBefore_notAirBookingOrNotLoggedIn</title>
<path fill="none" stroke="black" d="M1173.5,-76C1173.5,-76 1038.5,-76 1038.5,-76 1032.5,-76 1026.5,-70 1026.5,-64 1026.5,-64 1026.5,-50 1026.5,-50 1026.5,-44 1032.5,-38 1038.5,-38 1038.5,-38 1173.5,-38 1173.5,-38 1179.5,-38 1185.5,-44 1185.5,-50 1185.5,-50 1185.5,-64 1185.5,-64 1185.5,-70 1179.5,-76 1173.5,-76"/>
<text text-anchor="middle" x="1106" y="-60.8" font-family="Times,serif" font-size="14.00">Page: (depends on button)</text>
<text text-anchor="middle" x="1106" y="-45.8" font-family="Times,serif" font-size="14.00">Data: empty</text>
</g>
<!-- start -->
<g id="node8" class="node"><title>start</title>
<polygon fill="none" stroke="black" points="408,-492 241.765,-474 408,-456 574.235,-474 408,-492"/>
<text text-anchor="middle" x="408" y="-470.3" font-family="Times,serif" font-size="14.00">How did you get to this page?</text>
</g>
<!-- start&#45;&gt;forward -->
<g id="edge2" class="edge"><title>start&#45;&gt;forward</title>
<path fill="none" stroke="black" d="M365.431,-460.497C323.95,-447.905 259.364,-427.207 205,-405 194.17,-400.576 182.895,-395.564 171.901,-390.441"/>
<polygon fill="black" stroke="black" points="173.286,-387.225 162.748,-386.122 170.298,-393.555 173.286,-387.225"/>
<text text-anchor="middle" x="341" y="-426.8" font-family="Times,serif" font-size="14.00">Clicking forward</text>
</g>
<!-- back -->
<g id="node9" class="node"><title>back</title>
<polygon fill="none" stroke="black" points="408,-405 214,-352 408,-299 602,-352 408,-405"/>
<text text-anchor="middle" x="408" y="-363.3" font-family="Times,serif" font-size="14.00">Before you clicked back,</text>
<text text-anchor="middle" x="408" y="-348.3" font-family="Times,serif" font-size="14.00">were you at the end of the flow?</text>
<text text-anchor="middle" x="408" y="-333.3" font-family="Times,serif" font-size="14.00">(e.g., purchase confirmation)</text>
</g>
<!-- start&#45;&gt;back -->
<g id="edge1" class="edge"><title>start&#45;&gt;back</title>
<path fill="none" stroke="black" d="M408,-455.807C408,-445.013 408,-430.361 408,-415.505"/>
<polygon fill="black" stroke="black" points="411.5,-415.231 408,-405.232 404.5,-415.232 411.5,-415.231"/>
<text text-anchor="middle" x="446" y="-426.8" font-family="Times,serif" font-size="14.00">Clicking back</text>
</g>
<!-- button -->
<g id="node10" class="node"><title>button</title>
<polygon fill="none" stroke="black" points="769,-390 620,-352 769,-314 918,-352 769,-390"/>
<text text-anchor="middle" x="769" y="-355.8" font-family="Times,serif" font-size="14.00">Have you been past this</text>
<text text-anchor="middle" x="769" y="-340.8" font-family="Times,serif" font-size="14.00">page in the flow before?</text>
</g>
<!-- start&#45;&gt;button -->
<g id="edge3" class="edge"><title>start&#45;&gt;button</title>
<path fill="none" stroke="black" d="M446.633,-460.158C505.993,-440.426 620.651,-402.313 695.997,-377.267"/>
<polygon fill="black" stroke="black" points="697.514,-380.451 705.899,-373.975 695.306,-373.808 697.514,-380.451"/>
<text text-anchor="middle" x="604.5" y="-426.8" font-family="Times,serif" font-size="14.00">Clicking a button</text>
</g>
<!-- back&#45;&gt;back_flowEnd -->
<g id="edge4" class="edge"><title>back&#45;&gt;back_flowEnd</title>
<path fill="none" stroke="black" d="M357.82,-312.685C319.451,-283.389 267.804,-243.954 235.46,-219.258"/>
<polygon fill="black" stroke="black" points="237.347,-216.295 227.275,-213.008 233.099,-221.858 237.347,-216.295"/>
<text text-anchor="middle" x="324" y="-269.8" font-family="Times,serif" font-size="14.00">Yes</text>
</g>
<!-- back_notFlowEnd -->
<g id="node12" class="node"><title>back_notFlowEnd</title>
<polygon fill="none" stroke="black" points="461,-248 293,-195 461,-142 629,-195 461,-248"/>
<text text-anchor="middle" x="461" y="-206.3" font-family="Times,serif" font-size="14.00">How did you get</text>
<text text-anchor="middle" x="461" y="-191.3" font-family="Times,serif" font-size="14.00">to the page from which you</text>
<text text-anchor="middle" x="461" y="-176.3" font-family="Times,serif" font-size="14.00">clicked back?</text>
</g>
<!-- back&#45;&gt;back_notFlowEnd -->
<g id="edge5" class="edge"><title>back&#45;&gt;back_notFlowEnd</title>
<path fill="none" stroke="black" d="M424.334,-303.23C429.801,-287.243 435.947,-269.267 441.623,-252.668"/>
<polygon fill="black" stroke="black" points="444.978,-253.674 444.902,-243.08 438.355,-251.409 444.978,-253.674"/>
<text text-anchor="middle" x="445.5" y="-269.8" font-family="Times,serif" font-size="14.00">No</text>
</g>
<!-- button&#45;&gt;button_passedBefore -->
<g id="edge7" class="edge"><title>button&#45;&gt;button_passedBefore</title>
<path fill="none" stroke="black" d="M764.825,-315.05C762.202,-292.459 758.801,-263.179 756.03,-239.31"/>
<polygon fill="black" stroke="black" points="759.475,-238.638 754.845,-229.109 752.522,-239.446 759.475,-238.638"/>
<text text-anchor="middle" x="772" y="-269.8" font-family="Times,serif" font-size="14.00">Yes</text>
</g>
<!-- button_notPassedBefore -->
<g id="node11" class="node"><title>button_notPassedBefore</title>
<polygon fill="none" stroke="black" points="1051,-248 860,-195 1051,-142 1242,-195 1051,-248"/>
<text text-anchor="middle" x="1051" y="-206.3" font-family="Times,serif" font-size="14.00">Are both of the following true?:</text>
<text text-anchor="middle" x="1051" y="-191.3" font-family="Times,serif" font-size="14.00">(1) This is the air booking flow</text>
<text text-anchor="middle" x="1051" y="-176.3" font-family="Times,serif" font-size="14.00">(2) You are logged in</text>
</g>
<!-- button&#45;&gt;button_notPassedBefore -->
<g id="edge6" class="edge"><title>button&#45;&gt;button_notPassedBefore</title>
<path fill="none" stroke="black" d="M815.251,-325.578C859.785,-301.1 927.791,-263.721 979.337,-235.389"/>
<polygon fill="black" stroke="black" points="981.032,-238.452 988.11,-230.567 977.66,-232.317 981.032,-238.452"/>
<text text-anchor="middle" x="927.5" y="-269.8" font-family="Times,serif" font-size="14.00">No</text>
</g>
<!-- button_notPassedBefore&#45;&gt;button_notPassedBefore_airBookingAndLoggedIn -->
<g id="edge8" class="edge"><title>button_notPassedBefore&#45;&gt;button_notPassedBefore_airBookingAndLoggedIn</title>
<path fill="none" stroke="black" d="M1010.43,-152.826C990.847,-132.949 967.673,-109.43 949.305,-90.7869"/>
<polygon fill="black" stroke="black" points="951.775,-88.3073 942.263,-83.6405 946.789,-93.2202 951.775,-88.3073"/>
<text text-anchor="middle" x="991" y="-112.8" font-family="Times,serif" font-size="14.00">Yes</text>
</g>
<!-- button_notPassedBefore&#45;&gt;button_notPassedBefore_notAirBookingOrNotLoggedIn -->
<g id="edge9" class="edge"><title>button_notPassedBefore&#45;&gt;button_notPassedBefore_notAirBookingOrNotLoggedIn</title>
<path fill="none" stroke="black" d="M1069.93,-147.197C1078.19,-126.771 1087.59,-103.511 1094.73,-85.866"/>
<polygon fill="black" stroke="black" points="1098.14,-86.7723 1098.64,-76.1894 1091.65,-84.1478 1098.14,-86.7723"/>
<text text-anchor="middle" x="1094.5" y="-112.8" font-family="Times,serif" font-size="14.00">No</text>
</g>
<!-- back_notFlowEnd&#45;&gt;back_notFlowEnd_clickedButtonBefore -->
<g id="edge11" class="edge"><title>back_notFlowEnd&#45;&gt;back_notFlowEnd_clickedButtonBefore</title>
<path fill="none" stroke="black" d="M442.226,-147.577C436.099,-132.427 429.328,-115.684 423.314,-100.812"/>
<polygon fill="black" stroke="black" points="426.479,-99.3039 419.485,-91.3455 419.99,-101.928 426.479,-99.3039"/>
<text text-anchor="middle" x="488" y="-112.8" font-family="Times,serif" font-size="14.00">By clicking a button</text>
</g>
<!-- back_notFlowEnd&#45;&gt;back_notFlowEnd_clickedForwardBefore -->
<g id="edge10" class="edge"><title>back_notFlowEnd&#45;&gt;back_notFlowEnd_clickedForwardBefore</title>
<path fill="none" stroke="black" d="M509.237,-156.823C522.082,-146.484 535.779,-135.054 548,-124 556.852,-115.993 566.035,-107.082 574.613,-98.463"/>
<polygon fill="black" stroke="black" points="577.128,-100.897 581.655,-91.3184 572.142,-95.9833 577.128,-100.897"/>
<text text-anchor="middle" x="618" y="-112.8" font-family="Times,serif" font-size="14.00">By clicking forward</text>
</g>
</g>
</svg>
