<?xml version="1.0" encoding="UTF-8"?>
<svg width="43px" height="43px" viewBox="0 0 43 43" version="1.1" xmlns="http://www.w3.org/2000/svg" xmlns:xlink="http://www.w3.org/1999/xlink">
    <title>Dollars_Points_CircleIcon_Inactive</title>
    <defs>
        <circle id="path-1" cx="21.5" cy="21.5" r="21.5"></circle>
        <path d="M9.5,28 L8,28 L8,26.9654812 C7.20727522,26.8981172 6.26870281,26.6094142 5.5,26.1859833 L6.04770075,24.2805439 C6.92210021,24.6221757 8.19526424,25.0504184 9.13692519,24.8435146 C9.95847632,24.6654812 10.1698696,23.924477 9.19938229,23.5058577 C8.38263555,23.1353556 5.5624571,22.7504184 5.5624571,20.3926778 C5.5624571,19.4158996 6.17913521,18.0664662 8,17.6719055 L8,16.4978469 L9.5,16.4959062 L9.5,17.5737305 C10.2062457,17.6218476 11.1932052,17.7558577 12.0291695,18.0205021 C11.9474949,18.3861925 11.5871654,19.9692469 11.5871654,19.9692469 C11.0106383,19.7719665 10.0689774,19.4303347 9.16575154,19.4832636 C8.05113246,19.5458159 7.96945779,20.3638075 8.72374743,20.7391213 C10.2659574,21.4368201 12.5,22.0334728 12.5,24.1169456 C12.4951956,25.7192469 10.9845573,26.6230675 9.5,26.8299713 L9.5,28 Z" id="path-3"></path>
    </defs>
    <g id="Account" stroke="none" stroke-width="1" fill="none" fill-rule="evenodd">
        <g id="-SWA-mWeb-MyAcct-FareSaver_My-Promo-Codes_UpdatedIcons" transform="translate(-22.000000, -376.000000)">
            <g id="Dollars_Points_CircleIcon_Inactive" transform="translate(22.000000, 376.000000)">
                <mask id="mask-2" fill="white">
                    <use xlink:href="#path-1"></use>
                </mask>
                <use id="Oval" fill="#D8D8D8" xlink:href="#path-1"></use>
                <g id="PTS" transform="translate(22.000000, 19.000000)" fill="#FFFFFF" fill-rule="nonzero">
                    <path d="M3.35211268,0.106060606 C2.63380282,0.106060606 1.79577465,0.212121212 1.1971831,0.424242424 L0,6.78787879 L1.55633803,6.78787879 L2.03521127,4.45454545 L2.75352113,4.45454545 C4.66901408,4.45454545 5.98591549,3.5 5.98591549,2.01515152 C5.86619718,0.954545455 5.02816901,0.106060606 3.35211268,0.106060606 Z M2.63380282,3.28787879 L2.03521127,3.28787879 L2.51408451,1.37878788 C2.75352113,1.37878788 2.99295775,1.27272727 3.35211268,1.27272727 C3.95070423,1.27272727 4.30985915,1.59090909 4.30985915,2.12121212 C4.19014085,2.86363636 3.71126761,3.28787879 2.63380282,3.28787879 Z" id="Shape"></path>
                    <polygon id="Path" points="12.3309859 0.212121212 12.0915493 1.48484848 9.93661972 1.48484848 8.85915493 6.78787879 7.3028169 6.78787879 8.38028169 1.48484848 6.1056338 1.48484848 6.34507042 0.212121212"></polygon>
                    <path d="M13.8873239,2.12121212 C13.8873239,2.54545455 14.1267606,2.65151515 14.9647887,2.96969697 C16.0422535,3.39393939 16.5211268,3.92424242 16.5211268,4.77272727 C16.5211268,6.04545455 15.5633803,7 13.528169,7 C12.8098592,7 11.8521127,6.78787879 11.3732394,6.46969697 L11.971831,5.3030303 C12.4507042,5.51515152 12.9295775,5.72727273 13.6478873,5.72727273 C14.4859155,5.72727273 14.9647887,5.51515152 14.9647887,4.98484848 C14.9647887,4.66666667 14.7253521,4.45454545 13.7676056,4.03030303 C12.6901408,3.60606061 12.2112676,2.96969697 12.2112676,2.22727273 C12.2112676,0.848484848 13.4084507,0 15.084507,0 C15.9225352,0 16.5211268,0.212121212 17,0.424242424 L16.5211268,1.59090909 C16.0422535,1.37878788 15.5633803,1.27272727 15.084507,1.27272727 C14.3661972,1.27272727 13.8873239,1.59090909 13.8873239,2.12121212 Z" id="Path"></path>
                </g>
                <polygon id="Path" fill="#FFFFFF" fill-rule="nonzero" points="17.0199501 25 17.9925187 25 17.9925187 22.9506173 20 22.9506173 20 22.0493827 17.9925187 22.0493827 17.9925187 20 17.0199501 20 17.0199501 22.0493827 15 22.0493827 15 22.9506173 17.0199501 22.9506173"></polygon>
                <mask id="mask-4" fill="white">
                    <use xlink:href="#path-3"></use>
                </mask>
                <use id="icon" fill="#FFFFFF" xlink:href="#path-3"></use>
            </g>
        </g>
    </g>
</svg>