<?xml version="1.0" encoding="UTF-8"?><svg version="1.1" width="32px" height="32px" viewBox="0 0 32.0 32.0" xmlns="http://www.w3.org/2000/svg" xmlns:xlink="http://www.w3.org/1999/xlink"><defs><clipPath id="i0"><path d="M14,0 C21.7319865,0 28,6.2680135 28,14 C28,21.7319865 21.7319865,28 14,28 C6.2680135,28 0,21.7319865 0,14 C0,6.2680135 6.2680135,0 14,0 Z"></path></clipPath><clipPath id="i1"><path d="M32,0 L32,32 L0,32 L0,0 L32,0 Z"></path></clipPath><clipPath id="i2"><path d="M7.5,0 L7.5,2.0209205 C8.82421071,2.11114017 10.6747598,2.36240914 12.2421929,2.8586173 C12.0890528,3.54428675 11.4134351,6.51251374 11.4134351,6.51251374 C10.3324468,6.14261311 8.56683253,5.50205349 6.87328415,5.60129512 C4.78337337,5.71858068 4.63023336,7.25231499 6.04452642,7.95602838 C6.55859643,8.18859463 7.11366392,8.41517297 7.67890486,8.65249153 L8.10426146,8.83275562 C10.5910165,9.89909266 13.125,11.251051 13.125,14.2894489 C13.1159918,17.2937637 10.283545,18.9884275 7.5,19.3763721 L7.5,21.5701759 L4.6875,21.5701759 L4.6875,19.6304531 C3.20114104,19.5041455 1.44131778,18.9628275 0,18.1688945 L1.02693892,14.5961957 C2.66643789,15.2367554 5.05362045,16.0397104 6.81923473,15.6517658 C8.3596431,15.3179531 8.75600549,13.9285702 6.9363418,13.1436591 C6.81132954,13.0869496 6.66128482,13.0300598 6.49112763,12.970992 L6.2214225,12.8805073 C4.18924624,12.2167488 0.117107069,11.1858924 0.117107069,7.30644679 C0.117107069,5.47498759 1.27337852,2.94479997 4.6875,2.20499872 L4.6875,0.00363888601 L7.5,0 Z"></path></clipPath><clipPath id="i3"><path d="M30,0 L30,30 L0,30 L0,0 L30,0 Z"></path></clipPath></defs><g transform="translate(2.0 2.0)"><g clip-path="url(#i0)"><polygon points="0,0 28,0 28,28 0,28 0,0" stroke="none" fill="#E5E5E5"></polygon><g transform="translate(-2.0 -2.0)"><g clip-path="url(#i1)"><polygon points="2,2 30,2 30,30 2,30 2,2" stroke="none" fill="#E5E5E5"></polygon></g></g></g></g><g transform="translate(1.0 1.0)"><g transform="translate(8.4375 4.6798241268142355)"><g clip-path="url(#i2)"><polygon points="0,0 13.125,0 13.125,21.5701759 0,21.5701759 0,0" stroke="none" fill="#0A132C"></polygon><g transform="translate(-8.4375 -4.679824126814189)"><g clip-path="url(#i3)"><polygon points="8.4375,4.67982413 21.5625,4.67982413 21.5625,26.25 8.4375,26.25 8.4375,4.67982413" stroke="none" fill="#FFFFFF"></polygon></g></g></g></g></g></svg>