<?xml version="1.0" encoding="UTF-8"?><svg version="1.1" width="32px" height="32px" viewBox="0 0 32.0 32.0" xmlns="http://www.w3.org/2000/svg" xmlns:xlink="http://www.w3.org/1999/xlink"><defs><clipPath id="i0"><path d="M32,0 L32,32 L0,32 L0,0 L32,0 Z"></path></clipPath><clipPath id="i1"><path d="M16,0 C24.836556,0 32,7.163444 32,16 C32,24.836556 24.836556,32 16,32 C7.163444,32 0,24.836556 0,16 C0,7.163444 7.163444,0 16,0 Z"></path></clipPath><clipPath id="i2"><path d="M7.42974801,0 L7.42974801,1.87260633 C8.65967252,1.95620483 9.91469752,2.18192077 11.3705265,2.6417125 C11.2282904,3.27706108 10.6007779,6.02745163 10.6007779,6.02745163 C9.59675785,5.68469779 7.95685852,5.09114846 6.38389385,5.18310681 C4.44278851,5.29178485 4.30055234,6.7129593 5.61414518,7.36502758 C5.91934444,7.5027751 6.24010186,7.63825562 6.5689404,7.77551736 L6.96694704,7.94134551 C9.43933951,8.97242027 12.1904762,10.1897068 12.1904762,13.2336421 C12.1821094,16.017472 10.0067327,17.6142033 7.42138118,17.9736768 L7.42138118,19.9800408 L4.54319051,19.9800408 L4.54319051,18.1826731 C3.16266301,18.0656352 1.33869334,17.5640442 0,16.8283774 L0.953819002,13.517877 C2.47658267,14.1114263 4.69379351,14.8554529 6.33369285,14.4959794 C7.76442135,14.1866649 8.13256202,12.8992481 6.44246168,12.1719412 C5.02010001,11.5282327 0.108768834,10.8594447 0.108768834,6.7631184 C0.108768834,5.06606891 1.3805275,2.725311 4.55155734,2.03980332 L4.55155734,0 L7.42974801,0 Z"></path></clipPath></defs><g clip-path="url(#i0)"><g clip-path="url(#i1)"><polygon points="0,0 32,0 32,32 0,32 0,0" stroke="none" fill="#A3B9F2"></polygon></g><g transform="translate(9.904761904761926 5.333333333333343)"><g transform="translate(0.0 0.021992309987703962)"><g clip-path="url(#i2)"><polygon points="0,0 12.1904762,0 12.1904762,19.9800408 0,19.9800408 0,0" stroke="none" fill="#FFFFFF"></polygon></g></g></g></g></svg>