<?xml version="1.0" encoding="UTF-8"?><svg version="1.1" width="32px" height="32px" viewBox="0 0 32.0 32.0" xmlns="http://www.w3.org/2000/svg" xmlns:xlink="http://www.w3.org/1999/xlink"><defs><clipPath id="i0"><path d="M14,0 L16.461,2.515 L19.726,1.224 L20.957,4.528 L24.462,4.684 L24.249,8.205 L27.388,9.781 L25.77,12.911 L28,15.635 L25.256,17.832 L26.191,21.232 L22.795,22.117 L22.275,25.606 L18.814,25.026 L16.927,28 L14,26.055 L11.073,28 L9.187,25.026 L5.726,25.606 L5.205,22.117 L1.809,21.232 L2.745,17.832 L0,15.635 L2.231,12.911 L0.612,9.781 L3.751,8.205 L3.539,4.684 L7.044,4.528 L8.275,1.224 L11.54,2.515 L14,0 Z M20.105,10.951 C18.703,10.951 17.724,11.678 17.724,13.014 C17.724,13.695 18.09,14.265 18.987,14.671 C19.729,15.002 19.958,15.205 19.958,15.536 C19.958,16.043 19.518,16.273 18.841,16.273 C18.291,16.273 17.815,16.08 17.448,15.859 L16.945,16.982 C17.394,17.277 18.191,17.424 18.795,17.424 C20.443,17.424 21.286,16.55 21.286,15.362 C21.286,14.643 20.901,14.1 19.967,13.704 C19.244,13.391 19.042,13.216 19.042,12.857 C19.042,12.378 19.436,12.102 20.105,12.102 C20.535,12.102 20.974,12.258 21.322,12.433 L21.744,11.31 C21.34,11.116 20.81,10.951 20.105,10.951 Z M17.722,11.07 L12.786,11.07 L12.585,12.24 L14.407,12.24 L13.519,17.305 L14.82,17.305 L15.698,12.24 L17.521,12.24 L17.722,11.07 Z M10.212,10.996 C9.607,10.996 8.939,11.116 8.38,11.319 L7.336,17.305 L8.6,17.305 L8.985,15.113 L9.626,15.113 C11.237,15.113 12.3,14.256 12.3,12.802 C12.3,11.733 11.594,10.996 10.212,10.996 Z M10.147,12.12 C10.633,12.12 10.971,12.387 10.971,12.875 C10.971,13.594 10.505,13.962 9.68,13.962 L9.186,13.962 L9.497,12.212 C9.671,12.157 9.891,12.12 10.147,12.12 Z"></path></clipPath><clipPath id="i1"><path d="M32,0 L32,32 L0,32 L0,0 L32,0 Z"></path></clipPath></defs><g transform="translate(1.99969999999999 1.9995999999999867)"><g clip-path="url(#i0)"><polygon points="0,0 28,0 28,28 0,28 0,0" stroke="none" fill="#111B3F"></polygon><g transform="translate(-1.99969999999999 -1.9995999999999867)"><g clip-path="url(#i1)"><polygon points="1.9997,1.9996 29.9997,1.9996 29.9997,29.9996 1.9997,29.9996 1.9997,1.9996" stroke="none" fill="#A3BAF2"></polygon></g></g></g></g></svg>