<svg xmlns="http://www.w3.org/2000/svg" width="24" height="24" viewBox="0 0 24 24">
    <path fill="#FFBF27" d="M13.521 5.793c.494-.752 1.503-.989 2.275-.494l7.361 4.707c.601.365.88 1.074.752 1.72.064.257.107.558.085.859v6.835c0 1.526-.987 2.773-2.232 2.773H5.13c-.773 0-1.417-.645-1.417-1.419s.623-1.419 1.417-1.419h4.85v-.344H1.846c-.772 0-1.416-.644-1.416-1.418 0-.774.644-1.419 1.416-1.419H9.98v-.344H1.396c-.773 0-1.417-.644-1.395-1.418 0-.774.643-1.419 1.416-1.419h8.585v-.344H3.349c-.773 0-1.417-.623-1.417-1.418 0-.774.622-1.419 1.417-1.419h3.24v.022c.15 1.139 1.073 2.063 2.232 2.063 1.138 0 2.082-.903 2.21-2.085h5.795L14.08 8.05c-.794-.495-1.03-1.505-.558-2.257zM9.057 1c-.322.408 3.563 5.739.43 6.212-.15.021-.301.043-.516.043-.279 0-.515-.022-.73-.065-2.875-.623-.429-5.008.816-6.19z"/>
</svg>
