<svg xmlns="http://www.w3.org/2000/svg" width="24" height="24" viewBox="0 0 24 24">
    <path fill="#FFBF27" d="M9.845 2l2.917 5.654L17.271 3.9l-.53 4.579 6.745-.281-5.088 3.587L24 16.464l-6.43-1.537 2.485 4.96-5.204-4.117-.182 6.034-3.564-5.555-5.055 5.042.58-6.53-5.934.331 4.774-4.298L0 6.48l7.79.512L9.845 2zm1.011 4.447l-.613 3.57L6.597 8.53l2.105 3.025-3.1 2.512 4.591-.66-.48 2.958 2.154-2.612 1.84 3.158.647-2.992 4.21.05-3.614-2.034 2.719-2.43-3.431 1.058.265-3.95-2.304 3.735-1.343-3.901z"/>
</svg>
