<svg xmlns="http://www.w3.org/2000/svg" width="41" height="24" viewBox="0 0 41 24">
    <path fill="#FFBF27" d="M0 16.771l2.814 1.594L4.646 21.6c.968 1.029 1.51 2.04 1.226 2.324-.305.306-1.446-.34-2.548-1.443-1.028-1.028-1.659-2.089-1.492-2.475L0 16.771zm13.99-9.235l1.706 3.013c.92.977 1.456 1.94 1.264 2.276l-.037.048L6.22 23.576c.27-.27-.206-1.196-1.084-2.17l-.142-.154-1.707-3.013L13.99 7.536zm20.522-3.098c-.245.31-.027.97.516 1.514.504.504 1.11.728 1.437.556l.07-.047c.007.007-.67 1.349-1.728 2.406l-3.016 3.017-11.022 11.022c-.385.384-1.3.093-2.044-.651-.7-.7-1-1.552-.712-1.97l.061-.074L29.106 9.18l3.007-3.006c1.057-1.057 2.399-1.735 2.399-1.735zm-19.74 7.035c-1.495 1.312-2.92 2.695-4.327 4.095-1.4 1.407-2.783 2.831-4.095 4.327 1.495-1.312 2.92-2.695 4.327-4.095 1.4-1.408 2.783-2.833 4.096-4.327zM11.05 5.72l2.58 1.458L2.925 17.881.348 16.424 11.05 5.72zm16.616 6.782c-.203.203-.185.549.039.773.224.224.57.242.773.039.203-.203.186-.55-.039-.774-.224-.224-.57-.241-.773-.038zm6.18-6.924c-.324.224-.682.496-1.025.809l-.253.241-3.445 3.446c-.255.254-.064.86.43 1.352.457.458 1.012.657 1.293.479l.06-.048 3.445-3.445c.415-.415.77-.873 1.05-1.277-.302-.07-.655-.272-.97-.586-.315-.315-.517-.668-.586-.97zM16.891 8.912c.899.899 1.444 1.828 1.272 2.143l-.033.044-.831.832c-.152-.412-.526-.977-1.048-1.563l-.179-.196-1.398-2.468.03-.03c.262-.262 1.242.292 2.187 1.238zm4.24-4.24c.826.827 1.33 1.68 1.18 1.976l-.034.047-.595.595c.08-.08.077-.232.006-.43-.042-.121-.182-.167-.287-.111l-.049.036-2.188 2.188c-.14.14-.181.348-.116.535.057.163.068.294.024.38l-.033.045-.562.561c.243-.242-.27-1.147-1.145-2.022-.826-.827-1.68-1.33-1.976-1.18l-.046.034.56-.562c.031-.03.072-.048.12-.055.13-.02.25-.081.342-.173l2.093-2.093.144-.145c.118-.118.032-.209-.03-.19l-.025.014.595-.595c.242-.242 1.147.27 2.022 1.145zM9.168 8.451c-.48.48-.598 1.023-.263 1.211.336.188.997-.05 1.478-.53.48-.48.599-1.023.263-1.211-.335-.188-.997.049-1.478.53zm10.045-3.739l-.077.066-1.889 1.889c-.197.197-.18.52.039.695.198.16.404.344.609.548l.014.015c.204.204.52.231.75.073l.081-.068 1.862-1.862c.2-.2.204-.526.006-.73l-.07-.07c-.2-.2-.4-.38-.594-.536-.214-.173-.513-.175-.73-.02zm3.366-1.487c.9.899 1.445 1.828 1.272 2.142l-.033.045-1.025 1.025c.262-.262-.293-1.24-1.239-2.187-.898-.898-1.827-1.444-2.142-1.271l-.044.033 1.025-1.025c.261-.262 1.24.292 2.186 1.238zM39.414.095c-.086.01-.161.04-.216.096-.228.228-.056.768.383 1.207.44.44.98.612 1.208.384.055-.055.086-.13.096-.216.016.19-.164.425-.478.581-.31.155-.637.456-1.05.869-.413.413-.976 1.61-1.95 2.583-.29.29-.977.07-1.537-.49-.56-.558-.779-1.247-.49-1.537.974-.973 2.17-1.536 2.584-1.95.414-.412.714-.74.868-1.05.157-.314.391-.493.582-.477zM25.207.598c.4.4.648.814.59.97l-.022.033-2.14 2.14c-.202-.269-.45-.555-.733-.838-.213-.213-.427-.405-.634-.573l-.205-.16 2.14-2.14c.121-.12.57.134 1.004.568zM40.21.769c.232.233.323.519.203.639s-.406.03-.639-.203c-.232-.233-.323-.519-.203-.64.12-.12.406-.029.639.204z"/>
</svg>
