<svg xmlns="http://www.w3.org/2000/svg" width="24" height="24" viewBox="0 0 24 24">
    <path fill="#FFBF27" d="M4.71 3c3.994 2.444 6.705 9.144 6.007 13.756-.097 2.88-2.452 5.179-5.358 5.179-1.38 0-2.647-.534-3.605-1.392C.682 19.83.179 18.747.065 17.419.016 17.144 0 16.87 0 16.594c0-.42.049-.825.146-1.214.39-2.864 1.868-6.327 3.264-9.467v.001l.002.282c.043 3.686.928 4.07.97 4.086.002 0 1.789-3.56.327-7.282zm.616 9.888c-1.38 1.02-4.01 7.525-.292 7.59 3.718.065 1.429-4.45.747-6.554.056.883-.241 1.39-.322 1.51l-.02.027s-.633-1.262-.113-2.573zm15.897-3.77l1.202.825-1.202 1.748 2.079-1.133.698 1.278-4.612 2.509-3.783 5.453-1.202-.825 2.127-3.09-3.36 1.844-.7-1.279 5.912-3.22 2.841-4.11zm-5.91.404c-.163.194 1.802 2.864-.033 2.864s-.584-2.281.033-2.864zm1.705-3.285c-.163.194 1.802 2.864-.033 2.864s-.568-2.282.033-2.864zm-3.167 0C13.69 6.43 15.654 9.1 13.82 9.1s-.569-2.282.032-2.864z"/>
</svg>
