<svg xmlns="http://www.w3.org/2000/svg" width="24" height="24" viewBox="0 0 24 24">
    <path fill="#FFBF27" d="M23.544 1.647c-.501-.605-1.245-.83-1.642-.484l-3.665 3.092c-1.28-1.105-3.492-.241-4.857.899L1.09 15.503C-.38 16.729-.295 18.699.933 20.15l.553.657c1.244 1.468 3.163 1.866 4.615.639l12.29-10.366c1.366-1.158 2.61-3.196 1.695-4.648l3.664-3.075c.398-.346.311-1.106-.207-1.71zm-5.791 4.042c-.086.225-.328.346-.553.26-.76-.26-1.4-.363-2.731.76l-8.85 7.463c-.087.07-.174.104-.277.104-.121 0-.242-.052-.329-.155-.155-.19-.138-.45.052-.605l8.85-7.464c1.504-1.278 2.49-1.296 3.561-.898.225.069.346.31.277.535z"/>
</svg>
