<svg xmlns="http://www.w3.org/2000/svg" width="24" height="24" viewBox="0 0 24 24">
    <path fill="#FFBF27" d="M17.626 23.065V24H6.873v-.935h10.753zM10.052 0c2.961 2.026 4.052 6.078 4.052 6.078s1.247-.623 1.09-2.338c2.76 4.395 3.803 9.476 3.07 13.138-.373 3.039-2.96 5.408-6.108 5.408C8.758 22.286 6 19.527 6 16.13c0-.218.016-.436.031-.64.016-3.35 1.543-7.573 3.242-11.438 0 4.675.935 4.831.935 4.831S11.735 4.301 10.052 0zm2.104 12.623c-2.275 0-4.13 1.855-4.13 4.13 0 2.276 1.855 4.13 4.13 4.13s4.13-1.854 4.13-4.13c0-2.275-1.855-4.13-4.13-4.13z"/>
</svg>
