<svg xmlns="http://www.w3.org/2000/svg" width="24" height="24" viewBox="0 0 24 24">
    <path fill="#FFBF27" d="M4.132 13.881c.226-.678.945-1.048 1.623-.843.678.226 1.048.946.843 1.625-.02.041-.041.103-.062.144l5.816 2.57 6.041-2.323c-.185-.473-.082-1.05.308-1.42.493-.493 1.315-.472 1.809.042.349.35.452.843.308 1.275.226.062.431.164.596.35.493.493.472 1.316-.041 1.81-.494.493-1.316.472-1.809-.042-.144-.144-.226-.288-.287-.452l-4.603 1.789 4.52 1.995c.206-.473.679-.802 1.213-.782.719.02 1.274.617 1.274 1.337-.02.473-.288.905-.699 1.11.103.206.165.432.165.679-.021.7-.596 1.275-1.316 1.254-.698-.02-1.274-.596-1.253-1.316 0-.185.041-.35.123-.514l-6.39-2.838-6.453 2.51c.247.616 0 1.315-.596 1.624-.616.329-1.397.082-1.726-.555-.206-.432-.164-.946.082-1.317-.185-.123-.37-.288-.472-.514-.33-.617-.083-1.398.554-1.727.617-.33 1.398-.083 1.727.555.02.041.04.103.061.144l4.5-1.748-4.438-1.954c-.267.597-.945.926-1.582.72-.679-.226-1.048-.946-.843-1.625.164-.452.534-.781.986-.863-.061-.227-.061-.473.02-.7zM12.33 0c4.952 0 8.98 2.838 8.98 6.334 0 2.55-2.158 4.771-5.26 5.758v2.036H8.631v-2.036c-3.103-1.007-5.26-3.208-5.26-5.758C3.372 2.838 7.379 0 12.33 0zm0 8.247l-1.664 2.755h3.349l-1.685-2.755zm3.082-4.73c-1.459 0-2.65.966-2.65 2.118v.02c0 1.173 1.191 2.119 2.65 2.119 1.46 0 2.651-.946 2.651-2.119v-.02l-.006-.145c-.094-1.105-1.246-1.973-2.645-1.973zm-6.164 0c-1.46 0-2.651.966-2.651 2.118v.02c0 1.173 1.192 2.119 2.65 2.119 1.46 0 2.651-.946 2.651-2.119v-.02l-.006-.145C11.8 4.385 10.647 3.517 9.25 3.517z"/>
</svg>
