<svg xmlns="http://www.w3.org/2000/svg" width="24" height="24" viewBox="0 0 24 24">
    <path fill="#FFBF27" d="M13.801 14.519c1.41 2.409 2.8 4.839 4.21 7.27-3.71 2.148-8.29 2.148-12 0 1.41-2.41 2.8-4.84 4.21-7.27 1.106.651 2.473.651 3.58 0zM12 8.986c1.33 0 2.409 1.078 2.409 2.408 0 1.33-1.079 2.409-2.409 2.409-1.33 0-2.409-1.079-2.409-2.409 0-1.33 1.079-2.408 2.409-2.408zM6.01 1c1.39 2.43 2.8 4.86 4.21 7.27-1.128.65-1.8 1.844-1.822 3.124H0C0 7.12 2.3 3.148 6.01 1zm11.98 0C21.721 3.148 24 7.098 24 11.394h-8.398c0-1.28-.673-2.474-1.823-3.125C15.19 5.861 16.58 3.43 17.99 1z"/>
</svg>
