<?xml version="1.0" encoding="utf-8"?>
<!-- Generator: Adobe Illustrator 18.1.1, SVG Export Plug-In . SVG Version: 6.00 Build 0)  -->
<svg version="1.1" id="Layer_1" xmlns="http://www.w3.org/2000/svg" xmlns:xlink="http://www.w3.org/1999/xlink" x="0px" y="0px"
	 width="85px" height="85px" viewBox="0 0 85 85" enable-background="new 0 0 85 85" xml:space="preserve">
<path fill="#1F3173" d="M85,42.5C85,66,66,85,42.5,85C19,85,0,66,0,42.5C0,19,19,0,42.5,0C66,0,85,19,85,42.5"/>
<rect x="31.5" y="22.2" opacity="0.25" width="21.6" height="37.9"/>
<path display="none" fill="#FFFFFF" d="M63.8,35.1l-0.6-1h1.6c1,0,1.5-0.7,1.5-1.7c0-1.1-0.4-1.7-1.5-1.7h-3.7l-3-5.5
	c-0.8-2.2-2.8-3.8-6.1-3.9h-5.1h-8.6H33c-3.4,0-5.3,1.7-6.1,3.9l-3,5.5h-3.7c-1,0-1.5,0.7-1.5,1.7c0,1.1,0.4,1.7,1.5,1.7h1.6l-0.6,1
	c-1.9,0.5-4.8,2.3-4.8,6.3v15.4v3.4v2.5c0,1.1,0.9,2,1.9,2h3.9c1.1,0,1.9-0.9,1.9-2v-2.5v-2.5h36.8v2.5v2.5c0,1.1,0.9,2,1.9,2h3.9
	c1.1,0,1.9-0.9,1.9-2v-2.5v-3.4V41.4C68.6,37.5,65.7,35.6,63.8,35.1z M30.4,27.2c0,0,1-2,2.4-2h19.4c1.4,0,2.4,2,2.4,2l3.9,7.4H26.5
	L30.4,27.2z M24.6,48.4c-2.1,0-3.9-1.8-3.9-3.9c0-2.2,1.7-3.9,3.9-3.9s3.9,1.8,3.9,3.9C28.5,46.7,26.7,48.4,24.6,48.4z M52.2,47.3
	c0,0.6-0.5,1.1-1.1,1.1H33.9c-0.6,0-1.1-0.5-1.1-1.1v-2.3c0-0.6,0.5-1.1,1.1-1.1h17.2c0.6,0,1.1,0.5,1.1,1.1V47.3z M60.4,48.4
	c-2.1,0-3.9-1.8-3.9-3.9c0-2.2,1.7-3.9,3.9-3.9c2.1,0,3.9,1.8,3.9,3.9C64.3,46.7,62.5,48.4,60.4,48.4z"/>
<path display="none" opacity="0.2" d="M84.6,49.5l-19-18.7l-0.1,0c0.5,0.3,0.7,0.8,0.7,1.6c0,1.1-0.4,1.7-1.5,1.7h-1.6l0.6,1
	c1.9,0.5,4.8,2.3,4.8,6.3v15.4v3.4v2.5c0,1.1-0.9,2-1.9,2h-3.9c-1.1,0-1.9-0.9-1.9-2v-2.5v-2.5H24.1v2.5v2.5c0,1.1-0.9,2-1.9,2h-3.9
	c-0.5,0-1-0.2-1.3-0.5l0,0l22.2,22.2c1.1,0.1,2.2,0.1,3.4,0.1C64.1,86.5,81.9,70.4,84.6,49.5z"/>
<path fill="#FFFFFF" d="M53.1,17.5H32.4c-1.3,0-2.4,1.2-2.4,2.4v46.3c0,1.2,0.9,2.4,2.2,2.4l20.9,0c1.3,0,2.4-1.2,2.4-2.4V19.9
	C55.6,18.7,54.4,17.5,53.1,17.5z M39.7,19.9h6.1c0.3,0,0.7,0.3,0.7,0.6c0,0.3-0.4,0.6-0.7,0.6h-6.1c-0.3,0-0.7-0.3-0.7-0.6
	S39.4,19.9,39.7,19.9z M42.2,66.6c-1.3,0-2.4-1.1-2.4-2.4c0-1.3,1.1-2.4,2.4-2.4c1.3,0,2.4,1.1,2.4,2.4
	C44.6,65.5,43.5,66.6,42.2,66.6z M53.1,60.1H32.4V23.6h20.7V60.1z"/>
</svg>
