<?xml version="1.0" encoding="utf-8"?>
<!-- Generator: Adobe Illustrator 18.1.1, SVG Export Plug-In . SVG Version: 6.00 Build 0)  -->
<svg version="1.1" id="Layer_1" xmlns="http://www.w3.org/2000/svg" xmlns:xlink="http://www.w3.org/1999/xlink" x="0px" y="0px"
	 viewBox="33 -33 142 142" enable-background="new 33 -33 142 142" xml:space="preserve">
<circle id="circle-1" fill="#1F2444" cx="104" cy="38" r="71"/>
<path id="path-1" fill="#000066" d="M66,11h76c2.8,0,5,2.2,5,5v44c0,2.8-2.2,5-5,5H66c-2.8,0-5-2.2-5-5V16C61,13.2,63.2,11,66,11z"
	/>
<path fill="none" enable-background="new    " d="z"/>
<g>
	<g>
		<path fill="#F7971D" d="M104,52.8c3.5,3.2,8.2,5.2,13.3,5.2c11,0,19.9-8.9,19.9-19.9c0-11-8.9-19.9-19.9-19.9
			c-5.1,0-9.8,2-13.3,5.2c-4,3.6-6.5,8.9-6.5,14.8C97.5,43.8,100,49.1,104,52.8"/>
		<path fill="#CA2027" d="M110.4,35.9c-0.1-0.7-0.2-1.4-0.3-2.1H97.9c0.2-0.7,0.3-1.4,0.6-2.1h11c-0.2-0.7-0.5-1.4-0.8-2.1h-9.3
			c0.3-0.7,0.7-1.4,1.1-2.1h7c-0.5-0.7-1-1.4-1.5-2.1h-4c0.6-0.8,1.3-1.5,2-2.1c-3.5-3.2-8.2-5.2-13.3-5.2c-11,0-19.9,8.9-19.9,19.9
			c0,11,8.9,19.9,19.9,19.9c5.1,0,9.8-2,13.3-5.2c0.7-0.7,1.4-1.4,2-2.1h-4c-0.5-0.7-1.1-1.4-1.5-2.1h7c0.4-0.7,0.8-1.4,1.1-2.1
			h-9.3c-0.3-0.7-0.6-1.4-0.8-2.1h11c0.2-0.7,0.4-1.4,0.6-2.1c0.1-0.7,0.3-1.4,0.3-2.1c0.1-0.7,0.1-1.4,0.1-2.1
			C110.5,37.3,110.5,36.6,110.4,35.9"/>
		<path fill="#FFFFFF" d="M134.6,42.6c0-0.4,0.3-0.6,0.6-0.6s0.6,0.3,0.6,0.6s-0.3,0.6-0.6,0.6S134.6,43,134.6,42.6 M135.2,43.1
			c0.3,0,0.5-0.2,0.5-0.5s-0.2-0.5-0.5-0.5c-0.3,0-0.5,0.2-0.5,0.5S134.9,43.1,135.2,43.1 M135.1,42.9H135v-0.6h0.2c0,0,0.1,0,0.1,0
			c0,0,0.1,0.1,0.1,0.1c0,0.1,0,0.1-0.1,0.1l0.1,0.2h-0.1l-0.1-0.2h-0.1V42.9z M135.1,42.6L135.1,42.6c0.1,0,0.1,0,0.2,0
			c0,0,0,0,0-0.1c0,0,0,0,0-0.1c0,0-0.1,0-0.1,0h-0.1V42.6z"/>
		<path fill="#22205F" d="M97.2,43.7c-0.7,0.2-1.1,0.3-1.6,0.3c-1,0-1.6-0.6-1.6-1.8c0-0.2,0-0.5,0.1-0.7l0.1-0.8l0.1-0.6l0.9-5.6
			h2.1L97,35.6h1.3L98,37.7h-1.3l-0.6,3.4c0,0.2,0,0.3,0,0.3c0,0.4,0.2,0.6,0.7,0.6c0.2,0,0.4,0,0.7-0.1L97.2,43.7"/>
		<path fill="#22205F" d="M103.9,43.7c-0.7,0.2-1.5,0.3-2.2,0.3c-2.3,0-3.7-1.3-3.7-3.7c0-2.8,1.6-4.9,3.8-4.9c1.8,0,2.9,1.2,2.9,3
			c0,0.6-0.1,1.2-0.3,2h-4.3c0,0.1,0,0.2,0,0.3c0,1,0.6,1.4,1.9,1.4c0.8,0,1.5-0.2,2.2-0.5L103.9,43.7 M102.6,38.8
			c0-0.2,0-0.3,0-0.4c0-0.7-0.4-1.1-1-1.1c-0.7,0-1.2,0.5-1.4,1.5L102.6,38.8z"/>
		<polygon fill="#22205F" points="80.8,43.9 78.6,43.9 79.9,36.1 77.1,43.9 75.6,43.9 75.5,36.1 74.2,43.9 72.1,43.9 73.8,33.8 
			76.9,33.8 76.9,40 79,33.8 82.4,33.8 		"/>
		<path fill="#22205F" d="M86,40.2c-0.2,0-0.3,0-0.4,0c-1.2,0-1.8,0.5-1.8,1.2c0,0.5,0.3,0.8,0.8,0.8C85.5,42.2,85.9,41.4,86,40.2
			 M87.7,43.9h-1.9l0-0.9c-0.5,0.6-1.1,1-2.3,1c-1,0-1.9-0.9-1.9-2.2c0-0.4,0.1-0.7,0.2-1.1c0.3-1.3,1.6-2.1,3.6-2.1
			c0.2,0,0.6,0,0.9,0c0.1-0.3,0.1-0.4,0.1-0.5c0-0.5-0.4-0.7-1.5-0.7c-0.6,0-1.3,0.1-1.8,0.2l-0.3,0.1l-0.1,0l0.3-1.8
			c1-0.3,1.7-0.4,2.5-0.4c1.9,0,2.8,0.8,2.8,2.4c0,0.4,0,0.7-0.1,1.6l-0.5,2.9l-0.1,0.5l-0.1,0.4l0,0.3L87.7,43.9z"/>
		<path fill="#22205F" d="M114.3,35.7c0.6,0,1.2,0.2,1.9,0.5l0.4-2.2c-0.2-0.1-0.2-0.1-0.5-0.2l-0.9-0.2c-0.3-0.1-0.6-0.1-1-0.1
			c-1.1,0-1.7,0-2.3,0.4c-0.3,0.2-0.8,0.5-1.3,1.1l-0.3-0.1l-2.2,1.6l0.1-0.9h-2.3l-1.3,8.2h2.2l0.8-4.4c0,0,0.3-0.6,0.4-0.8
			c0.4-0.5,0.7-0.5,1.2-0.5c0.1,0,0.1,0,0.2,0c-0.1,0.5-0.1,1-0.1,1.6c0,2.7,1.5,4.4,3.8,4.4c0.6,0,1.1-0.1,1.9-0.3l0.4-2.3
			c-0.7,0.4-1.3,0.5-1.8,0.5c-1.3,0-2-0.9-2-2.5C111.5,37.3,112.7,35.7,114.3,35.7"/>
		<path fill="#22205F" d="M132.5,33.8l-0.5,2.9c-0.5-0.8-1.1-1.2-2-1.2c-1.1,0-2.2,0.6-2.8,1.9l0,0l-1.4-0.8l0.1-0.9h-2.3l-1.3,8.2
			h2.2l0.7-4.4c0,0,0.6-0.6,0.7-0.8c0.3-0.4,0.7-0.5,1-0.5c-0.2,0.7-0.4,1.5-0.4,2.4c0,2.1,1.1,3.4,2.6,3.4c0.8,0,1.4-0.3,2-0.9
			l-0.1,0.8h2l1.6-10.1H132.5 M129.9,41.9c-0.7,0-1.1-0.5-1.1-1.6c0-1.6,0.7-2.8,1.7-2.8c0.7,0,1.1,0.6,1.1,1.6
			C131.6,40.8,130.9,41.9,129.9,41.9"/>
		<path fill="#22205F" d="M119.9,40.2c-0.2,0-0.3,0-0.4,0c-1.2,0-1.8,0.5-1.8,1.2c0,0.5,0.3,0.8,0.8,0.8
			C119.5,42.2,119.9,41.4,119.9,40.2 M121.6,43.9h-1.9l0-0.9c-0.5,0.6-1.1,1-2.3,1c-1,0-2-0.9-2-2.3c0-2,1.5-3.2,3.8-3.2
			c0.2,0,0.6,0,0.9,0c0.1-0.3,0.1-0.4,0.1-0.5c0-0.5-0.4-0.7-1.5-0.7c-0.6,0-1.3,0.1-1.8,0.2l-0.3,0.1l-0.1,0l0.3-1.8
			c1-0.3,1.7-0.4,2.5-0.4c1.9,0,2.8,0.8,2.8,2.4c0,0.4,0,0.7-0.1,1.6l-0.5,2.9l-0.1,0.5l-0.1,0.4l0,0.3L121.6,43.9z"/>
		<path fill-rule="evenodd" clip-rule="evenodd" fill="#22205F" d="M92.2,37.4c0.4,0,1,0,1.6,0.1l0.3-1.9c-0.6-0.1-1.4-0.2-1.9-0.2
			c-2.4,0-3.2,1.3-3.2,2.8c0,1,0.5,1.7,1.6,2.2c0.9,0.4,1,0.5,1,0.9c0,0.5-0.4,0.8-1.3,0.8c-0.6,0-1.2-0.1-1.9-0.3l-0.2,1.9l0,0
			l0.4,0.1c0.1,0,0.3,0.1,0.6,0.1c0.5,0,0.9,0.1,1.2,0.1c2.4,0,3.4-0.9,3.4-2.7c0-1.1-0.5-1.8-1.6-2.3c-0.9-0.4-1-0.5-1-0.9
			C91.1,37.7,91.5,37.4,92.2,37.4"/>
		<path fill="#FFFFFF" d="M117.1,33.4l-0.4,2.2c-0.8-0.4-1.3-0.5-1.9-0.5c-1.6,0-2.7,1.6-2.7,3.8c0,1.5,0.8,2.5,2,2.5
			c0.5,0,1.1-0.2,1.8-0.5l-0.4,2.3c-0.8,0.2-1.3,0.3-1.9,0.3c-2.3,0-3.8-1.7-3.8-4.4c0-3.6,2-6.1,4.9-6.1c0.4,0,0.7,0,1,0.1l0.9,0.2
			C116.9,33.3,117,33.4,117.1,33.4"/>
		<path fill="#FFFFFF" d="M110.2,34.9c-0.1,0-0.1,0-0.2,0c-0.7,0-1.1,0.4-1.8,1.3l0.2-1.2h-2l-1.3,8.2h2.2c0.8-5,1-5.9,2-5.9
			c0.1,0,0.1,0,0.2,0C109.7,36.3,109.9,35.6,110.2,34.9L110.2,34.9"/>
		<path fill="#FFFFFF" d="M97.8,43.1c-0.6,0.2-1.1,0.3-1.5,0.3c-1.1,0-1.7-0.6-1.7-1.8c0-0.2,0-0.5,0.1-0.7l0.1-0.8l0.1-0.6l0.9-5.6
			h2.1L97.7,35h1.1l-0.3,2h-1.1l-0.6,3.4c0,0.1,0,0.3,0,0.3c0,0.4,0.2,0.6,0.7,0.6c0.2,0,0.4,0,0.6-0.1L97.8,43.1"/>
		<path fill="#FFFFFF" d="M89.5,37.6c0,1,0.5,1.8,1.6,2.3c0.9,0.4,1,0.5,1,0.9c0,0.5-0.4,0.7-1.2,0.7c-0.6,0-1.2-0.1-1.9-0.3
			l-0.3,1.9l0.1,0l0.4,0.1c0.1,0,0.3,0.1,0.6,0.1c0.5,0,0.9,0.1,1.2,0.1c2.3,0,3.3-0.9,3.3-2.7c0-1.1-0.4-1.8-1.5-2.3
			c-0.9-0.4-1-0.5-1-0.9c0-0.4,0.4-0.7,1.1-0.7c0.4,0,1,0,1.5,0.1l0.3-1.9c-0.6-0.1-1.4-0.2-1.9-0.2C90.3,34.8,89.5,36.1,89.5,37.6"
			/>
		<path fill="#FFFFFF" d="M133.6,43.2h-2l0.1-0.8c-0.6,0.6-1.2,0.9-2,0.9c-1.6,0-2.6-1.4-2.6-3.4c0-2.7,1.6-5,3.5-5
			c0.8,0,1.5,0.3,2.1,1.1l0.5-2.9h2.1L133.6,43.2 M130.4,41.3c1,0,1.7-1.1,1.7-2.8c0-1-0.4-1.6-1.1-1.6c-1,0-1.7,1.1-1.7,2.8
			C129.3,40.7,129.7,41.3,130.4,41.3"/>
		<path fill="#FFFFFF" d="M104.4,43c-0.7,0.2-1.5,0.3-2.2,0.3c-2.4,0-3.7-1.3-3.7-3.7c0-2.8,1.6-4.9,3.8-4.9c1.8,0,2.9,1.2,2.9,3
			c0,0.6-0.1,1.2-0.3,2h-4.3c0,0.1,0,0.2,0,0.3c0,1,0.6,1.4,1.9,1.4c0.8,0,1.5-0.2,2.2-0.5L104.4,43 M103.2,38.2c0-0.2,0-0.3,0-0.4
			c0-0.7-0.4-1.1-1-1.1c-0.7,0-1.2,0.5-1.4,1.5L103.2,38.2z"/>
		<polygon fill="#FFFFFF" points="81.3,43.2 79.2,43.2 80.4,35.5 77.7,43.2 76.2,43.2 76,35.5 74.7,43.2 72.7,43.2 74.4,33.1 
			77.5,33.1 77.6,39.4 79.7,33.1 83,33.1 		"/>
		<path fill="#FFFFFF" d="M86.6,39.6c-0.2,0-0.3,0-0.5,0c-1.2,0-1.8,0.4-1.8,1.2c0,0.5,0.3,0.8,0.8,0.8C86,41.6,86.6,40.8,86.6,39.6
			 M88.2,43.2h-1.8l0-0.9c-0.5,0.7-1.3,1-2.3,1c-1.2,0-2-0.9-2-2.2c0-2,1.4-3.2,3.8-3.2c0.2,0,0.6,0,0.9,0.1
			c0.1-0.3,0.1-0.4,0.1-0.5c0-0.5-0.4-0.7-1.4-0.7c-0.6,0-1.3,0.1-1.8,0.2L83.5,37l-0.2,0.1l0.3-1.8c1.1-0.3,1.8-0.4,2.6-0.4
			c1.9,0,2.8,0.8,2.8,2.4c0,0.4,0,0.7-0.2,1.6l-0.5,2.9l-0.1,0.5l-0.1,0.4l0,0.3L88.2,43.2z"/>
		<path fill="#FFFFFF" d="M120.6,39.6c-0.2,0-0.3,0-0.5,0c-1.2,0-1.8,0.4-1.8,1.2c0,0.5,0.3,0.8,0.8,0.8
			C120,41.6,120.6,40.8,120.6,39.6 M122.2,43.2h-1.8l0-0.9c-0.5,0.7-1.3,1-2.3,1c-1.2,0-2-0.9-2-2.2c0-2,1.4-3.2,3.8-3.2
			c0.2,0,0.6,0,0.9,0.1c0.1-0.3,0.1-0.4,0.1-0.5c0-0.5-0.4-0.7-1.4-0.7c-0.6,0-1.3,0.1-1.8,0.2l-0.3,0.1l-0.2,0.1l0.3-1.8
			c1.1-0.3,1.8-0.4,2.6-0.4c1.9,0,2.8,0.8,2.8,2.4c0,0.4,0,0.7-0.2,1.6l-0.5,2.9l-0.1,0.5l-0.1,0.4l0,0.3L122.2,43.2z"/>
		<path fill="#FFFFFF" d="M128,34.9c-0.1,0-0.1,0-0.2,0c-0.7,0-1.1,0.4-1.8,1.3l0.2-1.2h-2l-1.3,8.2h2.2c0.8-5,1-5.9,2-5.9
			c0.1,0,0.1,0,0.1,0C127.4,36.3,127.7,35.6,128,34.9L128,34.9"/>
	</g>
</g>
</svg>
