<svg xmlns="http://www.w3.org/2000/svg" width="50" height="50" viewBox="0 0 50 50">
    <g fill="none" fill-rule="evenodd">
        <circle cx="25" cy="25" r="25" fill="#111B40" fill-rule="nonzero"/>
        <path fill="#FFF" d="M11.15 15.625h27.7c.994 0 1.775.781 1.775 1.776v15.98c0 .994-.781 1.775-1.776 1.775H11.151c-.995 0-1.776-.781-1.776-1.775V17.4c0-.995.781-1.776 1.776-1.776z"/>
        <path fill="#000" d="M17.966 24.85c.014 1.515 1.372 2.019 1.387 2.025-.012.036-.217.719-.715 1.424-.431.61-.878 1.218-1.582 1.23-.692.013-.915-.397-1.706-.397-.791 0-1.038.385-1.693.41-.68.025-1.198-.66-1.632-1.268-.888-1.243-1.566-3.512-.655-5.043.452-.761 1.26-1.243 2.138-1.255.668-.012 1.298.435 1.706.435.408 0 1.174-.538 1.979-.46.337.015 1.283.133 1.89.994-.05.03-1.13.638-1.117 1.905m5.873-4.62c.553 0 1.03.065 1.431.195s.73.318.989.561c.221.216.394.472.519.77.124.297.186.64.186 1.027 0 .468-.085.878-.256 1.229-.17.351-.403.646-.698.884-.295.239-.646.417-1.051.534-.406.117-.848.175-1.328.175-.433 0-.797-.031-1.092-.094v3.89h-.65v-8.996c.267-.045.562-.085.885-.121.323-.037.678-.054 1.065-.054zm-6.636-.699c.066.586-.177 1.175-.538 1.599-.36.423-.953.752-1.533.708-.079-.574.214-1.174.548-1.548.373-.423 1.002-.739 1.523-.759zm12.69 3.238c.462 0 .838.077 1.128.23.29.153.518.351.684.594.166.243.28.515.34.817.059.302.09.601.09.899v2.553c-.001.26.003.522.013.783.009.261.036.513.082.756h-.608l-.097-.918h-.028c-.082.126-.189.252-.318.378s-.278.24-.449.345c-.17.103-.364.187-.58.25-.217.062-.455.094-.713.094-.322 0-.606-.052-.85-.155-.245-.104-.445-.239-.602-.405-.157-.167-.274-.358-.353-.575-.078-.216-.117-.432-.117-.648 0-.765.33-1.355.989-1.77.659-.414 1.652-.612 2.98-.594v-.175c0-.172-.016-.368-.048-.589-.033-.22-.104-.43-.215-.628-.11-.197-.276-.364-.497-.499-.222-.135-.522-.203-.9-.203-.285 0-.569.043-.85.129-.281.085-.537.204-.767.357l-.208-.472c.295-.198.6-.34.913-.425.313-.086.64-.129.982-.129zm-6.082-2c.369 0 .705.043 1.01.129.304.085.567.211.788.378.221.167.392.38.512.642.12.26.179.567.179.919 0 .729-.228 1.283-.684 1.66-.457.379-1.1.568-1.93.568-.22 0-.428-.009-.621-.027-.194-.018-.37-.05-.526-.094v-4.066c.129-.027.3-.052.511-.075.212-.022.466-.033.761-.033zm9.594 2.148l1.687 4.215c.092.234.18.475.263.723.083.247.156.475.22.682h.029c.064-.198.138-.421.22-.669.084-.247.176-.502.277-.764l1.577-4.187h.691l-1.922 4.755c-.193.504-.375.962-.546 1.371-.17.41-.343.78-.519 1.108-.175.329-.352.619-.532.871-.18.252-.38.473-.602.662-.257.225-.495.39-.712.493-.216.104-.362.17-.435.196l-.222-.527c.166-.072.35-.166.553-.283.203-.118.402-.27.595-.46.166-.162.348-.375.546-.641.198-.266.376-.588.533-.966.055-.144.083-.239.083-.284 0-.063-.028-.157-.083-.284l-2.393-6.01h.692zm-2.277 3.011l.356.002v1.404c0 .082-.023.212-.07.392-.055.163-.135.32-.242.473-.106.153-.237.29-.394.412-.157.122-.34.218-.553.29-.212.073-.451.109-.719.109-.332 0-.631-.109-.899-.325-.267-.216-.4-.554-.4-1.013 0-.387.105-.697.318-.931.211-.235.478-.413.801-.534.323-.122.676-.2 1.058-.236.383-.037.75-.05 1.1-.04z"/>
    </g>
</svg>
