<?xml version="1.0" encoding="utf-8"?>
<!-- Generator: Adobe Illustrator 21.0.0, SVG Export Plug-In . SVG Version: 6.00 Build 0)  -->
<svg version="1.1" id="Layer_1" xmlns="http://www.w3.org/2000/svg" xmlns:xlink="http://www.w3.org/1999/xlink" x="0px" y="0px"
	 viewBox="0 0 142 142" style="enable-background:new 0 0 142 142;" xml:space="preserve">
<style type="text/css">
	.st0{fill:#1F2444;}
	.st1{fill:#FFFFFF;}
	.st2{fill:#009CDE;}
	.st3{fill:#003087;}
</style>
<g id="discoversvg">
	<circle id="circle-1" class="st0" cx="71" cy="71" r="71"/>
	<path id="path-1" class="st1" d="M32,43h78c2.8,0,5,2.2,5,5v45c0,2.8-2.2,5-5,5H32c-2.8,0-5-2.2-5-5V48C27,45.2,29.2,43,32,43z"/>
	<path class="st1" d="M-33,33"/>
	<path class="st1" d="M-33,33"/>
	<g>
		<path class="st2" d="M84.7,60.6h-6.1c-0.4,0-0.8,0.3-0.8,0.7l-2.5,15.6c0,0.3,0.2,0.6,0.5,0.6h3.1c0.3,0,0.5-0.2,0.6-0.5l0.7-4.4
			c0.1-0.4,0.4-0.7,0.8-0.7H83c4,0,6.3-1.9,6.9-5.8c0.3-1.7,0-3-0.8-3.9C88.2,61.1,86.7,60.6,84.7,60.6z M85.4,66.3
			c-0.3,2.2-2,2.2-3.6,2.2h-0.9l0.6-4.1c0-0.2,0.3-0.4,0.5-0.4h0.4c1.1,0,2.1,0,2.7,0.6C85.4,65,85.5,65.5,85.4,66.3z"/>
		<path class="st3" d="M41.3,60.6h-6.1c-0.4,0-0.8,0.3-0.8,0.7l-2.5,15.6c0,0.3,0.2,0.6,0.5,0.6h2.9c0.4,0,0.8-0.3,0.8-0.7l0.7-4.2
			c0.1-0.4,0.4-0.7,0.8-0.7h1.9c4,0,6.3-1.9,6.9-5.8c0.3-1.7,0-3-0.8-3.9C44.8,61.1,43.3,60.6,41.3,60.6z M42,66.3
			c-0.3,2.2-2,2.2-3.6,2.2h-0.9l0.6-4.1c0-0.2,0.3-0.4,0.5-0.4H39c1.1,0,2.1,0,2.7,0.6C42,65,42.1,65.5,42,66.3z"/>
		<path class="st3" d="M59.5,66.2h-2.9c-0.2,0-0.5,0.2-0.5,0.4l-0.1,0.8l-0.2-0.3c-0.6-0.9-2-1.2-3.4-1.2c-3.2,0-6,2.4-6.5,5.9
			c-0.3,1.7,0.1,3.3,1.1,4.5c0.9,1,2.2,1.5,3.7,1.5c2.6,0,4-1.7,4-1.7l-0.1,0.8c0,0.3,0.2,0.6,0.5,0.6h2.6c0.4,0,0.8-0.3,0.8-0.7
			l1.6-10C60,66.5,59.8,66.2,59.5,66.2z M55.4,71.9c-0.3,1.7-1.6,2.8-3.3,2.8c-0.8,0-1.5-0.3-2-0.8c-0.4-0.5-0.6-1.2-0.5-2
			C50,70.2,51.3,69,53,69c0.8,0,1.5,0.3,1.9,0.8C55.4,70.3,55.5,71.1,55.4,71.9z"/>
		<path class="st2" d="M102.9,66.2h-2.9c-0.2,0-0.5,0.2-0.5,0.4l-0.1,0.8l-0.2-0.3c-0.6-0.9-2-1.2-3.4-1.2c-3.2,0-6,2.4-6.5,5.9
			c-0.3,1.7,0.1,3.3,1.1,4.5c0.9,1,2.2,1.5,3.7,1.5c2.6,0,4-1.7,4-1.7l-0.1,0.8c0,0.3,0.2,0.6,0.5,0.6h2.6c0.4,0,0.8-0.3,0.8-0.7
			l1.6-10C103.4,66.5,103.2,66.2,102.9,66.2z M98.8,71.9c-0.3,1.7-1.6,2.8-3.3,2.8c-0.8,0-1.5-0.3-2-0.8c-0.4-0.5-0.6-1.2-0.5-2
			c0.3-1.7,1.6-2.8,3.3-2.8c0.8,0,1.5,0.3,1.9,0.8C98.7,70.3,98.9,71.1,98.8,71.9z"/>
		<path class="st3" d="M75,66.2h-2.9c-0.3,0-0.5,0.1-0.7,0.4l-4,5.9l-1.7-5.7c-0.1-0.4-0.4-0.6-0.8-0.6h-2.9c-0.3,0-0.6,0.3-0.5,0.7
			l3.2,9.5l-3,4.3c-0.2,0.3,0,0.8,0.4,0.8H65c0.3,0,0.5-0.1,0.7-0.4L75.4,67C75.6,66.7,75.4,66.2,75,66.2z"/>
		<path class="st2" d="M106.3,61l-2.5,15.9c0,0.3,0.2,0.6,0.5,0.6h2.5c0.4,0,0.8-0.3,0.8-0.7l2.5-15.6c0-0.3-0.2-0.6-0.5-0.6h-2.8
			C106.5,60.6,106.3,60.8,106.3,61z"/>
	</g>
</g>
</svg>
