<?xml version="1.0" encoding="UTF-8"?>
<svg width="3214px" height="3214px" viewBox="0 0 3214 3214" version="1.1" xmlns="http://www.w3.org/2000/svg" xmlns:xlink="http://www.w3.org/1999/xlink">
    <title>Uplift_Mobile</title>
    <g id="Uplift_Mobile" stroke="none" stroke-width="1" fill="none" fill-rule="evenodd">
        <g id="payment_base">
            <circle id="Oval" fill="#111B40" fill-rule="nonzero" cx="1607" cy="1607" r="1607"></circle>
            <path d="M609.929545,932.06 L2604.07045,932.06 C2675.655,932.06 2731.9,986.0552 2731.9,1054.77636 L2731.9,2159.22364 C2731.9,2227.9448 2675.655,2281.94 2604.07045,2281.94 L609.929545,2281.94 C538.345,2281.94 482.1,2227.9448 482.1,2159.22364 L482.1,1054.77636 C482.1,986.0552 538.345,932.06 609.929545,932.06 Z" id="path-1" fill="#FFFFFF"></path>
        </g>
        <g id="Uplift-logos_Main-logo" transform="translate(751.000000, 1194.000000)" fill-rule="nonzero">
            <path d="M246.81,551.49 C245.579755,545.782808 244.830461,539.982469 244.57,534.15 C244.063333,526.61 243.813333,519.07 243.82,511.53 C233.753333,529.13 219.046667,541.823333 199.7,549.61 C181.159227,557.236355 161.317791,561.202605 141.27,561.29 C118.65,561.29 98.67,557.396667 81.33,549.61 C47.5641268,535.017152 21.5444247,506.825206 9.7,472 C3.33391162,453.675846 0.148002027,434.398049 0.28,415 L0.28,180.55 L100.56,180.55 L100.56,394.67 C100.56,415.783333 105.96,433.5 116.76,447.82 C127.56,462.14 144.776667,469.303333 168.41,469.31 C191.036667,469.31 208.37,462.526667 220.41,448.96 C232.45,435.393333 238.48,417.8 238.5,396.18 L238.5,180.55 L338.79,180.55 L338.79,484.39 C338.79,498.983333 339.17,512.176667 339.93,523.97 C340.69,535.763333 341.573333,544.936667 342.58,551.49 L246.81,551.49 Z" id="Path" fill="#000000"></path>
            <path d="M424,694.74 L424,180.55 L521.25,180.55 L521.25,225.79 C529.79,211.223333 543.863333,198.656667 563.47,188.09 C583.076667,177.523333 606.95,172.246667 635.09,172.259975 C662.25,172.259975 686.383333,177.16 707.49,186.96 C728.197537,196.463407 746.592108,210.35402 761.4,227.67 C776.2,245.003333 787.38,265.36 794.94,288.74 C802.5,312.12 806.27,337.63 806.250079,365.27 C806.250079,393.416667 802.103333,419.416667 793.81,443.27 C785.516667,467.123333 773.703333,487.73 758.37,505.09 C743.021593,522.456739 724.144812,536.349259 703,545.84 C681.38,555.64 657.506667,560.54 631.38,560.54 C605.726667,560.54 583.726667,556.14 565.38,547.34 C547.033333,538.54 533.343333,527.873333 524.31,515.34 L524.31,694.74 L424,694.74 Z M707.48,366 C707.48,332.833333 698.55,307.2 680.69,289.1 C662.83,271 641.1,261.966667 615.5,262 C590.757228,261.678899 566.991907,271.645702 549.88,289.52 C541.01727,298.807397 534.20358,309.852387 529.88,321.94 C525.093333,334.746667 522.706667,349.446667 522.719944,366.04 C522.733333,382.633333 525.12,397.336667 529.88,410.15 C534.268612,422.319195 541.071468,433.475879 549.88,442.95 C558.163859,451.801477 568.177408,458.857251 579.3,463.68 C590.744146,468.536361 603.068799,470.974054 615.5,470.84 C641.12,470.84 662.85,461.666667 680.69,443.32 C698.53,424.973333 707.46,399.2 707.48,366 Z" id="Shape" fill="#000000"></path>
            <polygon id="Path" fill="#000000" points="869.58 551.49 869.58 11.75 969.86 11.75 969.86 551.49"></polygon>
            <rect id="Rectangle" fill="#000000" x="1055.04" y="180.55" width="100.28" height="370.94"></rect>
            <path d="M1426.74,88.57 C1420.76091,88.6211732 1414.80912,89.3831902 1409.01,90.84 C1402.85727,92.2672997 1397.06825,94.9574945 1392.01,98.74 C1386.71574,102.851452 1382.4586,108.146331 1379.58,114.2 C1376.31333,120.74 1374.67667,129.286667 1374.67,139.84 L1374.67,180.55 L1458.36,180.55 L1458.36,266.5 L1374.7,266.5 L1374.7,551.5 L1273.7,551.5 L1273.7,266.5 L1211.87,266.5 L1211.87,180.55 L1273.7,180.55 L1273.7,138.33 C1273.7,117.223333 1276.83667,98.2466667 1283.11,81.4 C1289.00144,65.1992607 1298.25019,50.4264909 1310.25,38.05 C1322.30366,25.8279552 1336.8272,16.3194643 1352.85,10.16 C1369.43,3.62666667 1388.02667,0.357922139 1408.64,0.357922139 C1418.61123,0.312837239 1428.57008,1.06861256 1438.42,2.62 C1447.70667,4.12666667 1454.37333,5.88666667 1458.42,7.9 L1458.42,92.34 C1454.75605,91.0553652 1450.96405,90.170232 1447.11,89.7 C1440.35513,88.8435808 1433.54815,88.465972 1426.74,88.57 Z" id="Path" fill="#000000"></path>
            <path d="M1637.07,180.55 L1711.72,180.55 L1711.72,269.55 L1637.07,269.55 L1637.07,424.83 C1637.07,440.916667 1640.73667,452.1 1648.07,458.38 C1655.40333,464.66 1666.33,467.803333 1680.85,467.81 C1686.90333,467.81 1692.93333,467.556667 1698.94,467.05 C1704.94,466.56 1709.24,465.8 1711.77,464.79 L1711.77,547.72 C1707.24333,549.72 1700.33,551.72 1691.03,553.72 C1681.73,555.72 1669.79667,556.72 1655.23,556.72 C1619.05,556.72 1590.38333,546.666667 1569.23,526.56 C1548.07667,506.453333 1537.52,478.306667 1537.56,442.12 L1537.56,269.51 L1470.47,269.51 L1470.47,180.51 L1489.31,180.51 C1508.92333,180.51 1523.37667,174.843333 1532.67,163.51 C1541.96333,152.176667 1546.61,138.226667 1546.61,121.66 L1546.61,69.66 L1637.08,69.66 L1637.07,180.55 Z" id="Path" fill="#000000"></path>
            <path d="M1167,61.43 C1167,44.8433333 1160.96333,30.51 1148.89,18.43 C1137.4411,6.61977287 1121.61649,0.0720304867 1105.17,0.34 C1087.57667,0.34 1072.87667,6.37 1061.07,18.43 C1049.26333,30.49 1043.35333,44.8233333 1043.34,61.43 C1043.34,78.01 1049.37667,92.3433333 1061.45,104.43 C1072.90164,116.236188 1088.72443,122.783173 1105.17,122.52 C1122.75667,122.52 1137.45667,116.49 1149.27,104.43 C1161.08333,92.37 1166.99333,78.0366667 1167,61.43 Z" id="Path" fill="#1FAA9F"></path>
            <path d="M1560.34,642.86 L1560.34,642.86 C1547.28505,629.894039 1526.4279,629.226016 1512.57,641.33 C1431.43,713 1329.08,755.05 1220.91,755.05 C1112.74,755.05 1010.39,713.05 929.26,641.33 C915.402098,629.226016 894.54495,629.894039 881.49,642.86 L881.49,642.86 C874.506753,649.782658 870.718498,659.298615 871.033389,669.126625 C871.34828,678.954634 875.737925,688.208571 883.15,694.67 C977.04,777.39 1095.7,825.57 1220.94,825.57 C1346.18,825.57 1464.79,777.39 1558.68,694.67 C1566.09208,688.208571 1570.48172,678.954634 1570.79661,669.126625 C1571.1115,659.298615 1567.32325,649.782658 1560.34,642.86 Z" id="Path" fill="#1FAA9F"></path>
        </g>
    </g>
</svg>
