<?xml version="1.0" encoding="utf-8"?>
<!-- Generator: Adobe Illustrator 18.1.1, SVG Export Plug-In . SVG Version: 6.00 Build 0)  -->
<svg version="1.1" id="Layer_1" xmlns="http://www.w3.org/2000/svg" xmlns:xlink="http://www.w3.org/1999/xlink" x="0px" y="0px"
	 viewBox="33 -33 142 142" enable-background="new 33 -33 142 142" xml:space="preserve">
<g id="discoversvg">
	<circle id="circle-1" fill="#1F2444" cx="104" cy="38" r="71"/>
	<path id="path-1" fill="#FFFFFF" d="M65,10h78c2.8,0,5,2.2,5,5v45c0,2.8-2.2,5-5,5H65c-2.8,0-5-2.2-5-5V15C60,12.2,62.2,10,65,10z"
		/>
	<path fill="none" enable-background="new    " d="z"/>
	<path fill="none" enable-background="new    " d="z"/>
	<g>
		<polygon fill="#00589F" points="92.2,50.9 96.2,27.1 102.7,27.1 98.7,50.9 		"/>
		<path fill="#00589F" d="M122.2,27.7c-1.3-0.5-3.3-1-5.8-1c-6.4,0-10.9,3.2-11,7.8c0,3.4,3.2,5.3,5.7,6.5c2.5,1.2,3.4,1.9,3.4,2.9
			c0,1.6-2,2.3-3.9,2.3c-2.6,0-4-0.4-6.1-1.2l-0.8-0.4l-0.9,5.3c1.5,0.7,4.3,1.2,7.2,1.3c6.8,0,11.2-3.2,11.3-8.1
			c0-2.7-1.7-4.8-5.4-6.5c-2.3-1.1-3.7-1.8-3.6-2.9c0-1,1.2-2,3.7-2c2.1,0,3.7,0.4,4.9,0.9l0.6,0.3L122.2,27.7"/>
		<path fill="#00589F" d="M138.8,27.2h-5c-1.6,0-2.7,0.4-3.4,2l-9.6,21.8h6.8c0,0,1.1-2.9,1.4-3.6c0.7,0,7.4,0,8.3,0
			c0.2,0.8,0.8,3.6,0.8,3.6h6L138.8,27.2 M130.8,42.5c0.5-1.4,2.6-6.6,2.6-6.6c0,0.1,0.5-1.4,0.9-2.3l0.4,2.1c0,0,1.2,5.7,1.5,6.9
			H130.8z"/>
		<path fill="#00589F" d="M86.7,27.2l-6.3,16.2l-0.7-3.3c-1.2-3.8-4.9-7.9-9-10l5.8,20.8l6.9,0l10.2-23.7H86.7"/>
		<path fill="#F9A51A" d="M74.5,27.1H64.1L64,27.6c8.1,2,13.5,6.7,15.7,12.4l-2.3-10.9C77.1,27.6,75.9,27.2,74.5,27.1"/>
	</g>
</g>
</svg>
