<?xml version="1.0" encoding="utf-8"?>
<!-- Generator: Adobe Illustrator 18.1.1, SVG Export Plug-In . SVG Version: 6.00 Build 0)  -->
<svg version="1.1" id="Layer_1" xmlns="http://www.w3.org/2000/svg" xmlns:xlink="http://www.w3.org/1999/xlink" x="0px" y="0px"
	 viewBox="33 -33 142 142" enable-background="new 33 -33 142 142" xml:space="preserve">
<circle id="circle-1" fill="#1F2444" cx="104" cy="38" r="71"/>
<path id="path-1" fill="#D9D9D9" d="M66,9h77c2.8,0,5,2.2,5,5v48c0,2.8-2.2,5-5,5H66c-2.8,0-5-2.2-5-5V14C61,11.2,63.2,9,66,9z"/>
<rect id="rect-1" x="81" y="27" fill="#FFFFFF" width="48" height="25"/>
<path fill="none" enable-background="new    " d="z"/>
<radialGradient id="SVGID_1_" cx="-104.9166" cy="-261.1267" r="57.8669" gradientTransform="matrix(1 0 0 1 192.4434 282.4648)" gradientUnits="userSpaceOnUse">
	<stop  offset="0" style="stop-color:#00B7E8"/>
	<stop  offset="0.427" style="stop-color:#009ACA"/>
	<stop  offset="0.5191" style="stop-color:#008FBC"/>
	<stop  offset="0.8385" style="stop-color:#006D8F"/>
	<stop  offset="1" style="stop-color:#00607E"/>
</radialGradient>
<path fill="url(#SVGID_1_)" d="M127.2,49.5c0,0-0.1,0-0.2,0l-3.8,0v-0.3c-0.4,0.2-0.9,0.3-1.3,0.3c0,0-0.1,0-0.2,0l-2.2,0v0h-5.4v0
	h-3.7v-1.1c0,0,0-0.8,0-0.9c0,0-0.2,0-0.2,0c0,0.5,0,2,0,2h-3.7v-2.2c-0.6,0.2-1.3,0.3-2,0.3c0,0-0.2,0-0.4,0c0,0.4,0,1.9,0,1.9
	h-4.4c0,0-0.7-0.8-1.1-1.2c-0.4,0.4-1.1,1.2-1.1,1.2h-7.1v-8.1h7c0,0,0.8,0.9,1.2,1.3c0.5-0.5,1.2-1.3,1.2-1.3h0.5l1.1,0h3.6
	c0.2,0,0.8,0,1.3,0.2v-0.2h4.7c0.2,0,0.8,0,1.4,0.2v-0.2h5.8h1.1v0.2c0.6-0.3,1.2-0.2,1.3-0.2l3.9,0v0.2c0.7-0.3,1.3-0.3,1.4-0.2
	l2.8,0V14.7h-48v20.6l1.6-3.9h3.6c0,0,0.4,1,0.4,1c0-0.1,0-1,0-1h4.2c0,0,0.6,1.4,0.9,2.1c0.3-0.7,0.9-2.1,0.9-2.1h2.8h0.3h1.1h4
	h0.3h1.1h3.2c0.2,0,0.8,0,1.4,0.2v-0.2h2.6h1.1v0.5c0.5-0.3,1.2-0.5,1.8-0.5c0,0,2,0.1,2.1,0.1l0,0h3.6c0,0,0.4,0.9,0.4,0.9
	c0-0.2,0-0.9,0-0.9h3.8c0,0,0.5,0.9,0.6,1c0-0.2,0-1,0-1h3.7v8.1h-3.8c0,0-0.6-0.9-0.6-1.1c0,0.1,0,1.1,0,1.1h-4.8
	c0,0-0.4-1-0.5-1.2c-0.5,0-0.8,0-1.3,0c-0.1,0.3-0.5,1.2-0.5,1.2H112l-0.1,0c-0.3-0.1-0.8-0.2-1.3-0.5v0.5h-2.6c0,0,0,0,0,0h-3.3
	v-1.1c0,0,0-0.8,0-0.9c0,0-0.2,0-0.2,0c0,0.5,0,2,0,2h-2.3h-1.4h-4h-0.3h-3.4c0,0,0-0.1,0-0.1c0,0-0.1,0.1-0.1,0.1h-2.6
	c0,0,0-0.1-0.1-0.2c0,0,0,0.2,0,0.2h-4.8c0,0-0.4-1-0.5-1.2c-0.5,0-0.8,0-1.3,0c-0.1,0.3-0.5,1.2-0.5,1.2h-2.3v22.2h48V49
	C128.4,49.3,127.8,49.5,127.2,49.5z"/>
<g>
	<g>
		<defs>
			<path id="SVGID_33_" d="M105.9,38.4v-1.1c0,0-0.1-0.9-1-0.9h-1.5v2h-1.5v-5.9h3.6c0,0,1.9-0.2,1.9,1.7c0,1-0.8,1.4-0.8,1.4
				s0.7,0.3,0.7,1.3v1.5H105.9 M103.4,35h1.5c0.4,0,0.8-0.2,0.8-0.6c0-0.3-0.4-0.6-0.8-0.6h-1.5V35L103.4,35"/>
		</defs>
		<radialGradient id="SVGID_2_" cx="87.5456" cy="21.3403" r="57.867" gradientUnits="userSpaceOnUse">
			<stop  offset="0" style="stop-color:#00B7E8"/>
			<stop  offset="0.427" style="stop-color:#009ACA"/>
			<stop  offset="0.5191" style="stop-color:#008FBC"/>
			<stop  offset="0.8385" style="stop-color:#006D8F"/>
			<stop  offset="1" style="stop-color:#00607E"/>
		</radialGradient>
		<use xlink:href="#SVGID_33_"  overflow="visible" fill="url(#SVGID_2_)"/>
		<clipPath id="SVGID_3_">
			<use xlink:href="#SVGID_33_"  overflow="visible"/>
		</clipPath>
	</g>
	<g>
		<defs>
			<path id="SVGID_36_" d="M123.5,38.4l-2.4-3.9v3.9h-1.3h-0.2h-1.4l-0.5-1.2h-2.7l-0.5,1.2h-1.4h-0.2h-0.7c0,0-2-0.3-2-2.8
				c0-3.3,2.3-3.1,2.4-3.2l1.8,0.1v1.3l-1.5,0c0,0-1,0-1.1,1.3c0,0.1,0,0.3,0,0.4c0,2,1.7,1.4,1.8,1.4l1.8-4.4h2.1l2.2,5.3v-5.3h2.1
				l2.3,3.9v-3.9h1.5v5.9H123.5 M115.6,35.7h1.5l-0.7-1.7L115.6,35.7L115.6,35.7"/>
		</defs>
		<radialGradient id="SVGID_4_" cx="87.5461" cy="21.3392" r="57.8668" gradientUnits="userSpaceOnUse">
			<stop  offset="0" style="stop-color:#00B7E8"/>
			<stop  offset="0.427" style="stop-color:#009ACA"/>
			<stop  offset="0.5191" style="stop-color:#008FBC"/>
			<stop  offset="0.8385" style="stop-color:#006D8F"/>
			<stop  offset="1" style="stop-color:#00607E"/>
		</radialGradient>
		<use xlink:href="#SVGID_36_"  overflow="visible" fill="url(#SVGID_4_)"/>
		<clipPath id="SVGID_5_">
			<use xlink:href="#SVGID_36_"  overflow="visible"/>
		</clipPath>
	</g>
	<g>
		<defs>
			<path id="SVGID_39_" d="M94.2,38.4v-4.1l-1.9,4.1h-1.2l-1.9-4v4h-1.3h-0.2h-1.4l-0.5-1.2H83l-0.5,1.2h-1.6l2.5-5.9h2.1l2.3,5.4
				v-5.4h2.4l1.6,3.6l1.6-3.6h2.4v5.9H94.2 M83.7,35.7h1.5l-0.7-1.7L83.7,35.7L83.7,35.7"/>
		</defs>
		<radialGradient id="SVGID_6_" cx="87.5461" cy="21.3403" r="57.8668" gradientUnits="userSpaceOnUse">
			<stop  offset="0" style="stop-color:#00B7E8"/>
			<stop  offset="0.427" style="stop-color:#009ACA"/>
			<stop  offset="0.5191" style="stop-color:#008FBC"/>
			<stop  offset="0.8385" style="stop-color:#006D8F"/>
			<stop  offset="1" style="stop-color:#00607E"/>
		</radialGradient>
		<use xlink:href="#SVGID_39_"  overflow="visible" fill="url(#SVGID_6_)"/>
		<clipPath id="SVGID_7_">
			<use xlink:href="#SVGID_39_"  overflow="visible"/>
		</clipPath>
	</g>
	<g>
		<defs>
			<polyline id="SVGID_42_" points="96.5,38.4 96.5,32.6 101.2,32.6 101.2,33.9 98,33.9 98,34.8 101.1,34.8 101.1,36.2 98,36.2 
				98,37.2 101.2,37.2 101.2,38.4 96.5,38.4 			"/>
		</defs>
		<radialGradient id="SVGID_8_" cx="87.5456" cy="21.3403" r="57.8666" gradientUnits="userSpaceOnUse">
			<stop  offset="0" style="stop-color:#00B7E8"/>
			<stop  offset="0.427" style="stop-color:#009ACA"/>
			<stop  offset="0.5191" style="stop-color:#008FBC"/>
			<stop  offset="0.8385" style="stop-color:#006D8F"/>
			<stop  offset="1" style="stop-color:#00607E"/>
		</radialGradient>
		<use xlink:href="#SVGID_42_"  overflow="visible" fill="url(#SVGID_8_)"/>
		<clipPath id="SVGID_9_">
			<use xlink:href="#SVGID_42_"  overflow="visible"/>
		</clipPath>
	</g>
	<g>
		<defs>
			<polyline id="SVGID_45_" points="108.1,38.5 108.1,32.6 109.6,32.6 109.6,38.5 108.1,38.5 			"/>
		</defs>
		<radialGradient id="SVGID_10_" cx="87.5456" cy="21.3409" r="57.8675" gradientUnits="userSpaceOnUse">
			<stop  offset="0" style="stop-color:#00B7E8"/>
			<stop  offset="0.427" style="stop-color:#009ACA"/>
			<stop  offset="0.5191" style="stop-color:#008FBC"/>
			<stop  offset="0.8385" style="stop-color:#006D8F"/>
			<stop  offset="1" style="stop-color:#00607E"/>
		</radialGradient>
		<use xlink:href="#SVGID_45_"  overflow="visible" fill="url(#SVGID_10_)"/>
		<clipPath id="SVGID_11_">
			<use xlink:href="#SVGID_45_"  overflow="visible"/>
		</clipPath>
	</g>
</g>
<g>
	<g>
		<defs>
			<path id="SVGID_48_" d="M111.6,48.4v-1.1c0,0-0.1-0.9-1-0.9h-1.5v2h-1.5v-5.9h3.6c0,0,1.9-0.2,1.9,1.7c0,1-0.8,1.4-0.8,1.4
				s0.7,0.3,0.7,1.3v1.5H111.6 M109.2,45h1.5c0.4,0,0.8-0.2,0.8-0.6s-0.4-0.6-0.8-0.6h-1.5V45L109.2,45"/>
		</defs>
		<radialGradient id="SVGID_12_" cx="87.5456" cy="21.3409" r="57.8658" gradientUnits="userSpaceOnUse">
			<stop  offset="0" style="stop-color:#00B7E8"/>
			<stop  offset="0.427" style="stop-color:#009ACA"/>
			<stop  offset="0.5191" style="stop-color:#008FBC"/>
			<stop  offset="0.8385" style="stop-color:#006D8F"/>
			<stop  offset="1" style="stop-color:#00607E"/>
		</radialGradient>
		<use xlink:href="#SVGID_48_"  overflow="visible" fill="url(#SVGID_12_)"/>
		<clipPath id="SVGID_13_">
			<use xlink:href="#SVGID_48_"  overflow="visible"/>
		</clipPath>
	</g>
	<g>
		<defs>
			<path id="SVGID_51_" d="M101.7,48.4h-1.3l-1.6-1.7l-1.6,1.7h-0.9h-4.6v-5.9h4.6h0.8l1.7,1.9l1.7-1.9h1.1v0h3.6
				c0,0,1.9-0.2,1.9,1.7c0,1.7-0.6,2.3-2.6,2.3h-1.5v1.9H101.7 M99.8,45.5l1.8,2v-4.1L99.8,45.5L99.8,45.5 M93.2,47.1h3.1l1.5-1.6
				l-1.5-1.6h-3.1v0.9h3.1v1.3h-3.1V47.1L93.2,47.1 M103.2,45h1.5c0.4,0,0.8-0.2,0.8-0.6c0-0.3-0.4-0.6-0.8-0.6h-1.5V45L103.2,45"/>
		</defs>
		<radialGradient id="SVGID_14_" cx="87.5461" cy="21.3398" r="57.8681" gradientUnits="userSpaceOnUse">
			<stop  offset="0" style="stop-color:#00B7E8"/>
			<stop  offset="0.427" style="stop-color:#009ACA"/>
			<stop  offset="0.5191" style="stop-color:#008FBC"/>
			<stop  offset="0.8385" style="stop-color:#006D8F"/>
			<stop  offset="1" style="stop-color:#00607E"/>
		</radialGradient>
		<use xlink:href="#SVGID_51_"  overflow="visible" fill="url(#SVGID_14_)"/>
		<clipPath id="SVGID_15_">
			<use xlink:href="#SVGID_51_"  overflow="visible"/>
		</clipPath>
	</g>
	<g>
		<defs>
			<path id="SVGID_54_" d="M121.8,48.4h-2.7V47h2.3c0,0,0.8,0.1,0.8-0.5c0-0.5-1.3-0.5-1.3-0.5s-2.1,0.2-2.1-1.8
				c0-1.9,1.9-1.8,1.9-1.8h2.9v1.4h-2.3c0,0-0.8-0.2-0.8,0.4c0,0.5,1.1,0.4,1.1,0.4s2.3-0.2,2.3,1.6c0,1.9-1.5,2.1-2,2.1
				C121.9,48.4,121.8,48.4,121.8,48.4"/>
		</defs>
		<radialGradient id="SVGID_16_" cx="87.5456" cy="21.3409" r="57.8672" gradientUnits="userSpaceOnUse">
			<stop  offset="0" style="stop-color:#00B7E8"/>
			<stop  offset="0.427" style="stop-color:#009ACA"/>
			<stop  offset="0.5191" style="stop-color:#008FBC"/>
			<stop  offset="0.8385" style="stop-color:#006D8F"/>
			<stop  offset="1" style="stop-color:#00607E"/>
		</radialGradient>
		<use xlink:href="#SVGID_54_"  overflow="visible" fill="url(#SVGID_16_)"/>
		<clipPath id="SVGID_17_">
			<use xlink:href="#SVGID_54_"  overflow="visible"/>
		</clipPath>
	</g>
	<g>
		<defs>
			<polyline id="SVGID_57_" points="113.8,48.4 113.8,42.5 118.5,42.5 118.5,43.9 115.3,43.9 115.3,44.8 118.4,44.8 118.4,46.1 
				115.3,46.1 115.3,47.1 118.5,47.1 118.5,48.4 113.8,48.4 			"/>
		</defs>
		<radialGradient id="SVGID_18_" cx="87.5456" cy="21.3398" r="57.8687" gradientUnits="userSpaceOnUse">
			<stop  offset="0" style="stop-color:#00B7E8"/>
			<stop  offset="0.427" style="stop-color:#009ACA"/>
			<stop  offset="0.5191" style="stop-color:#008FBC"/>
			<stop  offset="0.8385" style="stop-color:#006D8F"/>
			<stop  offset="1" style="stop-color:#00607E"/>
		</radialGradient>
		<use xlink:href="#SVGID_57_"  overflow="visible" fill="url(#SVGID_18_)"/>
		<clipPath id="SVGID_19_">
			<use xlink:href="#SVGID_57_"  overflow="visible"/>
		</clipPath>
	</g>
	<g>
		<defs>
			<path id="SVGID_60_" d="M127.1,48.4h-2.7V47h2.3c0,0,0.8,0.1,0.8-0.5c0-0.5-1.3-0.5-1.3-0.5s-2.1,0.2-2.1-1.8
				c0-1.9,1.9-1.8,1.9-1.8h2.9v1.4h-2.3c0,0-0.8-0.2-0.8,0.4c0,0.5,1.1,0.4,1.1,0.4s2.3-0.2,2.3,1.6c0,1.9-1.5,2.1-2,2.1
				C127.1,48.4,127.1,48.4,127.1,48.4"/>
		</defs>
		<radialGradient id="SVGID_20_" cx="87.5456" cy="21.3409" r="57.8658" gradientUnits="userSpaceOnUse">
			<stop  offset="0" style="stop-color:#00B7E8"/>
			<stop  offset="0.427" style="stop-color:#009ACA"/>
			<stop  offset="0.5191" style="stop-color:#008FBC"/>
			<stop  offset="0.8385" style="stop-color:#006D8F"/>
			<stop  offset="1" style="stop-color:#00607E"/>
		</radialGradient>
		<use xlink:href="#SVGID_60_"  overflow="visible" fill="url(#SVGID_20_)"/>
		<clipPath id="SVGID_21_">
			<use xlink:href="#SVGID_60_"  overflow="visible"/>
		</clipPath>
	</g>
</g>
</svg>
