<?xml version="1.0" encoding="utf-8"?>
<!-- Generator: Adobe Illustrator 18.1.1, SVG Export Plug-In . SVG Version: 6.00 Build 0)  -->
<svg version="1.1" id="Layer_1" xmlns="http://www.w3.org/2000/svg" xmlns:xlink="http://www.w3.org/1999/xlink" x="0px" y="0px"
	 viewBox="33 -33 142 142" enable-background="new 33 -33 142 142" xml:space="preserve">
<circle id="circle-1" fill="#1F2444" cx="104" cy="38" r="71"/>
<path id="path-1" fill="#FFFFFF" d="M65,10h78c2.8,0,5,2.2,5,5v45c0,2.8-2.2,5-5,5H65c-2.8,0-5-2.2-5-5V15C60,12.2,62.2,10,65,10z"
	/>
<path fill="none" enable-background="new    " d="z"/>
<path fill="none" enable-background="new    " d="z"/>
<radialGradient id="SVGID_1_" cx="100.3101" cy="-454.2878" r="6.9028" gradientTransform="matrix(1 0 0 1 6.416 486.083)" gradientUnits="userSpaceOnUse">
	<stop  offset="5.618000e-03" style="stop-color:#FFEEE0"/>
	<stop  offset="0.1096" style="stop-color:#FEE9D7"/>
	<stop  offset="0.2793" style="stop-color:#FDDBBF"/>
	<stop  offset="0.4935" style="stop-color:#FBC597"/>
	<stop  offset="0.744" style="stop-color:#F8A560"/>
	<stop  offset="1" style="stop-color:#F48120"/>
</radialGradient>
<path fill="url(#SVGID_1_)" d="M106.7,25c-3.9,0-7,3-7,6.7c0,4,3,6.9,7,6.9c3.9,0,7-3,7-6.8C113.7,28,110.7,25,106.7,25z"/>
<path fill="#001722" d="M67.1,25.2h-3.8v13.1H67c2,0,3.4-0.5,4.7-1.5c1.5-1.2,2.4-3.1,2.4-5C74.1,27.9,71.2,25.2,67.1,25.2z
	 M70,35.1c-0.8,0.7-1.8,1-3.5,1h-0.7v-8.7h0.7c1.7,0,2.7,0.3,3.5,1.1c0.9,0.8,1.4,2,1.4,3.3C71.5,33,70.9,34.3,70,35.1z"/>
<rect x="75.3" y="25.2" fill="#001722" width="2.6" height="13.1"/>
<path fill="#001722" d="M84.1,30.2c-1.5-0.6-2-0.9-2-1.6c0-0.8,0.8-1.5,1.9-1.5c0.8,0,1.4,0.3,2.1,1.1l1.3-1.7
	c-1.1-1-2.4-1.5-3.9-1.5c-2.3,0-4.1,1.6-4.1,3.8c0,1.8,0.8,2.7,3.2,3.6c1,0.4,1.5,0.6,1.8,0.7c0.5,0.3,0.8,0.8,0.8,1.4
	c0,1.1-0.8,1.8-2,1.8c-1.2,0-2.2-0.6-2.8-1.7l-1.6,1.6c1.2,1.7,2.6,2.5,4.5,2.5c2.7,0,4.5-1.8,4.5-4.3C87.8,32.3,87,31.3,84.1,30.2z
	"/>
<path fill="#001722" d="M88.7,31.8c0,3.9,3,6.8,6.9,6.8c1.1,0,2-0.2,3.2-0.8v-3c-1,1-1.9,1.4-3.1,1.4c-2.6,0-4.4-1.9-4.4-4.5
	c0-2.5,1.9-4.5,4.3-4.5c1.2,0,2.1,0.4,3.2,1.5v-3c-1.1-0.6-2-0.8-3.1-0.8C91.8,24.9,88.7,28,88.7,31.8z"/>
<polygon fill="#001722" points="119.5,34 116,25.2 113.2,25.2 118.8,38.7 120.1,38.7 125.8,25.2 123,25.2 "/>
<polygon fill="#001722" points="127,38.3 134.2,38.3 134.2,36.1 129.5,36.1 129.5,32.6 134,32.6 134,30.3 129.5,30.3 129.5,27.4 
	134.2,27.4 134.2,25.2 127,25.2 "/>
<path fill="#001722" d="M144.3,29.1c0-2.5-1.7-3.9-4.6-3.9h-3.8v13.1h2.6v-5.3h0.3l3.5,5.3h3.1l-4.1-5.5
	C143.3,32.4,144.3,31.1,144.3,29.1z M139.2,31.2h-0.7v-4h0.8c1.6,0,2.5,0.7,2.5,1.9C141.7,30.5,140.8,31.2,139.2,31.2z"/>
<path fill="#231F20" d="M146.1,26.2c0-0.2-0.2-0.4-0.4-0.4h-0.4V27h0.3v-0.4l0.3,0.4h0.3l-0.4-0.5C146,26.5,146.1,26.4,146.1,26.2z
	 M145.7,26.3L145.7,26.3l-0.1-0.3h0.1c0.1,0,0.2,0,0.2,0.1C145.9,26.3,145.8,26.3,145.7,26.3z"/>
<path fill="#231F20" d="M145.8,25.4c-0.6,0-1,0.4-1,1c0,0.6,0.5,1,1,1c0.5,0,1-0.5,1-1C146.8,25.9,146.3,25.4,145.8,25.4z
	 M145.8,27.2c-0.4,0-0.8-0.4-0.8-0.8c0-0.5,0.4-0.8,0.8-0.8c0.4,0,0.8,0.4,0.8,0.8C146.6,26.9,146.2,27.2,145.8,27.2z"/>
<path fill="#F5821F" d="M143,65c2.8,0,5-2.2,5-5V41.8c0,0-22.4,15.8-63.5,23.2H143z"/>
</svg>
