<svg xmlns:xlink="http://www.w3.org/1999/xlink" data-name="Layer 1" xmlns="http://www.w3.org/2000/svg" width="142"
     height="142" viewBox="0 0 142 142">
  <defs>
    <linearGradient id="x" x1="90.99" y1="67.14" x2="93.42" y2="67.14" gradientTransform="matrix(1 0 0 -1 -10 131)"
                    gradientUnits="userSpaceOnUse">
      <stop offset="0" stop-color="#858a95"/>
      <stop offset="1" stop-color="#29373e"/>
    </linearGradient>
    <linearGradient id="y" x1="91.01" y1="66.97" x2="92.33" y2="67.53" gradientTransform="matrix(1 0 0 -1 -10 131)"
                    gradientUnits="userSpaceOnUse">
      <stop offset="0" stop-color="#fff" stop-opacity="0"/>
      <stop offset=".33" stop-color="#fff" stop-opacity="0"/>
      <stop offset=".68" stop-color="#d0d0d0" stop-opacity=".33"/>
      <stop offset="1" stop-color="#a8a8a8" stop-opacity=".61"/>
    </linearGradient>
    <linearGradient id="z" x1="90.77" y1="70.76" x2="92.14" y2="64.41" gradientTransform="matrix(1 0 0 -1 -10 131)"
                    gradientUnits="userSpaceOnUse">
      <stop offset="0" stop-color="#fff"/>
      <stop offset="1" stop-color="#dfdee0"/>
    </linearGradient>
    <linearGradient id="A" x1="91.37" y1="67.36" x2="92.35" y2="67.53" gradientTransform="matrix(1 0 0 -1 -10 131)"
                    gradientUnits="userSpaceOnUse">
      <stop offset="0" stop-color="#fff" stop-opacity="0"/>
      <stop offset="1" stop-color="#fff" stop-opacity=".9"/>
    </linearGradient>
    <linearGradient id="B" x1="92.07" y1="68.23" x2="92.4" y2="68.31" gradientTransform="matrix(1 0 0 -1 -10 131)"
                    gradientUnits="userSpaceOnUse">
      <stop offset=".3" stop-color="#fff" stop-opacity="0"/>
      <stop offset=".31" stop-color="#fff" stop-opacity=".07"/>
      <stop offset=".32" stop-color="#fff" stop-opacity=".29"/>
      <stop offset=".34" stop-color="#fff" stop-opacity=".47"/>
      <stop offset=".35" stop-color="#fff" stop-opacity=".63"/>
      <stop offset=".37" stop-color="#fff" stop-opacity=".75"/>
      <stop offset=".38" stop-color="#fff" stop-opacity=".83"/>
      <stop offset=".4" stop-color="#fff" stop-opacity=".88"/>
      <stop offset=".41" stop-color="#fff" stop-opacity=".9"/>
      <stop offset=".42" stop-color="#fff" stop-opacity=".84"/>
      <stop offset=".45" stop-color="#fff" stop-opacity=".69"/>
      <stop offset=".49" stop-color="#fff" stop-opacity=".44"/>
      <stop offset=".54" stop-color="#fff" stop-opacity=".1"/>
      <stop offset=".55" stop-color="#fff" stop-opacity="0"/>
    </linearGradient>
    <linearGradient id="C" x1="92.72" y1="65.22" x2="93.48" y2="65.39" gradientTransform="matrix(1 0 0 -1 -10 131)"
                    gradientUnits="userSpaceOnUse">
      <stop offset=".06" stop-color="#fff" stop-opacity="0"/>
      <stop offset=".41" stop-color="#fff" stop-opacity=".9"/>
      <stop offset=".63" stop-color="#fff" stop-opacity=".27"/>
    </linearGradient>
    <linearGradient id="a" x1="111.08" y1="63.26" x2="111.06" y2="62.33" gradientTransform="matrix(1 0 0 -1 -10 131)"
                    gradientUnits="userSpaceOnUse">
      <stop offset="0" stop-color="#495e6a"/>
      <stop offset=".07" stop-color="#87a3ad"/>
      <stop offset=".13" stop-color="#8fa6af"/>
      <stop offset=".22" stop-color="#a0acb5"/>
      <stop offset=".22" stop-color="#96a5af"/>
      <stop offset=".24" stop-color="#7b949f"/>
      <stop offset=".25" stop-color="#4f7885"/>
      <stop offset=".26" stop-color="#346675"/>
      <stop offset=".31" stop-color="#628794"/>
      <stop offset=".32" stop-color="#6a8b97"/>
      <stop offset=".33" stop-color="#80959f"/>
      <stop offset=".35" stop-color="#9ea3ab"/>
      <stop offset=".43" stop-color="#fff"/>
      <stop offset=".48" stop-color="#fcfcfc"/>
      <stop offset=".51" stop-color="#f2f3f4"/>
      <stop offset=".54" stop-color="#e2e4e6"/>
      <stop offset=".57" stop-color="#cbced2"/>
      <stop offset=".59" stop-color="#aeb2b9"/>
      <stop offset=".6" stop-color="#9ea3ab"/>
      <stop offset=".74" stop-color="#73909e"/>
      <stop offset=".81" stop-color="#628999"/>
    </linearGradient>
    <linearGradient id="D" x1="105.22" y1="61.62" x2="105.29" y2="63.14" gradientTransform="matrix(1 0 0 -1 -10 131)"
                    gradientUnits="userSpaceOnUse">
      <stop offset="0" stop-color="#858a95"/>
      <stop offset="1" stop-color="#3e4d56"/>
    </linearGradient>
    <linearGradient id="E" x1="106.55" y1="63.05" x2="120.54" y2="63.05" gradientTransform="matrix(1 0 0 -1 -10 131)"
                    gradientUnits="userSpaceOnUse">
      <stop offset=".02" stop-color="#d4d6da" stop-opacity="0"/>
      <stop offset="1" stop-color="#fff"/>
    </linearGradient>
    <linearGradient id="F" x1="119.31" y1="64.05" x2="120.01" y2="64.29" gradientTransform="matrix(1 0 0 -1 -10 131)"
                    gradientUnits="userSpaceOnUse">
      <stop offset=".02" stop-color="#d4d6da" stop-opacity="0"/>
      <stop offset=".27" stop-color="#d5d7db" stop-opacity=".01"/>
      <stop offset=".43" stop-color="#d7d9dd" stop-opacity=".04"/>
      <stop offset=".56" stop-color="#dbdde0" stop-opacity=".1"/>
      <stop offset=".68" stop-color="#e1e3e5" stop-opacity=".18"/>
      <stop offset=".79" stop-color="#e9eaec" stop-opacity=".29"/>
      <stop offset=".89" stop-color="#f2f3f4" stop-opacity=".42"/>
      <stop offset=".98" stop-color="#fdfdfd" stop-opacity=".57"/>
      <stop offset="1" stop-color="#fff" stop-opacity=".6"/>
    </linearGradient>
    <linearGradient id="G" x1="107.14" y1="62.58" x2="107.58" y2="63.74" gradientTransform="matrix(1 0 0 -1 -10 131)"
                    gradientUnits="userSpaceOnUse">
      <stop offset="0" stop-color="#7a8891"/>
      <stop offset=".68" stop-color="#ccd1d4"/>
      <stop offset=".82" stop-color="#9ea3ab"/>
      <stop offset=".94" stop-color="#73909e"/>
      <stop offset="1" stop-color="#628999"/>
    </linearGradient>
    <linearGradient id="H" x1="101.41" y1="71.42" x2="105.7" y2="62.95" gradientTransform="matrix(1 0 0 -1 -10 131)"
                    gradientUnits="userSpaceOnUse">
      <stop offset="0" stop-color="#024881" stop-opacity="0"/>
      <stop offset=".1" stop-color="#063977" stop-opacity=".14"/>
      <stop offset=".38" stop-color="#0f125d" stop-opacity=".51"/>
      <stop offset=".53" stop-color="#120353" stop-opacity=".65"/>
      <stop offset=".67" stop-color="#0f105c" stop-opacity=".53"/>
      <stop offset=".89" stop-color="#073473" stop-opacity=".19"/>
      <stop offset="1" stop-color="#024881" stop-opacity="0"/>
    </linearGradient>
    <linearGradient id="I" x1="100.22" y1="71.54" x2="107.96" y2="61.27" gradientTransform="matrix(1 0 0 -1 -10 131)"
                    gradientUnits="userSpaceOnUse">
      <stop offset="0" stop-color="#fcfcfc" stop-opacity=".6"/>
      <stop offset=".2" stop-color="#b2d3ee" stop-opacity="0"/>
    </linearGradient>
    <linearGradient id="J" x1="105.23" y1="62.95" x2="104.51" y2="64.78" gradientTransform="matrix(1 0 0 -1 -10 131)"
                    gradientUnits="userSpaceOnUse">
      <stop offset="0" stop-color="#7fbbe5" stop-opacity=".2"/>
      <stop offset=".06" stop-color="#87bfe6" stop-opacity=".17"/>
      <stop offset=".28" stop-color="#9fcaeb" stop-opacity=".08"/>
      <stop offset=".49" stop-color="#add1ed" stop-opacity=".02"/>
      <stop offset=".69" stop-color="#b2d3ee" stop-opacity="0"/>
      <stop offset=".8" stop-color="#b1e1f8" stop-opacity="0"/>
    </linearGradient>
    <linearGradient id="K" x1="80.44" y1="64.1" x2="80.35" y2="62.44" xlink:href="#a"/>
    <linearGradient id="L" x1="80.43" y1="63.83" x2="80.31" y2="62.48" gradientTransform="matrix(1 0 0 -1 -10 131)"
                    gradientUnits="userSpaceOnUse">
      <stop offset=".02" stop-color="#d4d6da" stop-opacity="0"/>
      <stop offset=".66" stop-color="#d9dbdf"/>
      <stop offset=".69" stop-color="#fff"/>
      <stop offset=".7" stop-color="#fcfcfc"/>
      <stop offset=".7" stop-color="#f2f3f4"/>
      <stop offset=".7" stop-color="#e2e4e6"/>
      <stop offset=".7" stop-color="#cbced2"/>
      <stop offset=".71" stop-color="#aeb2b9"/>
      <stop offset=".71" stop-color="#9ea3ab"/>
      <stop offset=".73" stop-color="#747b82"/>
      <stop offset=".74" stop-color="#525a61"/>
      <stop offset=".76" stop-color="#707d86"/>
      <stop offset=".77" stop-color="#889aa5"/>
      <stop offset=".88" stop-color="#73919e"/>
      <stop offset="1" stop-color="#628999"/>
    </linearGradient>
    <linearGradient id="M" x1="81.67" y1="63.86" x2="93.12" y2="63.86" gradientTransform="matrix(1 0 0 -1 -10 131)"
                    gradientUnits="userSpaceOnUse">
      <stop offset="0" stop-color="#fff" stop-opacity="0"/>
      <stop offset=".02" stop-color="#fff" stop-opacity=".03"/>
      <stop offset=".22" stop-color="#fff" stop-opacity=".26"/>
      <stop offset=".41" stop-color="#fff" stop-opacity=".45"/>
      <stop offset=".59" stop-color="#fff" stop-opacity=".6"/>
      <stop offset=".75" stop-color="#fff" stop-opacity=".71"/>
      <stop offset=".89" stop-color="#fff" stop-opacity=".78"/>
      <stop offset="1" stop-color="#fff" stop-opacity=".8"/>
    </linearGradient>
    <linearGradient id="b" x1="84.53" y1="62.5" x2="84.33" y2="61.52" gradientTransform="matrix(1 0 0 -1 -10 131)"
                    gradientUnits="userSpaceOnUse">
      <stop offset="0" stop-color="#68808b"/>
      <stop offset=".55" stop-color="#b0b8bf"/>
      <stop offset="1" stop-color="#9ea3ab"/>
    </linearGradient>
    <linearGradient id="c" x1="84.88" y1="62.44" x2="84.71" y2="61.58" gradientTransform="matrix(1 0 0 -1 -10 131)"
                    gradientUnits="userSpaceOnUse">
      <stop offset="0" stop-color="#757a82"/>
      <stop offset=".03" stop-color="#747981"/>
      <stop offset="1" stop-color="#525a61"/>
    </linearGradient>
    <linearGradient id="d" x1="84.52" y1="62.23" x2="84.06" y2="61.94" gradientTransform="matrix(1 0 0 -1 -10 131)"
                    gradientUnits="userSpaceOnUse">
      <stop offset=".11" stop-color="#70767f"/>
      <stop offset=".14" stop-color="#6e747d"/>
      <stop offset="1" stop-color="#495157"/>
    </linearGradient>
    <linearGradient id="N" x1="79.04" y1="97.19" x2="78.85" y2="96.22"
                    gradientTransform="matrix(1 .06 .06 -1 -14.88 160.74)" xlink:href="#b"/>
    <linearGradient id="O" x1="79.28" y1="97.15" x2="79.11" y2="96.31"
                    gradientTransform="matrix(1 .06 .06 -1 -14.88 160.74)" xlink:href="#c"/>
    <linearGradient id="P" x1="78.91" y1="96.9" x2="78.49" y2="96.63"
                    gradientTransform="matrix(1 .06 .06 -1 -14.88 160.74)" xlink:href="#d"/>
    <linearGradient id="Q" x1="64.58" y1="64.59" x2="64.54" y2="65.37" gradientTransform="matrix(1 0 0 -1 -10 131)"
                    gradientUnits="userSpaceOnUse">
      <stop offset=".44" stop-color="#fff" stop-opacity="0"/>
      <stop offset=".54" stop-color="#fff" stop-opacity=".01"/>
      <stop offset=".63" stop-color="#fff" stop-opacity=".05"/>
      <stop offset=".7" stop-color="#fff" stop-opacity=".11"/>
      <stop offset=".77" stop-color="#fff" stop-opacity=".2"/>
      <stop offset=".83" stop-color="#fff" stop-opacity=".32"/>
      <stop offset=".89" stop-color="#fff" stop-opacity=".46"/>
      <stop offset=".95" stop-color="#fff" stop-opacity=".63"/>
      <stop offset="1" stop-color="#fff" stop-opacity=".8"/>
    </linearGradient>
    <linearGradient id="R" x1="80.13" y1="63.83" x2="80.09" y2="63.67" gradientTransform="matrix(1 0 0 -1 -10 131)"
                    gradientUnits="userSpaceOnUse">
      <stop offset=".02" stop-color="#d4d6da" stop-opacity="0"/>
      <stop offset="1" stop-color="#fff" stop-opacity=".5"/>
    </linearGradient>
    <radialGradient id="S" cx="-241.52" cy="-1300.22" r="1.02" gradientTransform="matrix(0 2.05 .1 0 201.82 562.83)"
                    gradientUnits="userSpaceOnUse">
      <stop offset="0" stop-color="#fff"/>
      <stop offset=".17" stop-color="#feffff" stop-opacity=".99"/>
      <stop offset=".31" stop-color="#fdfdfd" stop-opacity=".95"/>
      <stop offset=".42" stop-color="#fafafb" stop-opacity=".89"/>
      <stop offset=".53" stop-color="#f6f7f7" stop-opacity=".8"/>
      <stop offset=".64" stop-color="#f1f2f3" stop-opacity=".68"/>
      <stop offset=".74" stop-color="#ebecee" stop-opacity=".54"/>
      <stop offset=".83" stop-color="#e4e5e8" stop-opacity=".37"/>
      <stop offset=".93" stop-color="#dcdde1" stop-opacity=".18"/>
      <stop offset="1" stop-color="#d4d6da" stop-opacity="0"/>
    </radialGradient>
    <linearGradient id="T" x1="112.01" y1="75.04" x2="111.95" y2="73.36" gradientTransform="matrix(1 0 0 -1 -10 131)"
                    gradientUnits="userSpaceOnUse">
      <stop offset="0" stop-color="#83bee7" stop-opacity=".7"/>
      <stop offset="1" stop-color="#525ba7" stop-opacity="0"/>
    </linearGradient>
    <linearGradient id="U" x1="102.89" y1="72.89" x2="103.72" y2="72.89" gradientTransform="matrix(1 0 0 -1 -10 131)"
                    gradientUnits="userSpaceOnUse">
      <stop offset=".01" stop-color="#d0d2d3"/>
      <stop offset=".1" stop-color="#d0d2d3"/>
      <stop offset=".18" stop-color="#b1b3b5"/>
      <stop offset=".21" stop-color="#b5b7b9"/>
      <stop offset=".3" stop-color="#bbbdbf"/>
      <stop offset=".34" stop-color="#cdcfd0"/>
      <stop offset=".41" stop-color="#f1f1f2"/>
      <stop offset=".48" stop-color="#e8e8e9"/>
      <stop offset=".61" stop-color="#d0d1d2"/>
      <stop offset=".73" stop-color="#b1b3b5"/>
      <stop offset=".77" stop-color="#d0d1d2"/>
      <stop offset=".81" stop-color="#e8e8e9"/>
      <stop offset=".83" stop-color="#f1f1f2"/>
      <stop offset=".86" stop-color="#e8e8ea"/>
      <stop offset=".9" stop-color="#d0d1d3"/>
      <stop offset=".92" stop-color="#c5c7c9"/>
      <stop offset="1" stop-color="#b1b3b5"/>
    </linearGradient>
    <linearGradient id="V" x1="103.35" y1="73.25" x2="103.7" y2="73.25" gradientTransform="matrix(1 0 0 -1 -10 131)"
                    gradientUnits="userSpaceOnUse">
      <stop offset=".2" stop-color="#f89e1c"/>
      <stop offset=".75" stop-color="#fcb415"/>
      <stop offset="1" stop-color="#fdbc11"/>
    </linearGradient>
    <linearGradient id="W" x1="102.94" y1="72.89" x2="103.68" y2="72.89" gradientTransform="matrix(1 0 0 -1 -10 131)"
                    gradientUnits="userSpaceOnUse">
      <stop offset=".2" stop-color="#c3161c"/>
      <stop offset=".7" stop-color="#e61c23"/>
    </linearGradient>
    <linearGradient id="X" x1="102.91" y1="72.55" x2="103.46" y2="72.55" gradientTransform="matrix(1 0 0 -1 -10 131)"
                    gradientUnits="userSpaceOnUse">
      <stop offset=".28" stop-color="#1c3585"/>
      <stop offset=".77" stop-color="#0c499b"/>
      <stop offset="1" stop-color="#005ea9"/>
    </linearGradient>
    <linearGradient id="e" x1="112.17" y1="75.36" x2="114.02" y2="75.36" gradientTransform="matrix(1 0 0 -1 -10 131)"
                    gradientUnits="userSpaceOnUse">
      <stop offset="0" stop-color="#fff" stop-opacity=".6"/>
      <stop offset="1" stop-color="#f6f8f9" stop-opacity="0"/>
    </linearGradient>
    <linearGradient id="Y" x1="109.28" y1="75.28" x2="112.92" y2="75.28" gradientTransform="matrix(1 0 0 -1 -10 131)"
                    gradientUnits="userSpaceOnUse">
      <stop offset="0" stop-color="#fff" stop-opacity=".6"/>
      <stop offset=".46" stop-color="#f9fafb" stop-opacity=".2"/>
      <stop offset="1" stop-color="#f6f8f9" stop-opacity="0"/>
    </linearGradient>
    <linearGradient id="Z" x1="108.47" y1="74.99" x2="106.8" y2="73.52" xlink:href="#e"/>
    <linearGradient id="aa" x1="98.26" y1="86.96" x2="97.24" y2="87.49" gradientTransform="matrix(1 0 0 -1 0 144)"
                    gradientUnits="userSpaceOnUse">
      <stop offset="0" stop-color="#9cabd3" stop-opacity=".63"/>
      <stop offset=".69" stop-color="#9ea9d5" stop-opacity=".5"/>
      <stop offset="1" stop-color="#e5e7f3"/>
    </linearGradient>
    <linearGradient id="f" x1="98.28" y1="87.73" x2="99.39" y2="87.73" gradientTransform="matrix(1 0 0 -1 0 144)"
                    gradientUnits="userSpaceOnUse">
      <stop offset="0" stop-color="#9cabd3" stop-opacity=".63"/>
      <stop offset=".9" stop-color="#9ea9d5"/>
      <stop offset="1" stop-color="#fff"/>
    </linearGradient>
    <linearGradient id="ab" x1="102.3" y1="88.46" x2="99.61" y2="88.2" xlink:href="#f"/>
    <linearGradient id="ac" x1="113.66" y1="75.05" x2="112.56" y2="75.54" gradientTransform="matrix(1 0 0 -1 -10 131)"
                    xlink:href="#f"/>
    <linearGradient id="g" x1="100.2" y1="88.14" x2="101.74" y2="88.14" gradientTransform="matrix(1 0 0 -1 0 144)"
                    gradientUnits="userSpaceOnUse">
      <stop offset="0" stop-color="#9cabd3" stop-opacity=".63"/>
      <stop offset="1" stop-color="#3e406d"/>
    </linearGradient>
    <linearGradient id="ad" x1="676.89" y1="84.79" x2="677.74" y2="84.79"
                    gradientTransform="matrix(-.88 .02 0 -1 697.08 127.11)" xlink:href="#g"/>
    <linearGradient id="ae" x1="107.77" y1="63.06" x2="109.37" y2="59.07" gradientTransform="matrix(1 0 0 -1 -10 131)"
                    gradientUnits="userSpaceOnUse">
      <stop offset="0" stop-color="#252259" stop-opacity=".98"/>
      <stop offset=".54" stop-color="#273b96" stop-opacity=".99"/>
      <stop offset="1" stop-color="#2e2f7c"/>
    </linearGradient>
    <linearGradient id="af" x1="107.18" y1="62.58" x2="107.56" y2="61.89" gradientTransform="matrix(1 0 0 -1 -10 131)"
                    gradientUnits="userSpaceOnUse">
      <stop offset="0" stop-color="#2a3794"/>
      <stop offset=".44" stop-color="#2a3792"/>
      <stop offset=".59" stop-color="#29358b"/>
      <stop offset=".71" stop-color="#283280"/>
      <stop offset=".8" stop-color="#262e6f"/>
      <stop offset=".87" stop-color="#242959"/>
      <stop offset=".91" stop-color="#23264b"/>
    </linearGradient>
    <linearGradient id="ag" x1="107.77" y1="63.06" x2="109.37" y2="59.07" gradientTransform="matrix(1 0 0 -1 -10 131)"
                    gradientUnits="userSpaceOnUse">
      <stop offset=".02" stop-color="#252259" stop-opacity="0"/>
      <stop offset=".43" stop-color="#2e3191" stop-opacity=".99"/>
      <stop offset=".65" stop-color="#1c4598" stop-opacity=".99"/>
      <stop offset="1" stop-color="#2e2f7c"/>
    </linearGradient>
    <linearGradient id="ah" x1="109.35" y1="59.28" x2="108.17" y2="61.37" gradientTransform="matrix(1 0 0 -1 -10 131)"
                    gradientUnits="userSpaceOnUse">
      <stop offset="0" stop-color="#253d97" stop-opacity=".8"/>
      <stop offset=".02" stop-color="#253c96" stop-opacity=".8"/>
      <stop offset=".57" stop-color="#17206a" stop-opacity=".9"/>
      <stop offset=".65" stop-color="#19226b" stop-opacity=".86"/>
      <stop offset=".74" stop-color="#1e276d" stop-opacity=".74"/>
      <stop offset=".84" stop-color="#272f71" stop-opacity=".53"/>
      <stop offset=".93" stop-color="#333a76" stop-opacity=".25"/>
      <stop offset="1" stop-color="#3d447b" stop-opacity="0"/>
    </linearGradient>
    <radialGradient id="j" cx="109.87" cy="61.34" r="2" gradientTransform="matrix(1 0 0 -1 -10 131)"
                    gradientUnits="userSpaceOnUse">
      <stop offset="0" stop-color="#fff"/>
      <stop offset="1" stop-color="#6c6c80"/>
    </radialGradient>
    <linearGradient id="h" x1="111.08" y1="62.3" x2="108.66" y2="60.39" gradientTransform="matrix(1 0 0 -1 -10 131)"
                    gradientUnits="userSpaceOnUse">
      <stop offset="0" stop-color="#2e4963"/>
      <stop offset="1" stop-color="#2e2d40"/>
    </linearGradient>
    <linearGradient id="ai" x1="108.94" y1="60.56" x2="110.95" y2="62.26" xlink:href="#h"/>
    <linearGradient id="k" x1="110.26" y1="62.06" x2="108.7" y2="60.45" gradientTransform="matrix(1 0 0 -1 -10 131)"
                    gradientUnits="userSpaceOnUse">
      <stop offset="0" stop-color="#4d5c76"/>
      <stop offset="1" stop-color="#2e2d40"/>
    </linearGradient>
    <linearGradient id="l" x1="108.38" y1="60.79" x2="110.67" y2="60.79" gradientTransform="matrix(1 0 0 -1 -10 131)"
                    gradientUnits="userSpaceOnUse">
      <stop offset="0" stop-color="#2f2e42"/>
      <stop offset="1" stop-color="#1a1729"/>
    </linearGradient>
    <linearGradient id="m" x1="109.53" y1="62.62" x2="110.55" y2="59.79" gradientTransform="matrix(1 0 0 -1 -10 131)"
                    gradientUnits="userSpaceOnUse">
      <stop offset="0" stop-color="#585872"/>
      <stop offset=".25" stop-color="#96aec6"/>
      <stop offset="1" stop-color="#2e2d40"/>
    </linearGradient>
    <linearGradient id="n" x1="108.25" y1="61.32" x2="111.72" y2="61.32" gradientTransform="matrix(1 0 0 -1 -10 131)"
                    gradientUnits="userSpaceOnUse">
      <stop offset="0" stop-color="#fff"/>
      <stop offset="1" stop-color="#9797a6"/>
    </linearGradient>
    <linearGradient id="i" x1="110.2" y1="62.35" x2="111.66" y2="58.3" gradientTransform="matrix(1 0 0 -1 -10 131)"
                    gradientUnits="userSpaceOnUse">
      <stop offset="0" stop-color="#8da0bd"/>
      <stop offset="1" stop-color="#181436"/>
    </linearGradient>
    <linearGradient id="aj" x1="110.42" y1="62.42" x2="111.87" y2="58.38" xlink:href="#i"/>
    <linearGradient id="ak" x1="109.83" y1="62.21" x2="111.28" y2="58.17" xlink:href="#i"/>
    <linearGradient id="al" x1="110.58" y1="62.49" x2="112.03" y2="58.44" xlink:href="#i"/>
    <linearGradient id="am" x1="110.64" y1="62.51" x2="112.09" y2="58.46" xlink:href="#i"/>
    <linearGradient id="an" x1="110.58" y1="62.49" x2="112.03" y2="58.44" xlink:href="#i"/>
    <linearGradient id="o" x1="111.38" y1="60" x2="108.61" y2="62.58" gradientTransform="matrix(1 0 0 -1 -10 131)"
                    gradientUnits="userSpaceOnUse">
      <stop offset="0" stop-color="#4c4b63"/>
      <stop offset=".12" stop-color="#545269"/>
      <stop offset=".31" stop-color="#6a667b"/>
      <stop offset=".55" stop-color="#8e8697"/>
      <stop offset=".82" stop-color="#c0b2be"/>
      <stop offset=".87" stop-color="#c9bac5"/>
    </linearGradient>
    <linearGradient id="ao" x1="109.77" y1="61.4" x2="108.48" y2="62.69" gradientTransform="matrix(1 0 0 -1 -10 131)"
                    gradientUnits="userSpaceOnUse">
      <stop offset="0" stop-color="#6c6c80"/>
      <stop offset="1" stop-color="#fff"/>
    </linearGradient>
    <radialGradient id="p" cx="109.86" cy="61.34" r="2" gradientTransform="matrix(1 0 0 -1 -10 131)"
                    gradientUnits="userSpaceOnUse">
      <stop offset=".95" stop-color="#f5f5f6" stop-opacity="0"/>
      <stop offset=".96" stop-color="#f6f6f7" stop-opacity=".14"/>
      <stop offset=".96" stop-color="#f8f8f9" stop-opacity=".34"/>
      <stop offset=".97" stop-color="#fafafb" stop-opacity=".51"/>
      <stop offset=".97" stop-color="#fcfcfc" stop-opacity=".66"/>
      <stop offset=".98" stop-color="#fdfdfd" stop-opacity=".79"/>
      <stop offset=".98" stop-color="#fefefe" stop-opacity=".88"/>
      <stop offset=".99" stop-color="#fefeff" stop-opacity=".95"/>
      <stop offset=".99" stop-color="#fff" stop-opacity=".99"/>
      <stop offset="1" stop-color="#fff"/>
    </radialGradient>
    <linearGradient id="q" x1="108.91" y1="62.41" x2="111.39" y2="59.43" gradientTransform="matrix(1 0 0 -1 -10 131)"
                    gradientUnits="userSpaceOnUse">
      <stop offset="0" stop-color="#6c6c80"/>
      <stop offset="1" stop-color="#fff" stop-opacity="0"/>
    </linearGradient>
    <linearGradient id="ap" x1="108.7" y1="62.84" x2="111.1" y2="59.51" gradientTransform="matrix(1 0 0 -1 -10 131)"
                    gradientUnits="userSpaceOnUse">
      <stop offset="0" stop-color="#6c6c80" stop-opacity=".4"/>
      <stop offset=".97" stop-color="#fafbfd" stop-opacity="0"/>
      <stop offset="1" stop-color="#fff" stop-opacity="0"/>
    </linearGradient>
    <radialGradient id="r" cx="166.74" cy="-343.52" r=".39" gradientTransform="matrix(1.38 0 0 -.34 -131.34 -48.5)"
                    gradientUnits="userSpaceOnUse">
      <stop offset=".35" stop-color="#fff"/>
      <stop offset=".63" stop-color="#fff" stop-opacity=".03"/>
      <stop offset="1" stop-color="#fff" stop-opacity="0"/>
    </radialGradient>
    <linearGradient id="s" x1="99.39" y1="73.62" x2="99.4" y2="74.5" gradientTransform="matrix(1 0 0 -1 0 144)"
                    gradientUnits="userSpaceOnUse">
      <stop offset="0" stop-color="#646478"/>
      <stop offset="1" stop-color="#1e1d33"/>
    </linearGradient>
    <linearGradient id="t" x1="109.38" y1="60.88" x2="109.43" y2="62.1" gradientTransform="matrix(1 0 0 -1 -10 131)"
                    gradientUnits="userSpaceOnUse">
      <stop offset="0" stop-color="#7c7d8a"/>
      <stop offset="1" stop-color="#32354c"/>
    </linearGradient>
    <radialGradient id="u" cx="99.4" cy="74.37" r=".42" gradientTransform="matrix(1 0 0 -1 0 144)"
                    gradientUnits="userSpaceOnUse">
      <stop offset="0" stop-color="#fffbf8"/>
      <stop offset=".64" stop-color="#929bc1" stop-opacity=".72"/>
      <stop offset=".74" stop-color="#838bb6" stop-opacity=".57"/>
      <stop offset="1" stop-color="#1b154a" stop-opacity=".5"/>
    </radialGradient>
    <linearGradient id="v" x1="109.38" y1="60.97" x2="109.38" y2="61.26" gradientTransform="matrix(1 0 0 -1 -10 131)"
                    gradientUnits="userSpaceOnUse">
      <stop offset="0" stop-color="#fffbf8"/>
      <stop offset=".48" stop-color="#929bc1" stop-opacity=".72"/>
      <stop offset="1" stop-color="#1b154a" stop-opacity=".5"/>
    </linearGradient>
    <linearGradient id="w" x1="109.37" y1="61.22" x2="109.38" y2="61.38" gradientTransform="matrix(1 0 0 -1 -10 131)"
                    gradientUnits="userSpaceOnUse">
      <stop offset="0" stop-color="#646478" stop-opacity=".3"/>
      <stop offset="1" stop-color="#1e1d33"/>
    </linearGradient>
    <radialGradient id="aq" cx="-276.32" cy="69.72" r=".84"
                    gradientTransform="matrix(.2 -.98 -1.68 -.34 249.92 -178.77)" gradientUnits="userSpaceOnUse">
      <stop offset=".22" stop-color="#7a8891"/>
      <stop offset=".53" stop-color="#fff"/>
      <stop offset=".67" stop-color="#fdfefe"/>
      <stop offset=".71" stop-color="#f6f8f9"/>
      <stop offset=".75" stop-color="#ebf0f2"/>
      <stop offset=".78" stop-color="#dae3e7"/>
      <stop offset=".8" stop-color="#c4d2d8"/>
      <stop offset=".82" stop-color="#a8bec7"/>
      <stop offset=".84" stop-color="#89a6b2"/>
      <stop offset=".86" stop-color="#658b9b"/>
      <stop offset=".86" stop-color="#628999"/>
    </radialGradient>
    <linearGradient id="ar" x1="87.12" y1="63.22" x2="88.8" y2="59.03" gradientTransform="matrix(1 0 0 -1 -10 131)"
                    gradientUnits="userSpaceOnUse">
      <stop offset="0" stop-color="#252259" stop-opacity=".98"/>
      <stop offset=".21" stop-color="#2e3191" stop-opacity=".99"/>
      <stop offset=".65" stop-color="#1c4598" stop-opacity=".99"/>
      <stop offset="1" stop-color="#2e2f7c"/>
    </linearGradient>
    <linearGradient id="as" x1="86.34" y1="62.62" x2="86.74" y2="61.89" gradientTransform="matrix(1 0 0 -1 -10 131)"
                    gradientUnits="userSpaceOnUse">
      <stop offset=".11" stop-color="#2e3191"/>
      <stop offset=".5" stop-color="#2e318f"/>
      <stop offset=".64" stop-color="#2d3088"/>
      <stop offset=".74" stop-color="#2b2e7d"/>
      <stop offset=".82" stop-color="#282b6c"/>
      <stop offset=".89" stop-color="#252856"/>
      <stop offset=".91" stop-color="#23264b"/>
    </linearGradient>
    <linearGradient id="at" x1="87.32" y1="62.37" x2="89.26" y2="58.57" gradientTransform="matrix(1 0 0 -1 -10 131)"
                    gradientUnits="userSpaceOnUse">
      <stop offset=".02" stop-color="#252259" stop-opacity="0"/>
      <stop offset=".18" stop-color="#2e3191" stop-opacity=".99"/>
      <stop offset=".65" stop-color="#1c4598" stop-opacity=".99"/>
      <stop offset="1" stop-color="#2e2f7c"/>
    </linearGradient>
    <linearGradient id="au" x1="88.58" y1="59.37" x2="87.41" y2="61.46" gradientTransform="matrix(1 0 0 -1 -10 131)"
                    gradientUnits="userSpaceOnUse">
      <stop offset="0" stop-color="#263a94" stop-opacity=".8"/>
      <stop offset=".3" stop-color="#202b6c" stop-opacity=".8"/>
      <stop offset=".57" stop-color="#1c1f4d" stop-opacity=".8"/>
      <stop offset=".67" stop-color="#1e2250" stop-opacity=".74"/>
      <stop offset=".79" stop-color="#25295a" stop-opacity=".57"/>
      <stop offset=".91" stop-color="#31366a" stop-opacity=".29"/>
      <stop offset="1" stop-color="#3d447b" stop-opacity="0"/>
    </linearGradient>
    <radialGradient id="av" cx="89.27" cy="61.39" r="2.1" xlink:href="#j"/>
    <linearGradient id="aw" x1="90.54" y1="62.4" x2="88" y2="60.4" xlink:href="#h"/>
    <linearGradient id="ax" x1="88.29" y1="60.57" x2="90.41" y2="62.36" xlink:href="#h"/>
    <linearGradient id="ay" x1="89.68" y1="62.15" x2="88.05" y2="60.45" xlink:href="#k"/>
    <linearGradient id="az" x1="87.7" y1="60.78" x2="90.11" y2="60.78" xlink:href="#l"/>
    <linearGradient id="aA" x1="88.91" y1="62.73" x2="89.98" y2="59.77" xlink:href="#m"/>
    <linearGradient id="aB" x1="87.56" y1="61.37" x2="91.21" y2="61.37" xlink:href="#n"/>
    <linearGradient id="aC" x1="89.62" y1="62.45" x2="91.15" y2="58.21" xlink:href="#i"/>
    <linearGradient id="aD" x1="89.86" y1="62.54" x2="91.38" y2="58.29" xlink:href="#i"/>
    <linearGradient id="aE" x1="89.22" y1="62.31" x2="90.75" y2="58.06" xlink:href="#i"/>
    <linearGradient id="aF" x1="90.02" y1="62.6" x2="91.55" y2="58.35" xlink:href="#i"/>
    <linearGradient id="aG" x1="90.08" y1="62.62" x2="91.6" y2="58.37" xlink:href="#i"/>
    <linearGradient id="aH" x1="90.02" y1="62.6" x2="91.54" y2="58.35" xlink:href="#i"/>
    <linearGradient id="aI" x1="90.86" y1="59.98" x2="87.94" y2="62.7" xlink:href="#o"/>
    <linearGradient id="aJ" x1="89.18" y1="61.42" x2="87.83" y2="62.78" gradientTransform="matrix(1 0 0 -1 -10 131)"
                    gradientUnits="userSpaceOnUse">
      <stop offset="0" stop-color="#6c6c80"/>
      <stop offset=".17" stop-color="#7e7e90"/>
      <stop offset=".5" stop-color="#aeaeb9"/>
      <stop offset=".97" stop-color="#fafafb"/>
      <stop offset="1" stop-color="#fff"/>
    </linearGradient>
    <radialGradient id="aK" cx="89.26" cy="61.39" r="2.1" xlink:href="#p"/>
    <linearGradient id="aL" x1="88.28" y1="62.52" x2="90.91" y2="59.36" xlink:href="#q"/>
    <linearGradient id="aM" x1="88.06" y1="62.99" x2="90.58" y2="59.49" gradientTransform="matrix(1 0 0 -1 -10 131)"
                    gradientUnits="userSpaceOnUse">
      <stop offset="0" stop-color="#6c6c80" stop-opacity=".4"/>
      <stop offset="1" stop-color="#fff" stop-opacity="0"/>
    </linearGradient>
    <radialGradient id="aN" cx="153.11" cy="-334.82" r=".41" gradientTransform="matrix(1.38 0 0 -.34 -133.19 -45.64)"
                    xlink:href="#r"/>
    <linearGradient id="aO" x1="78.76" y1="73.64" x2="78.78" y2="74.56" xlink:href="#s"/>
    <linearGradient id="aP" x1="88.76" y1="60.91" x2="88.81" y2="62.19" xlink:href="#t"/>
    <radialGradient id="aQ" cx="78.78" cy="74.42" r=".44" xlink:href="#u"/>
    <linearGradient id="aR" x1="88.78" y1="61" x2="88.78" y2="61.31" xlink:href="#v"/>
    <linearGradient id="aS" x1="88.8" y1="61.27" x2="88.8" y2="61.44" xlink:href="#w"/>
    <linearGradient id="aT" x1="106.22" y1="63.38" x2="107.31" y2="63.38" gradientTransform="matrix(1 0 0 -1 -10 131)"
                    gradientUnits="userSpaceOnUse">
      <stop offset="0" stop-color="#fdbc11"/>
      <stop offset=".25" stop-color="#fcb415"/>
      <stop offset=".8" stop-color="#f89e1c"/>
    </linearGradient>
    <linearGradient id="aU" x1="103.96" y1="63.47" x2="106.97" y2="63.47" gradientTransform="matrix(1 0 0 -1 -10 131)"
                    gradientUnits="userSpaceOnUse">
      <stop offset=".15" stop-color="#e61c23"/>
      <stop offset=".52" stop-color="#c3161c"/>
    </linearGradient>
    <linearGradient id="aV" x1="103.8" y1="63.33" x2="106.32" y2="63.33" gradientTransform="matrix(1 0 0 -1 -10 131)"
                    gradientUnits="userSpaceOnUse">
      <stop offset="0" stop-color="#005ea9"/>
      <stop offset=".14" stop-color="#0c499b"/>
      <stop offset=".72" stop-color="#1c3585"/>
    </linearGradient>
  </defs>
  <circle cx="71" cy="71" r="71" fill="#1f2444"/>
  <path d="M32.5 42h77a5 5 0 0 1 5 5v48a5 5 0 0 1-5 5h-77a5 5 0 0 1-5-5V47a5 5 0 0 1 5-5z" fill="#4d4d4d"/>
  <path
    d="M94.5 71.5c9.7 0 15.5-3 20-3v9s-12.8 3.4-24.2 2.7C76 79.3 63.2 61.5 40.5 61.5c-10.2 0-13 2-13 2v-10s-1.5-2 13-2c18.6 0 44.3 20 54 20z"
    fill="#575757"/>
  <path
    d="M94.5 68.5c9.7 0 15.5-3 20-3v9s-12.8 3.4-24.2 2.7C76 76.3 63.2 58.5 40.5 58.5c-10.2 0-13 2-13 2v-10s-1.5-2 13-2c18.6 0 44.3 20 54 20z"
    fill="#525252"/>
  <path
    d="M89.2 91.1l1.3-7.6h2.1l-1.3 7.6zm9.6-7.4a4.7 4.7 0 0 0-1.9-.3c-2 0-3.5 1-3.5 2.5 0 1.1 1 1.7 1.8 2.1s1.1.6 1.1.9c0 .5-.6.7-1.2.7a3.81 3.81 0 0 1-1.9-.4l-.3-.1-.3 1.7a6.8 6.8 0 0 0 2.3.4c2.2 0 3.6-1 3.6-2.6 0-.9-.5-1.5-1.7-2.1-.7-.4-1.2-.6-1.2-.9s.4-.7 1.2-.7a2.81 2.81 0 0 1 1.5.3l.2.1.3-1.6m5.3-.2h-1.6c-.5 0-.9.1-1.1.6l-3.1 7h2.2a6.6 6.6 0 0 0 .4-1.1h2.6c.1.3.3 1.1.3 1.1h1.9l-1.6-7.6m-2.6 4.9c.2-.4.8-2.1.8-2.1a6.66 6.66 0 0 0 .3-.7l.1.7s.4 1.8.5 2.2zm-14-4.9l-2 5.2-.2-1.1a6.38 6.38 0 0 0-2.9-3.2l1.9 6.6h2.2l3.3-7.6-2.3.1"
    fill="#b7b7b7"/>
  <path d="M83.6 83.5h-3.3v.2a6.59 6.59 0 0 1 5 4l-.7-3.5a1 1 0 0 0-1-.7" fill="#b7b7b7"/>
  <path d="M48.8 74.5h-10a2 2 0 0 1-2-2v-8.8a2 2 0 0 1 2-2h10a2 2 0 0 1 2 2v8.8a2 2 0 0 1-2 2z" fill="#b8b8b8"/>
  <path d="M38.3 61.6h.3v13.2h-.3zm10.5 0h.3v13.2h-.3z" fill="#4d4d4d"/>
  <path d="M38.3 62.6h10.8v.3H38.3zm0 10.9h10.8v.3H38.3z" fill="#4d4d4d"/>
  <path d="M46.2 64.6h-.7v-1.1H42v1.1h-.6v7.2h.6v1h3.5v-1h.7z" fill="none" stroke="#4d4d4d" stroke-miterlimit="10"
        stroke-width=".25"/>
  <path
    d="M36.7 64.5h4.8v.2h-4.8zm9.4 0h4.8v.2h-4.8zm-9.4 7.2h4.8v.2h-4.8zm9.4 0h4.8v.2h-4.8zM36.6 68h4.8v.2h-4.8zm9.4 0h4.8v.2H46zm-2.3 4.8h.2v.9h-.2zm0-10.2h.2v.9h-.2zm-2.6-.9h.2v.9h-.2zm5.1 0h.2v.9h-.2zm-5.1 11.9h.2v1h-.2zm5.1 0h.2v1h-.2z"
    fill="#4d4d4d"/>
  <path
    d="M83.5 65.76c-.2 0-.39-.21-.49-.55 0-.11-.32-1.16-.58-2.38-.12-.53-.23-1.07-.33-1.55s-.23-1.09-.28-1.3a.19.19 0 0 0-.19-.13.24.24 0 0 0-.13 0l-.5.43a.19.19 0 0 0 0 .1c0 .26.18 7.4.18 7.47l2.42-2.18z"
    fill="#74737b"/>
  <path
    d="M81 60.43c0 .26.18 7.47.18 7.47l2.36-2.13c-.22 0-.41-.23-.51-.56 0-.15-.33-1.21-.58-2.38s-.52-2.47-.61-2.85a.19.19 0 0 0-.25-.1l-.5.43a.18.18 0 0 0-.09.12z"
    fill="#b9bec5"/>
  <path
    d="M81.14 67.92c0-.07-.17-7.21-.18-7.47a.18.18 0 0 1 0-.09l.5-.43a.23.23 0 0 1 .12 0 .18.18 0 0 1 .17.12c.05.21.15.69.28 1.3s.22 1 .33 1.55c.27 1.21.55 2.27.58 2.38.1.34.29.56.49.56zm.49-8a.22.22 0 0 0-.12 0l-.5.43a.18.18 0 0 0 0 .08c0 .25.22 7.14.23 7.44l2.3-2.09c-.2 0-.4-.22-.5-.56 0-.11-.32-1.16-.59-2.38-.12-.53-.23-1.07-.33-1.55s-.23-1.08-.28-1.3a.17.17 0 0 0-.22-.1z"
    fill="#d1c6c5"/>
  <path d="M81.2 67.75s-.2-7.27-.2-7.29a5.06 5.06 0 0 1 .46-.44s.18 0 .21.06c.19.75 1.08 4.94 1.17 5.24s.29.58.48.58z"
        fill="#a2a19f"/>
  <path
    d="M81.24 67.81s-.27-6-.27-7.29c0-.13 0-.15.05-.16l.48-.4a.17.17 0 0 1 .23.06c.19.75 1.09 4.9 1.18 5.2s.35.61.54.61z"
    fill="#d8dbd4"/>
  <path
    d="M81.26 67.76S81 61.33 81 60.51a.21.21 0 0 1 .05-.15c.11-.11.35-.28.46-.38a.14.14 0 0 1 .19 0c.19.75 1.08 5 1.17 5.26s.34.57.52.57z"
    fill="url(#x)"/>
  <path
    d="M81.18 67.82S81 61.23 81 60.53a.29.29 0 0 1 0-.15l.45-.4a.13.13 0 0 1 .18 0c.19.75 1.05 5 1.14 5.28s.29.58.48.58z"
    fill="url(#y)"/>
  <path
    d="M81.27 67.77s-.21-6.67-.24-7.23a.25.25 0 0 1 0-.1.16.16 0 0 1 0-.05c.07-.07.26-.21.37-.3h.07c.14.63 1.11 5 1.21 5.29s.22.54.44.6z"
    fill="url(#z)"/>
  <path d="M82.22 66.81s-1.05-6.35-1.07-6.38a1.3 1.3 0 0 1 .24-.23.07.07 0 0 1 .1 0c.15.71 1 4.71 1.1 5s.27.8.57.78z"
        fill="#e7b620"/>
  <path d="M82.24 66.88s-1.07-6.42-1.08-6.45.07-.08.14-.14a.08.08 0 0 1 .11 0c.16.79 1 4.75 1.11 5.05s.21.77.52.74z"
        fill="url(#A)"/>
  <path d="M81.29 67.66c.07-.05-.17-7.09-.18-7.12s1 6.46 1 6.43z" fill="#c52b28"/>
  <path d="M82.83 65.4a.08.08 0 0 1-.1 0l-1.19-5.24v-.09s.11 0 .11.05l1.17 5.23s.05 0 0 .05z" fill="url(#B)"/>
  <path
    d="M82.86 65.42h-.06a.7.7 0 0 0 .17.41.56.56 0 0 0 .25.17l.06-.1s-.19-.08-.23-.16a.08.08 0 0 1-.11 0 .4.4 0 0 1-.05-.13z"
    fill="url(#C)"/>
  <path d="M93.2 69.57a1.83 1.83 0 0 0-.26.38.57.57 0 0 0 .08.32 1.55 1.55 0 0 0 1 0 1.39 1.39 0 0 0 1-.9z"
        fill="#68677a"/>
  <path
    d="M93.19 69.58A1.81 1.81 0 0 0 93 70a.57.57 0 0 0 .08.32 1.86 1.86 0 0 0 .84-.12 1.14 1.14 0 0 0 .65-.39 1.31 1.31 0 0 0 .3 0 2.35 2.35 0 0 0 .21-.37z"
    fill="#575767"/>
  <path
    d="M93.17 69.6a1.83 1.83 0 0 0-.26.38.57.57 0 0 0 .08.32 1.26 1.26 0 0 0 .84.06 1.74 1.74 0 0 0 .64-.28 2.08 2.08 0 0 0-.45.05c-.18.05-.13 0-.15-.11l-.1-.48z"
    fill="#434da0"/>
  <path d="M93.17 69.6a1.83 1.83 0 0 0-.26.38.57.57 0 0 0 .08.32 2.56 2.56 0 0 0 .93-.17l-.15-.58z" fill="#353c82"/>
  <path d="M95.65 70.51l-1-1.07 1.6-.16a3.08 3.08 0 0 0-.36.58 3.28 3.28 0 0 1-.24.65z" fill="#585969"/>
  <path
    d="M109.06 65.37v-.06a1 1 0 0 1 .36 0 .37.37 0 0 1 .25.27l.94 2.58a.19.19 0 0 1-.11.25h-.06c-.13 0-1 .09-1 .09s-.24-2.94-.26-3a.19.19 0 0 0-.12-.13z"
    fill="#d7d8d9"/>
  <path d="M110.17 68.47V70s-.15.16-.22.13.07 0 0-.23l-.41-1.31z" fill="#74798b"/>
  <path
    d="M109.06 65.36a.89.89 0 0 1 .35 0 .34.34 0 0 1 .25.25c.06.16.91 2.47.94 2.57a.17.17 0 0 1-.12.24l-1 .14s-.27-3-.28-3a.23.23 0 0 0-.14-.2z"
    fill="#fff"/>
  <path
    d="M109.06 65.36a.89.89 0 0 1 .35 0 .34.34 0 0 1 .25.25c.06.16.91 2.47.94 2.57a.17.17 0 0 1-.12.24 6.12 6.12 0 0 1-1.22-2.48v-.37a.23.23 0 0 0-.2-.21z"
    fill="#fff"/>
  <path
    d="M110.48 68.35H110l-.57.1s-.09-1.41-.17-2.24a6.83 6.83 0 0 0 .44 1 7.23 7.23 0 0 0 .78 1.14zm-1.42-3a.89.89 0 0 1 .35 0 .34.34 0 0 1 .25.25"
    fill="#c52b28"/>
  <path
    d="M109.06 65.36a.87.87 0 0 1 .34 0 .38.38 0 0 1 .26.27c.06.16.91 2.47.94 2.57s0 .12 0 .17a6.77 6.77 0 0 1-1.33-2.51 1.26 1.26 0 0 1 0-.27.23.23 0 0 0-.21-.23z"
    fill="#e7b620"/>
  <path
    d="M91.54 69.81a6 6 0 0 0 1.46-.72s2.48-1 4-1.5l13.27.65c.25 0 .38.09.31.13a3.13 3.13 0 0 1-1.13.26L97.1 69.84c-.19 0-.8-.55-.8-.55s-4.87.57-4.76.52z"
    fill="url(#a)"/>
  <path d="M97.76 69.14l-6.2.67-.8.09a9 9 0 0 0 2.24-.81s2.48-1 4-1.5l2.77.13z" fill="url(#D)"/>
  <path d="M110.22 68.24c.25 0 .37 0 .3.06s-4.78-.17-8.67-.32c-3.18-.13-5.87-.07-5.2-.3l.27-.09z" fill="url(#E)"/>
  <path
    d="M109 65.35a.85.85 0 0 1 .34 0 .29.29 0 0 1 .23.22c.06.16.83 2.4.87 2.49a.18.18 0 0 1-.09.24l-.88.2s-.27-2.94-.29-3-.03-.12-.18-.15z"
    fill="url(#F)"/>
  <path
    d="M96.69 67.53l-1 .48a1 1 0 0 1 .91.24c.29.33-.28.87.05.66A16 16 0 0 1 99 67.72a7.13 7.13 0 0 0-1.14-.24 5.67 5.67 0 0 0-1.17.05z"
    fill="url(#G)"/>
  <path
    d="M96.14 68a28 28 0 0 0 5.15-2.22 13.91 13.91 0 0 0 5.41-6.62c.91-2.59-2.65-3-2.65-3l-.51-.41a4.87 4.87 0 0 0-3.67-.93 12.5 12.5 0 0 0-7.27 3c-3 2.26-12.43 11-12.43 11a3.81 3.81 0 0 0 1.73 2.94c1.29.68 1.8.69 4.22.09C89.19 71 94 68.76 96.14 68z"
    fill="#0d4b9f"/>
  <path
    d="M96.14 68a28 28 0 0 0 5.15-2.22 13.91 13.91 0 0 0 5.41-6.62c.91-2.59-2.65-3-2.65-3l-.51-.41a4.87 4.87 0 0 0-3.67-.93 12.5 12.5 0 0 0-7.27 3c-3 2.26-12.43 11-12.43 11a3.81 3.81 0 0 0 1.73 2.94c1.29.68 1.8.69 4.22.09C89.19 71 94 68.76 96.14 68z"
    fill="#2e3191"/>
  <path
    d="M96.14 68a28 28 0 0 0 5.15-2.22 13.91 13.91 0 0 0 5.41-6.62c.91-2.59-2.65-3-2.65-3l-.51-.41a4.87 4.87 0 0 0-3.67-.93 12.5 12.5 0 0 0-7.27 3c-3 2.26-12.43 11-12.43 11a3.81 3.81 0 0 0 1.73 2.94c1.29.68 1.8.69 4.22.09C89.19 71 94 68.76 96.14 68z"
    fill="url(#H)"/>
  <path
    d="M96.14 68a28 28 0 0 0 5.15-2.22 13.91 13.91 0 0 0 5.41-6.62c.91-2.59-2.65-3-2.65-3l-.51-.41a4.87 4.87 0 0 0-3.67-.93 12.5 12.5 0 0 0-7.27 3c-3 2.26-12.43 11-12.43 11a3.81 3.81 0 0 0 1.73 2.94c1.29.68 1.8.69 4.22.09C89.19 71 94 68.76 96.14 68z"
    fill="url(#I)"/>
  <path
    d="M96.14 68a28 28 0 0 0 5.15-2.22 13.91 13.91 0 0 0 5.41-6.62c.91-2.59-2.65-3-2.65-3l-.51-.41a4.87 4.87 0 0 0-3.67-.93 12.5 12.5 0 0 0-7.27 3c-3 2.26-12.43 11-12.43 11a3.81 3.81 0 0 0 1.73 2.94c1.29.68 1.8.69 4.22.09C89.19 71 94 68.76 96.14 68z"
    fill="url(#J)"/>
  <path
    d="M85.15 72a5.32 5.32 0 0 1-3-.55 3.54 3.54 0 0 1-1.67-2.35l-.52.38a3.76 3.76 0 0 0 2 2.26 3.93 3.93 0 0 0 3.19.26z"
    fill="#c42b28" stroke="#c42b28" stroke-miterlimit="10"/>
  <path d="M85.13 72a5.26 5.26 0 0 1-3-.56 3.54 3.54 0 0 1-1.67-2.35l.65-.4c.11 1.69 1.77 3 4 3h1.08z" fill="#dfb126"/>
  <path
    d="M85.66 67.59a1.17 1.17 0 0 0-.61-.16s-18-.49-22.32-.73c-3.05-.17-7.2-.32-8-.34a.05.05 0 0 0 0 .07 3 3 0 0 0 1.24.49l26.86 3a8.82 8.82 0 0 0 2.71-.75 1.4 1.4 0 0 0 .6-1c-.02-.28-.35-.5-.48-.58z"
    fill="url(#K)"/>
  <path
    d="M85.66 67.59a1.17 1.17 0 0 0-.61-.16s-18-.49-22.32-.73c-3.05-.17-7.2-.32-8-.34a.05.05 0 0 0 0 .07 3 3 0 0 0 1.24.49l26.86 3a8.82 8.82 0 0 0 2.71-.75 1.4 1.4 0 0 0 .6-1c-.02-.28-.35-.5-.48-.58z"
    fill="url(#L)"/>
  <path d="M85.66 67.59a1.17 1.17 0 0 0-.61-.16s-18-.49-22.32-.73z" fill="url(#M)"/>
  <path d="M54.78 66.5s-1 1.71-1 1.83v.18s-.06-.1.1-.31l1.2-1.53z" fill="#95908d"/>
  <path d="M56.31 67a6.51 6.51 0 0 1-.59-.35c-.22-.18-.18-.23-.18-.23h-.3s-.09.06.13.24a5 5 0 0 0 .57.32h.36z"
        style="isolation:isolate" fill="#e4e3e2" opacity=".62"/>
  <path
    d="M74 68.8a.14.14 0 0 1 0-.1 1.38 1.38 0 0 1 .31-.24 1.13 1.13 0 0 1 .31 0s.27.25.27.33 0 .61-.12.71-.07.07-.12.06h-.59c-.09 0-.09-.08-.09-.17z"
    fill="url(#b)"/>
  <path d="M74.69 68.48s.26.22.27.33a1.13 1.13 0 0 1-.12.71 1.54 1.54 0 0 1-.14-.52 2.41 2.41 0 0 1-.01-.52z"
        fill="url(#c)"/>
  <path d="M74 68.8a.14.14 0 0 1 0-.1 1.4 1.4 0 0 1 .31-.24c.06 0-.07.59-.09.71-.08.38-.27.42-.27.24z" fill="url(#d)"/>
  <path
    d="M68.83 68.3a.14.14 0 0 1 .05-.1c.09-.07.17-.23.22-.23a1.1 1.1 0 0 1 .3 0s.37.27.36.36 0 .61-.16.7-.07.06-.12.06l-.59-.09c-.09 0-.09-.09-.08-.18z"
    fill="url(#N)"/>
  <path d="M69.4 68s.36.24.36.36a1.13 1.13 0 0 1-.16.7.86.86 0 0 1-.22-.56 2.41 2.41 0 0 1 .02-.5z" fill="url(#O)"/>
  <path d="M68.83 68.3a.14.14 0 0 1 .05-.1c.09-.07.17-.23.22-.23a3.08 3.08 0 0 1-.13.71c-.1.38-.18.42-.18.24z"
        fill="url(#P)"/>
  <path d="M54.75 66.35h.46" fill="#ee4051"/>
  <path d="M54.71 66.44a2.76 2.76 0 0 0 1.24.49 5 5 0 0 1-.57-.32c-.22-.18-.13-.24-.13-.24h-.5s-.09.02-.04.07z"
        fill="#c52b28"/>
  <path d="M54.65 62.91s-.36-.08-.38.18 0 2.62 0 2.86a.59.59 0 0 0 .34.47 1.45 1.45 0 0 0 .32 0H55s-.09-.06-.11-.29z"
        fill="#cda42b"/>
  <path
    d="M54.59 62.9s-.26 0-.28.19 0 2.65 0 2.84a.64.64 0 0 0 .33.47 1.55 1.55 0 0 0 .36 0s-.12 0-.14-.29-.27-3.21-.27-3.21z"
    fill="#e7b620"/>
  <path d="M55 66.35c-.07-.07-.21-.07-.23-.29s-.16-2-.2-3.14h-.07V66a.47.47 0 0 0 .07.25 1.18 1.18 0 0 0 .43.1z"
        fill="#fff"/>
  <path d="M55.13 66.36c-.1 0-.2-.1-.24-.37s-.23-3.08-.23-3.08h-.08V66a.43.43 0 0 0 .08.24c.09.11.48.13.47.12z"
        fill="#c52b28"/>
  <path
    d="M54.29 65.56v.07h.51a4.87 4.87 0 0 0 0 .5.31.31 0 0 0 .1.16.75.75 0 0 1-.41 0 .44.44 0 0 1-.25-.33 2.52 2.52 0 0 1 .05-.4z"
    fill="url(#Q)"/>
  <path d="M86.07 68.09c-.3 0-30.56-1.66-31.12-1.68-.75 0-.64-.6-.64-.61l.05.19c.05.11.06.32.62.38s30.73 1.54 31 1.55z"
        fill="url(#R)"/>
  <ellipse cx="71.94" cy="67.31" rx=".12" ry="2.95" transform="rotate(-87 71.95 67.31)" fill="url(#S)"/>
  <path
    d="M86.39 64.62l.09-.08a.11.11 0 0 0 0-.08v-.7s0-.06-.06 0a.3.3 0 0 0-.09.19v.62c0 .05.04.07.06.05zm-.31.22l.08-.07a.12.12 0 0 0 0-.08V64a.31.31 0 0 0-.08.19v.61c-.08.03-.03.06 0 .04zm-.34.28l.08-.07a.11.11 0 0 0 0-.08v-.63a.31.31 0 0 0-.08.19v.55c-.05.04-.02.06 0 .04zm-.3.24l.07-.07a.11.11 0 0 0 0-.08v-.63a.29.29 0 0 0-.07.18v.55c-.05.04-.02.07 0 .05zm-.27.2l.06-.05a.1.1 0 0 0 0-.07v-.59a.26.26 0 0 0-.06.16v.52s-.02.04 0 .03zm-.24.2l.06-.05a.1.1 0 0 0 0-.07v-.59a.25.25 0 0 0-.06.16v.52s-.02.04 0 .03z"
    fill="#6d77ae" stroke="#909dc4" stroke-miterlimit="10" stroke-width=".5"/>
  <path
    d="M85.17 65.56l.06-.05a.1.1 0 0 0 0-.07v-.59a.26.26 0 0 0-.06.16v.52s-.02.04 0 .03zm-.24.2l.06-.05a.1.1 0 0 0 0-.07v-.59a.25.25 0 0 0-.06.16v.52s-.02.04 0 .03zm-.28.24l.06-.05a.1.1 0 0 0 0-.07v-.59a.25.25 0 0 0-.06.16V66s-.02 0 0 0z"
    fill="#6d77ae" stroke="#909dc4" stroke-miterlimit="10" stroke-width=".5"/>
  <path
    d="M84.65 66l.06-.05a.1.1 0 0 0 0-.07v-.59a.25.25 0 0 0-.06.16V66s-.02 0 0 0zm-.25.21l.06-.05a.1.1 0 0 0 0-.07v-.6a.26.26 0 0 0-.06.16v.53s-.01.05 0 .03z"
    fill="#6d77ae" stroke="#909dc4" stroke-miterlimit="10" stroke-width=".5"/>
  <path
    d="M84.4 66.21l.06-.05a.1.1 0 0 0 0-.07v-.6a.26.26 0 0 0-.06.16v.53s-.01.05 0 .03zm-.25.2l.06-.05a.09.09 0 0 0 0-.07v-.59a.25.25 0 0 0-.06.16v.52s-.02.04 0 .03zm-.25.19l.06-.05a.09.09 0 0 0 0-.06v-.57a.24.24 0 0 0-.06.15v.5s-.01.04 0 .03zm-.21.18h.05a.09.09 0 0 0 0-.06v-.55a.24.24 0 0 0-.06.15v.49l.01-.03zm-.19.16a.09.09 0 0 0 0-.06v-.54a.24.24 0 0 0-.05.14V67s.03 0 .05-.06zm-.19.15h.05a.09.09 0 0 0 0-.06v-.54a.24.24 0 0 0-.05.14v.48s-.02-.01 0-.02zm-.16.11a.09.09 0 0 0 0-.06v-.52a.25.25 0 0 0 0 .14v.44zm-.59.08v-.14a.26.26 0 0 0 0 .13zm.16 0V67a.26.26 0 0 0 0 .13v.16zm.14 0v-.44a.26.26 0 0 0 0 .13v.32zm.14 0a.1.1 0 0 0 0-.06v-.5a.26.26 0 0 0 0 .13v.44z"
    fill="#6d77ae" stroke="#909dc4" stroke-miterlimit="10" stroke-width=".5"/>
  <path
    d="M92.88 57.71l-.48.38s-.07.09-.41.62l-.22.17-.31.61.15-.12a4.09 4.09 0 0 0-.33 1.63c0 .64.32.49.43.41a1.28 1.28 0 0 0 .21-.23v-.76s-.26.27-.27.16A4 4 0 0 1 92 59.1l.37-.3.38-.71-.36.29a6.13 6.13 0 0 1 .49-.67z"
    fill="#fff"/>
  <path
    d="M91.61 58.88l-.32.71a.32.32 0 0 0-.35.18c-.15.24-.13.37 0 .38s.17 0 .22.24A4 4 0 0 1 91 61.7c-.12.4-.47.66-.72.5v-.7a.64.64 0 0 0 .38-.11c.15-.14.19-.51.05-.55s-.24-.27-.16-.55a2 2 0 0 1 .47-.91 1.7 1.7 0 0 1 .59-.5zm-1.39 2.35l-.57.45V62s.15 0 .43-.43v.73s-.22.52-.42.58-.31-.23-.31-.59a5 5 0 0 1 .43-1.6 2.14 2.14 0 0 1 .69-.94c.21-.13 0 .38-.05.58a5.19 5.19 0 0 0-.2.9zm-.12-.79a4.22 4.22 0 0 0-.32.64l.27-.2s.1-.35.05-.43z"
    fill="#fff"/>
  <rect x="90.22" y="61.14" height=".01" fill="#fff"/>
  <path
    d="M89.88 60.28a6.88 6.88 0 0 0-.64 1.49 8.24 8.24 0 0 0-.24 1.58l-.29.23a7.25 7.25 0 0 1 0-1.52 9.39 9.39 0 0 0-.26 1.69l-.23.18a6 6 0 0 1 .37-2.59l.24-.2a6.32 6.32 0 0 0-.37 1.12l.6-1.32.26-.22a2.82 2.82 0 0 0-.32 1s.4-1 .55-1.25z"
    fill="#fff"/>
  <path
    d="M88.51 61.32a2.75 2.75 0 0 0-.35.57s.12-.18.19-.18 0 .15 0 .37a6.49 6.49 0 0 0-.25 2l-.22.15A8.8 8.8 0 0 1 88 62.6a1.22 1.22 0 0 0 0-.21c0-.15-.08-.1-.12 0a3.33 3.33 0 0 0-.09.33 6.93 6.93 0 0 0-.15 1.61l-.24.18a5.81 5.81 0 0 1 .29-2 5.59 5.59 0 0 1 .51-1z"
    fill="#fff"/>
  <path
    d="M87.86 61.86l-.26.23a2.72 2.72 0 0 0-.18.37l-.13.1a3.81 3.81 0 0 0-.15.37l.11-.1a5.7 5.7 0 0 0-.33 1.23c0 .5-.06.83.09.8s.26-.3.26-.3v-.66s-.15.21-.14.06a7.26 7.26 0 0 1 .27-1.24l.19-.15a3.68 3.68 0 0 1 .19-.42l-.18.17a3.64 3.64 0 0 1 .26-.46zm-.72.81l-.21.19s-.15.45-.26.86a4.75 4.75 0 0 1-.21.89c-.09.09 0-.42 0-.81a3.9 3.9 0 0 1 .3-.84l-.16.15a4 4 0 0 0-.36 1c-.13.62-.12 1.33.14 1.15s.24-.35.29-.85a5.79 5.79 0 0 1 .47-1.74zm-1.23 1.14s.06-.11 0-.14-.31.14-.54.46a1 1 0 0 0-.23.53c0 .23.13.25.13.36a1.37 1.37 0 0 1-.22.78.17.17 0 0 1-.21 0v.54a.24.24 0 0 0 .33-.07 3.21 3.21 0 0 0 .28-1.18c0-.47 0-.43-.08-.51s0-.34.17-.52.16-.1.15 0z"
    fill="#fff"/>
  <path
    d="M85.63 64.76a2.39 2.39 0 0 1 .66-1.35c.18-.15 0 .17-.11.75s-.18 1.48-.39 1.63-.31-.35-.16-1.03zm.21-.32c-.14.43-.11.66-.07.67s.07-.11.2-.64c.06-.25.15-.5.08-.45a1.08 1.08 0 0 0-.21.42z"
    fill="#fff"/>
  <path
    d="M104 56.09V56c-.39-.07-.81-.13-1.27-.18-2.36-.22-5.48.56-5.56 1.26s.17 3 4.13 1.74c2.54-.8 5-1 5.45-1.19-.55-1.28-2.75-1.54-2.75-1.54z"
    fill="url(#T)"/>
  <path
    d="M95.43 56.32a.07.07 0 0 0 0-.09c-.28.15-.73.39-.71.39s-.61.24-1 2.09a6 6 0 0 0 0 2.66.2.2 0 0 0 .24.15l.67-.38a.2.2 0 0 0 .1-.2 11.78 11.78 0 0 1 .06-2.73 6.4 6.4 0 0 1 .64-1.89z"
    fill="none" stroke="#000" stroke-miterlimit="10" stroke-width=".015"/>
  <path
    d="M93.7 57.72a.11.11 0 0 0-.13-.07h-.08a.56.56 0 0 0-.18.17.21.21 0 0 0-.17 0l-.09.07a.61.61 0 0 0-.14.23.48.48 0 0 0 0 .2c0 .07 0 .23.39.25a1.66 1.66 0 0 0 .43-.75.3.3 0 0 0-.03-.1z"
    fill="url(#U)"/>
  <path d="M93.57 57.69h-.08a.48.48 0 0 0-.14.13h.35s-.02-.16-.13-.13z" fill="url(#V)"/>
  <path d="M93.49 58.34a1.32 1.32 0 0 0 .19-.38l-.37-.07h-.06a.24.24 0 0 0-.12 0l-.08.06a.56.56 0 0 0-.13.23z"
        fill="url(#W)"/>
  <path d="M92.92 58.27a.35.35 0 0 0 0 .12c0 .06 0 .22.37.24l.17-.23z" fill="url(#X)"/>
  <ellipse cx="94.37" cy="57.74" rx=".27" ry=".17" transform="rotate(-72 94.37 57.74)" fill="#7589b8"/>
  <path
    d="M102.17 55.1l-2.88.29-2.29.91s-.47 1.08-.43 1 1.45.07 1.45.07 1.52-1.1 1.56-1.09 3.34-.37 3.34-.37a10.86 10.86 0 0 0 1.1.12l-.41-.42z"
    fill="#99a1b4"/>
  <path d="M102.92 56a10.86 10.86 0 0 0 1.1.12l-.41-.42-1.44-.55z" fill="url(#e)"/>
  <path d="M102.17 55.1l-2.88.29s.27.93.3.94 3.34-.37 3.34-.37z" fill="url(#Y)"/>
  <path d="M98.11 55.85l-1.1.44s-.47 1.08-.43 1.05 1.45.07 1.45.07z" fill="url(#Z)"/>
  <path d="M98 56l-.11 1.22h-1.15l.33-.83L98 56" style="isolation:isolate" fill="#0f1230" opacity=".81"/>
  <path d="M98 56.07l-.1 1.13-1.05-.06.29-.75.85-.32" style="isolation:isolate" fill="#4a578e" opacity=".81"/>
  <path d="M98 56.07l-.1 1.13-1.05-.06.29-.75.85-.32" style="isolation:isolate" opacity=".81" fill="url(#aa)"/>
  <path d="M98.25 55.91l.95-.39.22.73-1.19.81v-1.15" style="isolation:isolate" fill="#0f1230" opacity=".81"/>
  <path d="M98.3 55.94l.88-.39.21.71-1.11.74v-1.06" style="isolation:isolate" opacity=".81" fill="url(#f)"/>
  <path d="M99.48 55.47l2.6-.25.53.61-2.89.33-.24-.69" style="isolation:isolate" fill="#0f1230" opacity=".81"/>
  <path d="M99.51 55.5l2.56-.27.49.58-2.83.32-.22-.63" style="isolation:isolate" opacity=".81" fill="url(#ab)"/>
  <path d="M102.37 55.24l.53.59.94.14-.25-.27z" style="isolation:isolate" fill="#0f1230" opacity=".81"/>
  <path d="M102.44 55.29l.47.52.88.14-.22-.24z" style="isolation:isolate" opacity=".81" fill="url(#ac)"/>
  <path d="M101.55 56h-.08l-.07-.17h.05l.09.14" fill="#353e66"/>
  <path d="M101.55 56h-.07l-.07-.15h.05l.09.15" fill="#404c7a"/>
  <path d="M100.2 55.86h1.54-1.54z" fill="#343b64"/>
  <path d="M100.2 55.85h1.54-1.54z" style="isolation:isolate" opacity=".81" fill="url(#g)"/>
  <path d="M103.16 56h.09l.06-.15h-.07l-.08.1" fill="#353e66"/>
  <path d="M103.16 55.93h.06l.06-.13h-.05l-.07.12" fill="#404c7a"/>
  <path d="M103 55.79l.72.11z" fill="#343b64"/>
  <path d="M103 55.77l.75.11-.75-.1" style="isolation:isolate" opacity=".81" fill="url(#ad)"/>
  <path
    d="M101.88 69.38a2 2 0 0 0-2.09-1.78 4 4 0 0 0-2 .41 5.27 5.27 0 0 0-1.95 1.41 1.63 1.63 0 0 0-.31 1.92 1.58 1.58 0 0 0 1.11.88.34.34 0 0 0 .27.16 8.52 8.52 0 0 0 2.71-.31c1.31-.37 2.46-.96 2.26-2.69z"
    fill="url(#ae)"/>
  <path d="M99.8 67.71s-1.1-.37-3.07 1c-1.49 1-1.27 2.06-1.27 2.06A8 8 0 0 1 98 69.7s.29-1.83 1.8-1.99z"
        fill="url(#af)"/>
  <path
    d="M101.88 69.38a2 2 0 0 0-2.09-1.78 4 4 0 0 0-2 .41 5.27 5.27 0 0 0-1.95 1.41 1.63 1.63 0 0 0-.31 1.92 1.58 1.58 0 0 0 1.11.88.34.34 0 0 0 .27.16 8.52 8.52 0 0 0 2.71-.31c1.31-.37 2.46-.96 2.26-2.69z"
    fill="url(#ag)"/>
  <path
    d="M101.6 69.55c-.14-.66-3.2.1-4.62.83-.74.38-1.48.58-1.42.75a1.61 1.61 0 0 0 1.22 1.1s1 .48 3.34-.35c1.59-.56 1.74-1.11 1.48-2.33z"
    fill="url(#ah)"/>
  <path
    d="M101.91 69.71a1.83 1.83 0 0 1-1.74 1.92H100a1.86 1.86 0 0 1-2.16-1.94 1.92 1.92 0 0 1 1.83-2h.3a2 2 0 0 1 1.94 2.02z"
    fill="url(#j)"/>
  <ellipse cx="99.37" cy="69.76" rx=".42" ry=".45" fill="none" stroke="#221f1f" stroke-miterlimit="10"
           stroke-width=".331643"/>
  <ellipse cx="99.37" cy="69.75" rx=".38" ry=".4" fill="none" stroke="#221f1f" stroke-miterlimit="10"
           stroke-width=".298479"/>
  <path
    d="M101.34 69.69a1.41 1.41 0 0 1-1.34 1.49h-.15a1.5 1.5 0 0 1-1.48-1.51 1.4 1.4 0 0 1 1-1.47 1.79 1.79 0 0 1 .43-.05 1.55 1.55 0 0 1 1.54 1.54z"
    fill="url(#h)"/>
  <path
    d="M101.34 69.69a1.41 1.41 0 0 1-1.34 1.49h-.15a1.5 1.5 0 0 1-1.48-1.51 1.4 1.4 0 0 1 1-1.47 1.79 1.79 0 0 1 .43-.05 1.55 1.55 0 0 1 1.54 1.54z"
    fill="url(#ai)"/>
  <path
    d="M100.67 69.72a1.54 1.54 0 0 1-.82 1.46 1.49 1.49 0 0 1-1.48-1.5 1.4 1.4 0 0 1 1-1.47 1.55 1.55 0 0 1 1.3 1.51z"
    fill="url(#k)"/>
  <path
    d="M100.09 71a1.6 1.6 0 0 0-.43-.74 1.89 1.89 0 0 1 .57.63 1.62 1.62 0 0 0-.54-.62 3.22 3.22 0 0 1 .7.36 3 3 0 0 0-.67-.38 3.7 3.7 0 0 1 .77.14 3.59 3.59 0 0 0-.73-.17 3.81 3.81 0 0 1 .79 0 3 3 0 0 0-.77 0 4.29 4.29 0 0 1 .73-.29 2.7 2.7 0 0 0-.75.25 4.67 4.67 0 0 1 .65-.52 3.27 3.27 0 0 0-.69.48 5.1 5.1 0 0 1 .56-.68 3.81 3.81 0 0 0-.62.67 5.74 5.74 0 0 1 .35-.86 3.51 3.51 0 0 0-.43.89 5.76 5.76 0 0 1 .05-1 3.87 3.87 0 0 0-.12 1 5.49 5.49 0 0 1-.14-.93 4.31 4.31 0 0 0 .09.94 4.71 4.71 0 0 1-.34-.74 4.65 4.65 0 0 0 .32.73 3.83 3.83 0 0 1-.51-.43 2.34 2.34 0 0 0 .47.43 3.38 3.38 0 0 1-.52-.27 2.65 2.65 0 0 0 .49.28 3.61 3.61 0 0 1-.52-.12 2.24 2.24 0 0 0 .49.13 2.58 2.58 0 0 1-.51 0h.51v.06l-.5.06a3.85 3.85 0 0 0 .5 0v.05l-.47.17a1.65 1.65 0 0 0 .46-.16 2.57 2.57 0 0 1-.41.31 1.65 1.65 0 0 0 .45-.29 2.53 2.53 0 0 1-.31.48 3.18 3.18 0 0 0 .36-.45 4.46 4.46 0 0 1-.23.6 1.58 1.58 0 0 0 .24-.58 2.19 2.19 0 0 1-.07.71 2.63 2.63 0 0 0 .11-.74h.07a3.4 3.4 0 0 1 .06.81 1.61 1.61 0 0 0-.06-.85 1.91 1.91 0 0 1 .32.9h.05a1.73 1.73 0 0 0-.28-.93h.06a1.94 1.94 0 0 1 .4.67z"
    fill="url(#l)"/>
  <path
    d="M99.82 71.19a1.58 1.58 0 0 0 .78-1.39 1.53 1.53 0 0 0-1.23-1.55h.11a1.61 1.61 0 0 1 1.19 1.6 1.66 1.66 0 0 1-.74 1.4z"
    stroke="#1b1c1c" stroke-miterlimit="10" stroke-width=".75" fill="url(#m)"/>
  <path
    d="M100 67.91a2.11 2.11 0 0 0-.5.06 1.64 1.64 0 0 0-1.21 1.72 1.75 1.75 0 0 0 1.71 1.76 1.65 1.65 0 0 0 1.74-1.74 1.81 1.81 0 0 0-1.74-1.8zm.1 3.46a1.66 1.66 0 0 1-1.66-1.66 1.58 1.58 0 0 1 1.15-1.64A2 2 0 0 1 100 68a1.73 1.73 0 0 1 1.68 1.71 1.57 1.57 0 0 1-1.48 1.66h-.1z"
    fill="url(#n)"/>
  <g opacity=".64">
    <path d="M100.83 70.67c0 .13.35-.45-.07-.62a1.9 1.9 0 0 1-.1.36c.07.05.19.16.17.26z" fill="url(#i)"/>
    <path d="M100.78 70a.3.3 0 0 1 .27.25c0 .12.15-.54-.26-.61v.13a2.07 2.07 0 0 1-.01.23z" fill="url(#aj)"/>
    <path d="M100.4 71a1.52 1.52 0 0 0 .26-.14.32.32 0 0 0 0-.36 1.56 1.56 0 0 1-.21.35.16.16 0 0 1-.05.15z"
          fill="url(#ak)"/>
    <path d="M100.7 69.14a2 2 0 0 1 .07.33.51.51 0 0 1 .37.23c.06.14-.06-.54-.44-.56z" fill="url(#al)"/>
    <path d="M101.09 69.23s-.13-.45-.51-.4a1.72 1.72 0 0 1 .1.23.5.5 0 0 1 .41.17z" fill="url(#am)"/>
    <path d="M100.87 68.79a.57.57 0 0 0-.45-.21l.12.17a.44.44 0 0 1 .33.04z" fill="url(#an)"/>
  </g>
  <path
    d="M101.72 69.71a1.65 1.65 0 0 1-1.56 1.74H100a1.75 1.75 0 0 1-1.74-1.76 1.64 1.64 0 0 1 1.2-1.69 2.11 2.11 0 0 1 .5-.06 1.81 1.81 0 0 1 1.76 1.77zm-1.89-1.56a1.78 1.78 0 0 0-.43.05 1.54 1.54 0 0 0 .45 3 1.41 1.41 0 0 0 1.48-1.49 1.55 1.55 0 0 0-1.49-1.56z"
    fill="url(#o)"/>
  <path
    d="M101.91 69.71a1.83 1.83 0 0 1-1.74 1.92H100a1.86 1.86 0 0 1-2.16-1.94 1.92 1.92 0 0 1 1.83-2h.3a2 2 0 0 1 1.94 2.02zm-2-1.8a2.11 2.11 0 0 0-.5.06 1.64 1.64 0 0 0-1.21 1.72 1.75 1.75 0 0 0 1.74 1.76h.06a1.65 1.65 0 0 0 1.74-1.74 1.81 1.81 0 0 0-1.74-1.8z"
    fill="url(#ao)"/>
  <path d="M100 67.69a1.92 1.92 0 0 0-2.13 2 1.86 1.86 0 0 0 2.13 1.94 1.81 1.81 0 0 0 1.89-1.92 2 2 0 0 0-1.89-2.02z"
        fill="url(#p)"/>
  <path
    d="M101.88 69.71a1.77 1.77 0 0 1-1.64 1.89H100c-1.54 0-2.18-.84-2.18-1.91 0-.18.35-.38.4-.57a1.72 1.72 0 0 1 1.78-1.3 1.84 1.84 0 0 1 1.88 1.8v.09zm-1.88-1.8a2.07 2.07 0 0 0-.5.06 1.64 1.64 0 0 0-1.21 1.72 1.75 1.75 0 0 0 1.71 1.76 1.66 1.66 0 0 0 1.74-1.58v-.16a1.9 1.9 0 0 0-1.74-1.8z"
    fill="url(#q)"/>
  <path
    d="M101.88 69.71a1.82 1.82 0 0 1-1.74 1.9H100a1.86 1.86 0 0 1-2.18-2.07c.05-.28.21-.21.3-.46a1.63 1.63 0 0 1 1.24-1.22 3 3 0 0 1 .61-.06 2 2 0 0 1 1.91 1.91zM100 68a1.66 1.66 0 0 0-.47 0 1.53 1.53 0 0 0-1.22 1.61 1.71 1.71 0 0 0 1.64 1.78h.05a1.5 1.5 0 0 0 1.63-1.65A1.77 1.77 0 0 0 100 68z"
    style="isolation:isolate" opacity=".53" fill="url(#ap)"/>
  <ellipse cx="99.04" cy="68.01" rx=".7" ry=".2" transform="rotate(-25 99.05 68.01)" fill="url(#r)"/>
  <circle cx="99.4" cy="69.63" r=".53" fill="url(#s)"/>
  <path d="M99.4 69.07a.56.56 0 1 0 .56.56.57.57 0 0 0-.56-.56zm0 1.06a.5.5 0 1 1 .5-.5.5.5 0 0 1-.5.5z"
        fill="url(#t)"/>
  <circle cx="99.4" cy="69.63" r=".42" fill="url(#u)"/>
  <path d="M99 69.63a.38.38 0 0 0 .76 0H99z" fill="url(#v)"/>
  <path
    d="M99 69.54s0 .06.17.09a.91.91 0 0 0 .29 0c.1 0 .28 0 .29-.06s0 .22 0 .17-.08-.06-.27 0a1.22 1.22 0 0 1-.35 0 .16.16 0 0 0-.14 0s.01-.17.01-.2z"
    fill="url(#w)"/>
  <path
    d="M76.25 67.19a.91.91 0 0 1 .74.35c.27.33-.07.79 0 .77.61-.24 1-.71 1.55-.81a4.83 4.83 0 0 0-1-.36 3.68 3.68 0 0 0-1.29.05z"
    fill="url(#aq)"/>
  <path
    d="M81.38 69.31a2 2 0 0 0-2.13-1.87h-.06a4.18 4.18 0 0 0-2.05.44 5.53 5.53 0 0 0-2 1.48 1.72 1.72 0 0 0-.32 2 1.66 1.66 0 0 0 1.18.94.38.38 0 0 0 .28.17 8.63 8.63 0 0 0 2.85-.33c1.26-.39 2.46-1.01 2.25-2.83z"
    fill="url(#ar)"/>
  <path d="M79 67.66s-1.25-.31-3.2 1.06c-1.44 1-1.19 2.09-1.19 2.09a8.35 8.35 0 0 1 2.65-1.12s.14-1.85 1.74-2.03z"
        fill="url(#as)"/>
  <path
    d="M81.38 69.31a2 2 0 0 0-2.13-1.87h-.06a4.18 4.18 0 0 0-2.05.44 5.53 5.53 0 0 0-2 1.48 1.72 1.72 0 0 0-.32 2 1.66 1.66 0 0 0 1.18.94.38.38 0 0 0 .28.17 8.63 8.63 0 0 0 2.85-.33c1.26-.39 2.46-1.01 2.25-2.83z"
    fill="url(#at)"/>
  <path
    d="M81 69.46c0-.71-3.36.1-4.85.87-.77.4-1.56.61-1.49.79A1.69 1.69 0 0 0 76 72.28a8.64 8.64 0 0 0 3.43-.45A2.2 2.2 0 0 0 81 69.46z"
    fill="url(#au)"/>
  <path d="M81.41 69.66a1.92 1.92 0 0 1-1.84 2h-.16a2.07 2.07 0 1 1 0-4.1 2.15 2.15 0 0 1 2 2.1z" fill="url(#av)"/>
  <ellipse cx="78.75" cy="69.71" rx=".44" ry=".47" fill="none" stroke="#221f1f" stroke-miterlimit="10"
           stroke-width=".331643"/>
  <ellipse cx="78.75" cy="69.71" rx=".4" ry=".42" fill="none" stroke="#221f1f" stroke-miterlimit="10"
           stroke-width=".298479"/>
  <path
    d="M80.81 69.64a1.48 1.48 0 0 1-1.38 1.57h-.18a1.57 1.57 0 0 1-1.56-1.58 1.47 1.47 0 0 1 1.08-1.55 1.88 1.88 0 0 1 .45-.05 1.63 1.63 0 0 1 1.59 1.61z"
    fill="url(#aw)"/>
  <path
    d="M80.81 69.64a1.48 1.48 0 0 1-1.38 1.57h-.18a1.57 1.57 0 0 1-1.56-1.58 1.47 1.47 0 0 1 1.08-1.55 1.88 1.88 0 0 1 .45-.05 1.63 1.63 0 0 1 1.59 1.61z"
    fill="url(#ax)"/>
  <path
    d="M80.12 69.67a1.62 1.62 0 0 1-.86 1.54 1.56 1.56 0 0 1-1.56-1.56 1.47 1.47 0 0 1 1.08-1.55 1.63 1.63 0 0 1 1.34 1.57z"
    fill="url(#ay)"/>
  <path
    d="M79.5 71a1.68 1.68 0 0 0-.45-.78 2 2 0 0 1 .6.66 1.7 1.7 0 0 0-.56-.66 3.39 3.39 0 0 1 .74.37 3.19 3.19 0 0 0-.71-.4 3.89 3.89 0 0 1 .8.15 3.76 3.76 0 0 0-.76-.18 4 4 0 0 1 .83 0 3.14 3.14 0 0 0-.81 0 4.51 4.51 0 0 1 .77-.31 2.83 2.83 0 0 0-.79.26 4.91 4.91 0 0 1 .68-.54 3.43 3.43 0 0 0-.72.5 5.35 5.35 0 0 1 .59-.71 4 4 0 0 0-.65.7 6 6 0 0 1 .37-.9 3.69 3.69 0 0 0-.45.93 6 6 0 0 1 .06-1 4.06 4.06 0 0 0-.13 1.07 5.76 5.76 0 0 1-.15-1 4.52 4.52 0 0 0 .1 1 4.94 4.94 0 0 1-.36-.78 4.88 4.88 0 0 0 .33.77 4 4 0 0 1-.53-.45 2.46 2.46 0 0 0 .49.45 3.55 3.55 0 0 1-.55-.28 2.78 2.78 0 0 0 .51.3 3.79 3.79 0 0 1-.55-.12 2.35 2.35 0 0 0 .52.14 2.7 2.7 0 0 1-.54 0 1.94 1.94 0 0 1 .54.05c.09.05 0 0 0 .06l-.53.06a4 4 0 0 0 .52 0v.06l-.49.18a1.74 1.74 0 0 0 .48-.17 2.69 2.69 0 0 1-.43.33 1.73 1.73 0 0 0 .47-.31 2.65 2.65 0 0 1-.33.5 3.34 3.34 0 0 0 .37-.48 4.68 4.68 0 0 1-.24.63 1.66 1.66 0 0 0 .25-.61 2.3 2.3 0 0 1-.07.74 2.76 2.76 0 0 0 .11-.77h.07a3.57 3.57 0 0 1 .06.85 1.69 1.69 0 0 0-.06-.9 2 2 0 0 1 .34.94h.06a1.81 1.81 0 0 0-.3-1 2 2 0 0 1 .5.65z"
    fill="url(#az)"/>
  <path
    d="M79.21 71.21a1.66 1.66 0 0 0 .79-1.46 1.61 1.61 0 0 0-1.3-1.62h.12a1.69 1.69 0 0 1 1.25 1.68 1.74 1.74 0 0 1-.78 1.47z"
    stroke="#1b1c1c" stroke-miterlimit="10" stroke-width=".75" fill="url(#aA)"/>
  <path
    d="M79.36 67.77a2.22 2.22 0 0 0-.53.06 1.72 1.72 0 0 0-1.27 1.8 1.84 1.84 0 0 0 1.82 1.85 1.73 1.73 0 0 0 1.82-1.83 1.9 1.9 0 0 0-1.84-1.88zm.1 3.63a1.75 1.75 0 0 1-1.74-1.76 1.66 1.66 0 0 1 1.21-1.72 2.08 2.08 0 0 1 .5-.06 1.81 1.81 0 0 1 1.76 1.8 1.65 1.65 0 0 1-1.56 1.74z"
    fill="url(#aB)"/>
  <g opacity=".64">
    <path d="M80.28 70.67c0 .13.37-.47-.07-.65a2 2 0 0 1-.1.38c.06.05.19.16.17.27z" fill="url(#aC)"/>
    <path d="M80.22 69.91a.32.32 0 0 1 .28.26c0 .13.16-.56-.27-.64v.14a2.18 2.18 0 0 1-.01.24z" fill="url(#aD)"/>
    <path d="M79.82 71a1.59 1.59 0 0 0 .27-.15.33.33 0 0 0 0-.37 1.64 1.64 0 0 1-.22.37.17.17 0 0 1-.05.15z"
          fill="url(#aE)"/>
    <path d="M80.15 69.06a2 2 0 0 1 .07.35.54.54 0 0 1 .39.24c.07.15-.07-.56-.46-.59z" fill="url(#aF)"/>
    <path d="M80.55 69.16s-.14-.47-.54-.42a1.81 1.81 0 0 1 .1.24.53.53 0 0 1 .44.18z" fill="url(#aG)"/>
    <path d="M80.32 68.7a.6.6 0 0 0-.47-.22l.12.18a.46.46 0 0 1 .35.04z" fill="url(#aH)"/>
  </g>
  <path
    d="M81.21 69.66a1.73 1.73 0 0 1-1.62 1.83h-.2a1.84 1.84 0 0 1-1.82-1.85 1.72 1.72 0 0 1 1.27-1.8 2.22 2.22 0 0 1 .53-.06 1.9 1.9 0 0 1 1.84 1.88zm-2-1.64a1.87 1.87 0 0 0-.45.05 1.62 1.62 0 0 0 .47 3.13 1.48 1.48 0 0 0 1.56-1.57A1.63 1.63 0 0 0 79.23 68z"
    fill="url(#aI)"/>
  <path
    d="M81.43 69.69a1.92 1.92 0 0 1-1.84 2h-.16a2.07 2.07 0 1 1 0-4.1 2.15 2.15 0 0 1 2 2.1zm-2-1.89a2.22 2.22 0 0 0-.53.06 1.72 1.72 0 0 0-1.27 1.8 1.82 1.82 0 0 0 1.8 1.82 1.73 1.73 0 0 0 1.82-1.83 1.91 1.91 0 0 0-1.87-1.84z"
    fill="url(#aJ)"/>
  <path d="M79.37 67.54a2.06 2.06 0 1 0-.26 4.12h.29a1.89 1.89 0 0 0 2-2 2.14 2.14 0 0 0-2.03-2.12z" fill="url(#aK)"/>
  <path
    d="M81.41 69.66a1.92 1.92 0 0 1-1.84 2h-.16a2 2 0 0 1-2.3-2.07c0-.19.36-.4.42-.6a1.81 1.81 0 0 1 1.9-1.36 2 2 0 0 1 2 2zm-2-1.89a2.17 2.17 0 0 0-.53.06 1.72 1.72 0 0 0-1.27 1.8 1.85 1.85 0 0 0 1.82 1.85 1.74 1.74 0 0 0 1.82-1.83 2 2 0 0 0-1.89-1.88z"
    fill="url(#aL)"/>
  <path
    d="M81.39 69.66a1.91 1.91 0 0 1-1.82 2h-.12a2 2 0 0 1-2.29-2.18c.06-.29.22-.22.31-.48a1.72 1.72 0 0 1 1.3-1.28 3.17 3.17 0 0 1 .64-.06 2 2 0 0 1 1.98 2zm-2-1.8a1.74 1.74 0 0 0-.5 0 1.61 1.61 0 0 0-1.28 1.69 1.75 1.75 0 0 0 1.59 1.89h.18a1.69 1.69 0 0 0 1.78-1.8 1.92 1.92 0 0 0-1.74-1.8z"
    style="isolation:isolate" opacity=".53" fill="url(#aM)"/>
  <ellipse cx="78.4" cy="67.86" rx=".74" ry=".21" transform="rotate(-25 78.4 67.85)" fill="url(#aN)"/>
  <circle cx="78.78" cy="69.58" r=".56" fill="url(#aO)"/>
  <path d="M78.78 69a.59.59 0 1 0 .59.59.59.59 0 0 0-.59-.59zm0 1.12a.52.52 0 1 1 .52-.52.52.52 0 0 1-.52.5z"
        fill="url(#aP)"/>
  <circle cx="78.78" cy="69.58" r=".44" fill="url(#aQ)"/>
  <path d="M78.38 69.58a.4.4 0 0 0 .8 0h-.8z" fill="url(#aR)"/>
  <path
    d="M78.41 69.48s0 .07.18.1a1 1 0 0 0 .31 0c.11 0 .3 0 .3-.06v.18a.36.36 0 0 0-.29 0 1.29 1.29 0 0 1-.37 0 .17.17 0 0 0-.15 0 1 1 0 0 1 .02-.22z"
    fill="url(#aS)"/>
  <path
    d="M96.14 67.6a6.46 6.46 0 0 0-2.28-.47c-.36.12-.08.4.23.59a8.6 8.6 0 0 0 .92.46 3.67 3.67 0 0 0 .81-.11l1.18-.43.39-.14a3.54 3.54 0 0 0-1.25.1z"
    fill="#d9d8d9"/>
  <path d="M97.07 67.62h.09l.15-.05a4.22 4.22 0 0 0-1.09.1 3.86 3.86 0 0 0 .52 0z" fill="url(#aT)"/>
  <path d="M97 67.65l-.53.19a3 3 0 0 1-.86 0 5.63 5.63 0 0 1-1.61-.65 5.91 5.91 0 0 1 2.17.45 2.4 2.4 0 0 0 .83.01z"
        fill="url(#aU)"/>
  <path
    d="M96.32 67.89L96 68a5.2 5.2 0 0 1-1 .14 7.8 7.8 0 0 1-.86-.41c-.27-.17-.52-.41-.26-.53a5.29 5.29 0 0 0 1.55.67 2.51 2.51 0 0 0 .89.02z"
    fill="url(#aV)"/>
</svg>
