<svg xmlns="http://www.w3.org/2000/svg" height="576" width="576"><path class="st0" d="M467.693 168.786c40.833-40.834 40.833-70.858 40.833-81.667 0 0 0-9.608-3.603-13.211-3.603-3.603-13.21-3.603-13.21-3.603-9.608 0-40.834 0-81.668 42.035l-68.456 68.456-217.378-57.647c-10.81-3.603-18.015 3.602-18.015 3.602l-28.824 28.824L264.726 257.66l-25.22 25.22c-14.413 13.212-28.824 33.628-42.035 51.643l-64.854-8.407c-13.21-2.402-20.416 6.005-20.416 6.005l-28.824 28.824 75.662 34.828c-9.608 18.015-7.206 31.226-7.206 31.226v1.201h1.201s13.211 2.402 31.226-7.206l33.627 75.662 28.824-28.823s7.206-7.206 6.005-20.417l-7.206-66.054c18.015-13.211 38.432-28.824 51.643-42.035l25.22-25.22L423.256 502.66l28.824-28.823s7.206-7.206 4.804-18.015l-57.648-217.379 68.457-69.657z"/></svg>