<svg xmlns="http://www.w3.org/2000/svg" height="576" width="576"><path class="st0" d="M113.697 170.303C72.864 129.47 72.864 99.445 72.864 88.636c0 0 0-9.608 3.603-13.21 3.602-3.604 13.21-3.604 13.21-3.604 9.608 0 40.834 0 81.667 42.035l68.457 68.456 217.378-57.647c10.81-3.603 18.015 3.603 18.015 3.603l28.824 28.823-187.354 102.084 25.22 25.221c14.412 13.21 28.824 33.628 42.035 51.642l64.853-8.406c13.211-2.402 20.417 6.005 20.417 6.005l28.824 28.823-75.662 34.829c9.608 18.015 7.206 31.225 7.206 31.225v1.201h-1.201s-13.211 2.402-31.226-7.205l-33.628 75.662-28.823-28.824s-7.206-7.206-6.005-20.417l7.206-66.054c-18.015-13.21-38.432-28.824-51.643-42.035l-25.22-25.22-100.883 188.555-28.824-28.824s-7.206-7.206-4.804-18.015l57.647-217.378-68.456-69.658z"/></svg>