<svg xmlns="http://www.w3.org/2000/svg" height="576" width="576"><path class="st0" d="M444.055 325.821c55.989 0 76.573-20.584 83.983-27.994 0 0 6.587-6.587 6.587-11.527 0-4.94-6.587-11.527-6.587-11.527-6.587-6.587-27.994-27.994-84.806-27.17h-93.863L239.862 59.052c-4.94-9.88-14.82-9.88-14.82-9.88H185.52l58.459 198.43h-34.581c-18.938-.824-42.815 3.293-64.222 6.586l-38.698-50.225c-7.41-10.703-18.114-9.88-18.114-9.88H48.843l27.994 75.749C57.9 275.596 50.489 286.3 50.489 286.3l-.823.824.823.823s7.41 10.704 26.348 16.467L48.019 379.34H87.54s9.88 0 18.114-9.88L146 319.235c21.407 3.293 46.108 6.586 64.222 6.586h34.581l-60.105 198.43h39.521s9.88 0 15.644-9.057l109.507-188.55 94.686-.823z"/></svg>