<svg height="576" width="576" xmlns="http://www.w3.org/2000/svg"><path d="M179.538 79.688c5.466 0 9.637 1.434 12.504 4.304 2.871 2.867 4.304 7.034 4.304 12.5v33.202c0 5.466-1.434 9.633-4.304 12.504-2.867 2.868-6.967 4.301-12.299 4.301-5.333 0-9.429-1.434-12.293-4.301-2.864-2.871-4.301-7.038-4.304-12.504V96.493c0-5.466 1.434-9.633 4.304-12.5 2.866-2.871 6.896-4.305 12.088-4.305zm216.841 0c5.191 0 9.291 1.434 12.293 4.304 3.001 2.867 4.509 7.034 4.509 12.5v33.202c0 5.466-1.501 9.633-4.509 12.504-3.008 2.868-7.102 4.301-12.293 4.301-5.192 0-9.216-1.434-12.09-4.301-2.873-2.871-4.444-7.038-4.713-12.504V96.493c.269-5.466 1.84-9.633 4.713-12.5 2.868-2.871 6.898-4.305 12.09-4.305zm86.902 26.643h-43.445v21.723c0 13.938-3.832 24.663-11.482 32.18s-18.238 11.274-31.765 11.274c-13.525 0-24.12-3.758-31.771-11.274s-11.616-18.242-11.885-32.18v-21.723H222.985v21.723c0 13.938-3.825 24.663-11.476 32.18s-18.242 11.274-31.768 11.274c-13.529 0-24.117-3.758-31.768-11.274-7.654-7.517-11.479-18.242-11.479-32.18v-21.723H93.05c-6.833 0-12.163 1.843-15.991 5.53-3.829 3.688-5.741 9.088-5.741 16.192v343.098c.274 7.376 2.666 13.386 7.175 18.034 4.505 4.649 10.176 7.102 17.01 7.376h385.319c6.833-.274 12.504-2.733 17.013-7.376 4.502-4.643 6.896-10.652 7.165-18.034V128.054c0-7.104-1.909-12.504-5.734-16.192-3.832-3.688-9.158-5.53-15.991-5.53h.006zm-21.725 346.786H114.773V214.55h346.783zm-46.728-28.284h-36.899c-5.466 0-9.834-1.577-13.117-4.72-3.275-3.142-4.917-7.715-4.917-13.73V369.9c0-6.01 1.642-10.588 4.917-13.73 3.283-3.148 7.651-4.719 13.117-4.719h36.899c5.734 0 10.18 1.57 13.321 4.719 3.142 3.143 4.854 7.721 5.122 13.73v36.483c-.269 6.016-1.98 10.589-5.122 13.73-3.141 3.143-7.587 4.72-13.321 4.72zm0-103.296h-36.899c-5.466 0-9.834-1.571-13.117-4.713-3.275-3.148-4.917-7.587-4.917-13.321v-36.899c0-5.738 1.642-10.176 4.917-13.321 3.283-3.142 7.651-4.85 13.117-5.125h36.899c5.734.275 10.18 1.983 13.321 5.125 3.142 3.146 4.854 7.583 5.122 13.321v36.899c-.269 5.734-1.98 10.173-5.122 13.321-3.141 3.142-7.587 4.713-13.321 4.713zm-108.22 103.296H269.71c-5.738 0-10.177-1.577-13.322-4.72-3.142-3.142-4.85-7.715-5.125-13.73V369.9c.274-6.01 1.982-10.588 5.125-13.73 3.145-3.148 7.583-4.719 13.322-4.719h36.898c5.735 0 10.174 1.57 13.321 4.719 3.143 3.143 4.714 7.721 4.714 13.73v36.483c0 6.016-1.571 10.589-4.714 13.73-3.147 3.143-7.585 4.72-13.321 4.72zm0-103.296H269.71c-5.738 0-10.177-1.571-13.322-4.713-3.142-3.148-4.85-7.587-5.125-13.321v-36.899c.274-5.738 1.982-10.176 5.125-13.321 3.145-3.142 7.583-4.85 13.322-5.125h36.898c5.735.275 10.174 1.983 13.321 5.125 3.143 3.146 4.714 7.583 4.714 13.321v36.899c0 5.734-1.571 10.173-4.714 13.321-3.147 3.142-7.585 4.713-13.321 4.713zM197.98 424.833h-36.483c-5.738 0-10.247-1.577-13.529-4.72-3.282-3.142-4.924-7.715-4.917-13.73V369.9c0-6.01 1.638-10.588 4.917-13.73 3.276-3.148 7.788-4.719 13.529-4.719h36.483c5.735 0 10.247 1.57 13.529 4.719 3.282 3.143 4.92 7.721 4.917 13.73v36.483c0 6.016-1.638 10.589-4.917 13.73-3.279 3.143-7.787 4.72-13.529 4.72zm0-103.296h-36.483c-5.738 0-10.247-1.571-13.529-4.713-3.282-3.148-4.924-7.587-4.917-13.321v-36.899c0-5.738 1.638-10.176 4.917-13.321 3.276-3.142 7.788-4.85 13.529-5.125h36.483c5.735.275 10.247 1.983 13.529 5.125 3.282 3.146 4.92 7.583 4.917 13.321v36.899c0 5.734-1.638 10.173-4.917 13.321-3.279 3.142-7.787 4.713-13.529 4.713z"/></svg>