<svg xmlns="http://www.w3.org/2000/svg" width="36" height="36" viewBox="0 0 36 36">
    <path fill="#304CB2" fill-rule="nonzero" d="M18 0c9.941 0 18 8.059 18 18s-8.059 18-18 18S0 27.941 0 18 8.059 0 18 0zM13.92 6.763a56.17 56.17 0 0 0-.64.197c-2.161.685-2.011 6.402.538 12.295v.003l.002.001c2.32 5.361 5.924 9.25 8.08 9.153.14.554.053.986-.086 1.292-.306.673-.986 1.041-1.523 1.106a.16.16 0 0 0-.142.177c.01.081.08.14.162.14l.02-.002c.63-.077 1.424-.507 1.782-1.294.16-.352.264-.846.113-1.47.094-.024.185-.054.271-.098.22-.109.415-.208.594-.3L19.734 21.8l-.012.007-.023.01-1.148.622c-.893-1.145-1.727-2.545-2.408-4.12l-.001-.001v-.002c-.682-1.575-1.128-3.132-1.343-4.55l1.263-.354.024-.008.014-.003-2.179-6.639zm6.902 14.446l-.246.133-.264.145 3.359 6.165c.284-.158.493-.288.642-.397.743-.515.956-1.592.465-2.496l-.61-1.118-.088-.162-.05-.094-.088-.161-.61-1.119c-.523-.962-1.646-1.363-2.51-.896zm-5.522-14.79a6.7 6.7 0 0 0-.744.163l2.181 6.642c.094-.026.19-.052.293-.082l.271-.075c.95-.265 1.442-1.32 1.102-2.357l-.397-1.205-.057-.173-.033-.102-.058-.173-.395-1.205c-.32-.973-1.262-1.583-2.163-1.433z"/>
</svg>
