<svg viewBox="-277.9 399.8 42 42" xmlns="http://www.w3.org/2000/svg"><path d="M-242.5 425.2c-1.9 0-3.4-1.5-3.4-3.4s1.5-3.4 3.4-3.4 3.4 1.5 3.4 3.4c-.1 1.8-1.5 3.4-3.4 3.4m-21.6 0v-3.4h14.6v3.4zm-6.9 0c-1.9 0-3.4-1.5-3.4-3.4s1.5-3.4 3.4-3.4 3.4 1.5 3.4 3.4c0 1.8-1.5 3.4-3.4 3.4m5.4-18.2h17.7l3.8 7.4h-25.4c.1 0 3.9-7.3 3.9-7.4m26 7.6l-.7-.6h1.3c.8 0 1.1-.7 1.1-1.5s-.3-1.5-1.1-1.5h-3l-2.3-4.1c-.2-.7-.7-1.1-1-1.7-.8-.8-2-1.4-3.8-1.4h-15.1c-1.7 0-3 .6-3.8 1.4-.6.5-.9 1.1-1.1 1.7l-2.4 4.1h-3c-.8 0-1.1.7-1.1 1.5s.3 1.5 1.1 1.5h1.3l-.7.6c-1.5.5-4 1.8-4 4.8v17.2c0 .7.6 1.1 1.1 1.1h3.8c.7 0 1.1-.6 1.1-1.1v-4.2h29.9v4.2c0 .7.6 1.1 1.1 1.1h3.8c.7 0 1.1-.6 1.1-1.1v-17.2c.4-3.1-2.1-4.4-3.6-4.8"/></svg>