<svg xmlns="http://www.w3.org/2000/svg" width="36" height="36" viewBox="0 0 36 36">
    <g fill="none" fill-rule="evenodd">
        <g>
            <g>
                <g>
                    <g>
                        <g>
                            <path fill="#0076A5" d="M17.757 0C7.95 0 0 7.95 0 17.757c0 9.807 7.95 17.757 17.757 17.757 9.807 0 17.757-7.95 17.757-17.757 0-4.71-1.87-9.226-5.201-12.556C26.983 1.87 22.466 0 17.757 0z" transform="translate(-56 -1174) translate(0 56) translate(0 972) translate(56 55) translate(0 91)"/>
                            <path fill="#FFF" d="M24.13 13.96c3.2 0 5.793 2.599 5.793 5.799 0 1.602-.648 3.047-1.697 4.096-.422.422-.913.78-1.445 1.055l-.005 2.625-3.749-1.982H20.94c-2.563 0-4.735-1.66-5.505-3.96-.19-.58-.295-1.196-.295-1.834 0-1.603.649-3.048 1.698-4.102 1.049-1.05 2.499-1.698 4.102-1.698h3.19zM15.983 10c1.602 0 3.052.648 4.102 1.698.21.21.405.443.585.685-1.877.069-3.622.828-4.956 2.156-1.392 1.403-2.156 3.253-2.156 5.22 0 .653.084 1.281.242 1.882l-3.653 1.935-.006-2.626c-.532-.274-1.023-.632-1.444-1.054C7.648 18.846 7 17.402 7 15.799 7 12.6 9.594 10 12.794 10h3.19z" transform="translate(-56 -1174) translate(0 56) translate(0 972) translate(56 55) translate(0 91)"/>
                        </g>
                    </g>
                </g>
            </g>
        </g>
    </g>
</svg>
