<svg height="576" width="576" xmlns="http://www.w3.org/2000/svg"><path d="M289 47C155.899 47 48 154.899 48 288s107.899 241 241 241 241-107.899 241-241S422.101 47 289 47zm143.142 184.023L265.047 398.115c-3.625 3.623-8.03 5.44-13.212 5.44s-9.59-1.817-13.216-5.44l-96.761-96.766c-3.625-3.623-5.44-8.028-5.44-13.208 0-5.185 1.814-9.59 5.44-13.217l26.425-26.423c3.626-3.626 8.03-5.44 13.213-5.44s9.587 1.814 13.216 5.44l57.122 57.321 127.458-127.654c3.628-3.626 8.033-5.44 13.218-5.44 5.18 0 9.584 1.814 13.212 5.44l26.421 26.425c3.629 3.626 5.44 8.03 5.44 13.213s-1.818 9.59-5.441 13.217z"/></svg>