<svg height="576" width="576" xmlns="http://www.w3.org/2000/svg"><path d="M506.08 185.813c0 7.54-2.644 13.951-7.915 19.227L255.061 448.141c-5.275 5.271-11.683 7.915-19.223 7.915s-13.952-2.644-19.227-7.915L75.835 307.357c-5.275-5.271-7.915-11.679-7.915-19.215 0-7.544 2.64-13.952 7.915-19.23l38.446-38.442c5.275-5.275 11.683-7.915 19.223-7.915s13.948 2.64 19.227 7.915l83.106 83.396 185.436-185.722c5.279-5.275 11.687-7.915 19.23-7.915 7.536 0 13.943 2.64 19.223 7.915l38.438 38.446c5.28 5.276 7.916 11.683 7.916 19.223z"/></svg>