<?xml version="1.0" encoding="UTF-8"?>
<svg id="icon_clipboard" data-name="icon_clipboard" xmlns="http://www.w3.org/2000/svg" viewBox="0 0 32 32">
  <defs>
    <style>
      .cls-1 {
        fill: #111b40;
        fill-rule: evenodd;
        stroke-width: 0px;
      }
    </style>
  </defs>
  <path class="cls-1" d="M16,0C7.16,0,0,7.16,0,16s7.16,16,16,16,16-7.16,16-16S24.84,0,16,0ZM13.9,9.65c0-1.18.95-2.14,2.13-2.14s2.13.96,2.13,2.14v.29l2.33,2.35h-8.9l2.32-2.35v-.29ZM12.6,18.17v-1.24h6.9v1.24h-6.9ZM19.5,19.21v1.24h-6.9v-1.24h6.9ZM12.6,15.88v-1.24h6.9v1.24h-6.9ZM23.26,24.48h-14.49v-14.5h3.27l-1.65,1.64v11.19h11.21v-11.19l-1.63-1.64h3.29v14.5ZM15.32,9.59c0-.4.33-.73.73-.73s.73.33.73.73-.33.73-.73.73-.73-.33-.73-.73Z"/>
</svg>