<svg height="31.5" width="48.1" xmlns="http://www.w3.org/2000/svg"><path d="M46.9 31.5H1.2v-3.8h45.7zM35 24.4c0-6-5.2-11.2-11.2-11.2s-10.9 4.9-10.9 10.9v.3M26.4 2.1c0-1.2-.9-2.1-2.1-2.1-1.2 0-2.1.9-2.1 2.1v5.3c0 1.2.9 2.1 2.1 2.1 1.2 0 2.1-.9 2.1-2.1zm-24.3 18C.9 20.1 0 21 0 22.2c0 1.2.9 2.1 2.1 2.1h5.3c1.2 0 2.1-.9 2.1-2.1 0-1.2-.9-2.1-2.1-2.1zm38.6 0c-1.2 0-2.1.9-2.1 2.1 0 1.2.9 2.1 2.1 2.1H46c1.2 0 2.1-.9 2.1-2.1 0-1.2-.9-2.1-2.1-2.1zm-30-14c-.8-.8-2.2-.8-3 0-.8.8-.8 2.2 0 3l3.7 3.7c.8.8 2.2.8 3 0 .8-.8.8-2.2 0-3zm22.4 3.8c-.8.8-.8 2.2 0 3 .8.8 2.2.8 3 0l3.7-3.7c.8-.8.8-2.2 0-3-.8-.8-2.2-.8-3 0z"/></svg>