<svg height="576" width="576" xmlns="http://www.w3.org/2000/svg"><path d="M341.458 488.584v-79.563c0-3.903-1.26-7.19-3.768-9.842-2.521-2.651-5.587-3.979-9.211-3.979h-80.404c-3.63 0-6.842 1.397-9.63 4.186-2.792 2.786-4.188 5.999-4.188 9.636v79.558c0 3.63 1.397 6.844 4.188 9.631 2.788 2.795 6 4.19 9.63 4.19h80.404c3.629 0 6.704-1.328 9.211-3.986 2.507-2.649 3.768-5.93 3.768-9.841zm-.835-144.054l7.534-260.047c0-3.35-1.397-5.862-4.18-7.541-2.795-2.232-6.144-3.346-10.054-3.346h-92.125c-3.909 0-7.256 1.114-10.048 3.346-2.792 1.677-4.185 4.191-4.185 7.541l7.116 260.047c0 2.795 1.395 5.232 4.184 7.329 2.792 2.094 6.142 3.149 10.049 3.149h77.475c3.904 0 7.185-1.053 9.836-3.149 2.656-2.096 4.123-4.534 4.398-7.329z"/></svg>