<svg height="576" width="576" xmlns="http://www.w3.org/2000/svg"><path d="M287.857 48.143c43.517 0 83.65 10.722 120.397 32.167 36.751 21.445 65.846 50.543 87.294 87.29 21.443 36.749 32.165 76.882 32.165 120.398 0 43.52-10.722 83.647-32.165 120.399-21.448 36.746-50.543 65.846-87.294 87.289-36.747 21.443-76.88 32.17-120.397 32.17s-83.65-10.727-120.399-32.17c-36.747-21.443-65.844-50.543-87.29-87.289-21.445-36.752-32.167-76.88-32.167-120.399 0-43.517 10.722-83.649 32.167-120.398 21.446-36.747 50.543-65.845 87.29-87.29 36.749-21.445 76.882-32.167 120.399-32.167zm39.977 389.453v-59.339c0-2.912-.939-5.363-2.81-7.34-1.879-1.978-4.167-2.968-6.87-2.968h-59.965c-2.707 0-5.103 1.042-7.182 3.121-2.082 2.079-3.124 4.475-3.124 7.187v59.335c0 2.707 1.042 5.103 3.124 7.182 2.079 2.084 4.475 3.125 7.182 3.125h59.965c2.707 0 5-.99 6.87-2.972 1.87-1.977 2.81-4.423 2.81-7.34zm-.623-107.436l5.619-193.944c0-2.498-1.042-4.372-3.117-5.624-2.084-1.665-4.582-2.496-7.498-2.496h-68.707c-2.915 0-5.412.831-7.494 2.496-2.082 1.251-3.121 3.126-3.121 5.624L248.2 330.16c0 2.084 1.04 3.902 3.121 5.466 2.082 1.562 4.58 2.349 7.494 2.349h57.781c2.912 0 5.358-.786 7.336-2.349 1.98-1.564 3.074-3.382 3.279-5.466z"/></svg>