<svg xmlns="http://www.w3.org/2000/svg" height="29" width="29.4"><path class="st0" d="M26.164 6.79c2.738-2.738 2.738-4.751 2.738-5.476 0 0 0-.644-.241-.886-.242-.242-.886-.242-.886-.242-.645 0-2.738 0-5.477 2.82l-4.59 4.59L3.131 3.73c-.724-.242-1.208.242-1.208.242L-.009 5.904l12.563 6.846-1.691 1.69c-.967.887-1.933 2.256-2.819 3.464l-4.349-.564c-.886-.161-1.369.403-1.369.403L.393 19.676l5.074 2.335c-.644 1.208-.483 2.094-.483 2.094v.08h.08s.886.161 2.094-.483l2.255 5.074 1.933-1.933s.483-.483.403-1.37l-.484-4.428c1.208-.886 2.577-1.933 3.463-2.82l1.691-1.69 6.765 12.643 1.933-1.932s.483-.484.322-1.208L21.574 11.46l4.59-4.67z"/></svg>