<svg viewBox="-17 109 576 576" xmlns="http://www.w3.org/2000/svg"><path d="M53 512.2V280.8h98.3c24.7 0 42.7 2.1 53.9 6.2 11.2 4.2 20.2 11.5 26.9 22.2 6.7 10.6 10.1 22.8 10.1 36.5 0 17.4-5.1 31.7-15.3 43s-25.5 18.4-45.8 21.4c10.1 5.9 18.4 12.4 25 19.4s15.4 19.6 26.6 37.6l28.3 45.1h-55.9l-33.8-50.3c-12-18-20.2-29.3-24.6-34s-9.1-7.9-14-9.6-12.8-2.6-23.5-2.6h-9.5v96.6H53zm46.7-133.6h34.6c22.4 0 36.4-.9 42-2.8s9.9-5.2 13.1-9.8 4.7-10.4 4.7-17.4c0-7.8-2.1-14.1-6.2-18.9-4.2-4.8-10-7.8-17.6-9.1-3.8-.5-15.2-.8-34.1-.8H99.7zm186.7 133.6V280.8h98.3c24.7 0 42.7 2.1 53.9 6.2 11.2 4.2 20.2 11.5 26.9 22.2 6.7 10.6 10.1 22.8 10.1 36.5 0 17.4-5.1 31.7-15.3 43s-25.5 18.4-45.8 21.4c10.1 5.9 18.4 12.4 25 19.4s15.4 19.6 26.6 37.6l28.3 45.1h-55.9l-33.8-50.3c-12-18-20.2-29.3-24.6-34s-9.1-7.9-14-9.6-12.8-2.6-23.5-2.6h-9.5v96.6h-46.7zm46.8-133.6h34.6c22.4 0 36.4-.9 42-2.8s9.9-5.2 13.1-9.8 4.7-10.4 4.7-17.4c0-7.8-2.1-14.1-6.2-18.9-4.2-4.8-10-7.8-17.6-9.1-3.8-.5-15.2-.8-34.1-.8h-36.5z"/></svg>