<svg viewBox="-17 109 576 576" xmlns="http://www.w3.org/2000/svg"><path d="M271.5 157c-63.1 0-119.7 23.5-162.5 63.1C60.9 263.9 31 327 31 397.5 31 530 139 638 271.5 638c70.5 0 133.6-29.9 177.4-78 39.5-42.8 63.1-100.5 63.1-162.5C512 265 404 157 271.5 157zm139 365.6c-34.2 38.5-84.4 62-139 62-102.6 0-187.1-83.4-187.1-187.1 0-55.6 24.6-104.8 62-139 33.1-29.9 77-48.1 125.1-48.1 103.7 0 187.1 84.4 187.1 187.1 0 48.1-18.2 91.9-48.1 125.1zM259.7 358c-5.3-5.3-8.6-12.8-7.5-21.4 1.1-15-4.3-29.9-15-40.6-15-15-35.3-19.2-53.4-12.8l33.1 33.1c1.1 12.8-19.2 33.1-32.1 32.1l-33.1-33.1c-6.4 18.2-2.1 39.5 12.8 53.4 10.7 10.7 26.7 16 40.6 15 7.5-1.1 15 2.1 21.4 7.5L341 505.5c9.6 9.6 25.7 9.6 35.3 0s9.6-25.7 0-35.3zm95.2 140c-5.3 0-9.6-4.3-9.6-9.6s4.3-9.6 9.6-9.6 9.6 4.3 9.6 9.6c1.1 5.3-3.2 9.6-9.6 9.6z"/></svg>