<svg viewBox="-17 109 576 576" xmlns="http://www.w3.org/2000/svg"><path d="M271 156.9c-63.2 0-119.3 23.9-162.9 63.2C60.4 263.6 30.9 326.8 30.9 397 30.9 529 139 637.1 271 637.1c70.2 0 133.4-29.5 176.9-77.2 39.3-42.1 63.2-99.7 63.2-162.9 0-132-108.1-240.1-240.1-240.1zM410 522c-33.7 37.9-84.2 61.8-139 61.8-102.5 0-186.7-84.2-186.7-186.7 0-54.8 23.9-105.3 61.8-139 33.7-29.5 77.2-47.7 125-47.7 102.5 0 186.7 84.2 186.7 186.7-.1 47.6-18.3 91.2-47.8 124.9z"/><path d="M388.9 288.9L252.7 423.7l-46.3-44.9-43.5 43.5 85.6 85.6L418.4 338c-5.6-18.2-16.8-35.1-29.5-49.1z"/></svg>