<svg viewBox="-286.1 400 42 42" xmlns="http://www.w3.org/2000/svg"><path d="M-245.3 436.6v-18.5c.8 0 1.3-.7 1.3-1.3 0-.8-.7-1.3-1.3-1.3h-17.8v-6.2c.8 0 1.3-.7 1.3-1.3 0-.8-.7-1.3-1.3-1.3h-3.8v-2h-5v-1.8h-3.7v1.8h-5v1.7h-4c-.8 0-1.3.7-1.3 1.3 0 .8.7 1.3 1.3 1.3v27.3c-.8 0-1.3.7-1.3 1.3 0 .8.7 1.3 1.3 1.3h12.7v-9.8h5v10.2h21.5c.8 0 1.3-.7 1.3-1.3.1-.8-.6-1.4-1.2-1.4zm-30.4-2.4h-5.2v-5h5v5zm0-8.9h-5.2v-5h5v5zm0-8.8h-5.2v-5h5v5zm8.9 8.8h-5v-5h5zm0-8.8h-5v-5h5zm8.8 17.7h-5v-5h5zm0-8.9h-5v-5h5zm8.8 8.9h-5v-5h5zm0-8.9h-5v-5h5z"/></svg>