<svg display="block" height="527" width="500" xmlns="http://www.w3.org/2000/svg"><g fill-rule="evenodd"><path d="M359.905 14.953c-.052.356-.052.917 0 1.247s-.265.6-.705.6-.8.36-.8.8c0 1.31 1.146.911 2.191-.763.615-.984.686-1.742.193-2.047-.431-.266-.827-.193-.879.163M362.479 17.8l-1.106 1.8 1.914-1.591c1.052-.876 2.063-1.686 2.246-1.8.184-.115-.18-.209-.807-.209-.628 0-1.639.81-2.247 1.8M261.02 115.381c-.444.56-1.235 1.919-1.758 3.019-.897 1.888-.882 1.91.267.4a69.096 69.096 0 0 1 2.124-2.653c.5-.579.743-1.217.542-1.419-.202-.202-.731.092-1.175.653m-15.62 16.277c-1.21.656-2.2 1.556-2.2 1.999 0 .513.363.494 1-.053.55-.472 1.72-1.375 2.6-2.006 2.071-1.485 1.394-1.456-1.4.06m-5.4 5.374c-2.032.939-3.36 2.274-2.809 2.826.167.167.777-.105 1.356-.605.579-.499 1.773-1.424 2.653-2.055 1.909-1.369 1.521-1.423-1.2-.166m-28.2 107.282c-1.545 1.172-1.82 2.086-.628 2.086.424 0 1.157-.72 1.628-1.6.998-1.865.887-1.919-1-.486"/><path d="M363.154 17.981c-1.112 1.119-8.728 1.251-71.127 1.228-64.104-.024-70.004.084-71.355 1.307-2.232 2.02-2.268 45.715-.039 47.733 1.283 1.161 5.952 1.301 44.547 1.337 40.652.038 46.454.223 42.185 1.339-.971.254-1.765.8-1.765 1.213 0 .877-14.509 15.423-15.407 15.446-.334.009-1.319 1.186-2.188 2.616-.87 1.43-2.037 2.602-2.593 2.605-.557.003-1.829 1.207-2.829 2.674-.999 1.468-2.721 3.153-3.828 3.745-1.157.619-1.833 1.54-1.592 2.168.23.6.063.871-.372.602-.435-.268-.791-.128-.791.314 0 .441-1.087 1.444-2.416 2.229-1.329.784-2.264 1.822-2.079 2.305.186.483-1.072 1.749-2.794 2.813-1.736 1.073-2.96 2.384-2.747 2.94.212.553.028 1.005-.409 1.005-1.085 0-23.955 22.939-23.955 24.027 0 .477-.348.652-.773.39-.425-.263-1.865 1.03-3.2 2.873-1.335 1.842-2.427 2.878-2.427 2.301s-.99.256-2.2 1.851-2.56 2.915-3 2.934-1.601 1.202-2.58 2.629-2.868 3.315-4.197 4.195c-1.33.88-2.419 2.047-2.421 2.593-.001.546-1.205 1.781-2.675 2.744-1.469.964-2.999 2.456-3.4 3.317-.4.86-1.087 1.596-1.527 1.634-1.284.112-3.6 2.374-3.6 3.515 0 .576-.602 1.278-1.339 1.561-1.716.658-3.839 2.781-4.497 4.497-.283.737-.985 1.339-1.561 1.339-1.142 0-3.403 2.317-3.514 3.6-.038.44-.776 1.162-1.641 1.605-1.762.902-4.644 3.595-3.848 3.595.283 0-.026.54-.686 1.2s-1.405 1.2-1.657 1.2c-.74 0-3.675 3.153-3.457 3.713.11.282-.488.912-1.33 1.4-2.138 1.24-4.47 3.547-4.47 4.422 0 .404-1.234 1.497-2.743 2.43-1.749 1.081-2.932 2.554-3.264 4.065-.286 1.304-.942 2.376-1.457 2.382-.596.008-.538.264.16.707.884.56.807.857-.4 1.538-1.273.718-1.33 1-.379 1.893.927.871 1.009.859.477-.074-.398-.697-.331-.931.176-.618.45.278 1.005 2.165 1.233 4.193.463 4.107 1.181 5.172 3.611 5.355 1.126.085 1.796.842 2.103 2.378.248 1.24 1.088 2.451 1.867 2.693 2.152.667 3.562 1.478 3.343 1.923-.517 1.048 1.868 3.917 3.445 4.144 1.217.176 2.008 1.073 2.517 2.856.611 2.14 1.14 2.6 2.99 2.6 1.936 0 2.321.389 2.774 2.8.37 1.973.952 2.8 1.971 2.8 2.414 0 3.976.9 3.976 2.29 0 3.736 8.679 3.266 8.775-.475.014-.541 1.011-1.232 2.217-1.535 2.005-.503 4.885-2.609 4.408-3.223-.75-.964.073-2.337 1.464-2.442 2.371-.178 3.936-1.714 3.936-3.86 0-1.422.508-1.907 2.2-2.102 1.698-.195 2.375-.846 2.965-2.853.522-1.773 1.258-2.6 2.312-2.6 1.753 0 3.66-2.137 3.698-4.144.014-.758.784-1.456 1.765-1.6.956-.141 2.353-1.336 3.103-2.656.751-1.32 1.808-2.297 2.351-2.17 1.1.257 2.871-1.698 4.014-4.43.414-.99 1.327-1.8 2.029-1.8 1.622 0 3.813-2.148 3.201-3.139-.498-.805.857-1.909 2.682-2.185 1.331-.202 2.451-1.794 2.468-3.511.007-.697 1.144-1.567 2.612-2 2.007-.59 2.658-1.267 2.853-2.965.192-1.668.686-2.2 2.04-2.2 2.295 0 3.707-1.432 3.707-3.76 0-1.387.453-1.84 1.84-1.84 2.291 0 3.76-1.405 3.76-3.595 0-1.198.739-1.892 2.6-2.44 2.007-.59 2.658-1.267 2.853-2.965.195-1.692.68-2.2 2.102-2.2 2.054 0 3.325-1.204 3.763-3.565.163-.879 1.164-1.77 2.286-2.034 1.1-.258 2.474-1.462 3.061-2.679.586-1.216 1.945-2.546 3.021-2.955 1.89-.718 3.697-3.737 2.973-4.967-.194-.33.496-.6 1.534-.6 2.389 0 3.807-1.401 3.807-3.76 0-1.281.467-1.84 1.535-1.84 2.889 0 4.065-.935 4.065-3.232 0-1.873.379-2.305 2.2-2.515 1.698-.195 2.375-.846 2.965-2.853.582-1.976 1.216-2.6 2.641-2.6 1.387 0 2.18-.729 3.046-2.8.718-1.719 1.721-2.8 2.599-2.8 1.814 0 3.349-1.516 3.349-3.307 0-.918.743-1.472 2.2-1.64 1.716-.197 2.398-.869 3.1-3.053.684-2.13 1.4-2.86 2.99-3.052 1.576-.19 2.25-.865 2.735-2.736.457-1.765 1.155-2.522 2.409-2.615 2.219-.163 2.8-.744 2.963-2.963.094-1.263.852-1.952 2.667-2.423 1.395-.361 2.581-1.006 2.636-1.434.055-.427.19-1.137.3-1.577s.245-1.1.3-1.466 1.36-1.052 2.9-1.525l2.8-.859.011 46.125c.006 25.369.228 46.935.493 47.925l.483 1.8H400V19.141l-15.8.06c-8.69.033-16.584.047-17.541.03-.958-.017-1.858-.587-2-1.267-.233-1.11-.386-1.109-1.505.017M0 242.8v178.8h358.4v-89.172c0-87.793-.024-89.185-1.57-90.012-1.021-.546-9.63-.766-24.593-.628l-23.022.212-.513 2.4c-.282 1.32-.555 31.11-.607 66.2L308 374.4H47.2V113.6h65.902c53.414 0 66.067-.199 66.773-1.05 1.143-1.377 1.208-44.926.07-47.052-.776-1.45-3.662-1.498-90.373-1.498H0z"/><path d="M245.6 211.6c-.565.681-.848 1.419-.628 1.639s.863-.158 1.428-.839.848-1.419.628-1.639-.863.158-1.428.839M360.563 17.225c-.791 1.086-1.099 1.975-.686 1.975.414 0 .968-.563 1.232-1.251s.838-1.029 1.276-.758c.46.284.595-.033.32-.749-.585-1.525-.418-1.585-2.142.783m-67.306 64.832c-.691.692-1.234 1.862-1.206 2.6.036.952.263.813.781-.476.402-1 1.549-2.147 2.549-2.549 1.289-.518 1.428-.745.476-.781-.738-.028-1.908.515-2.6 1.206M173.6 204.047c0 .466-.335.64-.745.387-.409-.253-.969-.097-1.244.348-.291.47.299.741 1.412.649 1.71-.141 2.875-2.231 1.244-2.231-.367 0-.667.381-.667.847"/><path d="M362.4 16.047c0 .466-.285.671-.634.456-.349-.216-.688.393-.753 1.352-.117 1.702-.092 1.707 1.033.192 1.159-1.559 1.5-2.847.754-2.847-.22 0-.4.381-.4.847m3.367.494c-.794.318-.818.675-.102 1.537 1.1 1.326 2.335 1.472 2.335.275 0-.466-.421-.587-.936-.269-.629.389-.769.142-.425-.753.281-.732.432-1.303.336-1.268s-.64.25-1.208.478M173.2 205.078c-.955.551-1.667 1.889-1.767 3.322l-.167 2.4.967-2.084c.532-1.145 1.461-2.675 2.065-3.4 1.249-1.497 1.132-1.522-1.098-.238"/><path d="M360.059 15.529c-.717.864-.711 1.268.026 1.723.612.379.753.257.387-.335-.346-.56.163-1.226 1.277-1.673 1.218-.489 1.406-.76.549-.793-.716-.028-1.724.457-2.239 1.078M169.6 208c0 1.493.213 1.707.96.96s.747-1.173 0-1.92-.96-.533-.96.96"/></g></svg>