<svg xmlns="http://www.w3.org/2000/svg" width="36" height="36" viewBox="0 0 36 36">
    <path fill="#294299" fill-rule="evenodd" d="M18 0c9.941 0 18 8.059 18 18s-8.059 18-18 18S0 27.941 0 18 8.059 0 18 0zm-4.141 19.421s-1.11.365-1.62.548C9.555 20.928 9 22.709 9 23.347c0 .685.093 1.279.093 1.279S12.1 27 18.162 27c6.108 0 8.745-2.374 8.745-2.374s.093-.594.093-1.279c0-.684-.555-2.42-3.24-3.378l-1.387-.457c-1.666 1.507-4.211 2.831-4.211 2.831s-2.823-1.46-4.303-2.922zM18 9c-2.757 0-4.953 2.182-5 5.255C13 17.283 15.243 20 18 20s5-2.717 5-5.745C23 11.182 20.757 9 18 9zm11.533 1.597a.75.75 0 1 0-1.264.806 5.85 5.85 0 0 1 0 6.294.75.75 0 1 0 1.264.806 7.35 7.35 0 0 0 0-7.906zm-2.95 1.316a.75.75 0 1 0-1.165.946 2.743 2.743 0 0 1 0 3.46.75.75 0 1 0 1.164.945 4.243 4.243 0 0 0 0-5.35z"/>
</svg>
