<svg xmlns="http://www.w3.org/2000/svg" width="30" height="30" viewBox="0 0 30 30">
    <path fill="#FFF" fill-rule="nonzero" d="M19.188 9.42c-.982.834-2.434.817-3.249-.04-.812-.858-.676-2.23.303-3.064.981-.835 2.435-.817 3.248.04.814.857.678 2.228-.302 3.063m-4.48 14.386c-2.163.76-3.946-.111-3.588-2.188.359-2.077 2.41-6.523 2.702-7.364.293-.842-.268-1.072-.87-.73-.346.202-.862.602-1.304.992-.123-.247-.296-.53-.424-.8.722-.723 1.928-1.694 3.357-2.046 1.707-.42 4.56.252 3.333 3.515-.875 2.327-1.494 3.93-1.885 5.127-.39 1.195.073 1.445.756.98.534-.365 1.101-.86 1.518-1.244.193.314.255.413.446.773-.724.74-2.616 2.474-4.041 2.985M14.999 0C6.715 0 0 6.716 0 15c0 8.284 6.715 15 15 15 8.284 0 15-6.716 15-15 0-8.284-6.716-15-15-15"/>
</svg>
