<?xml version="1.0" encoding="utf-8"?>
<!-- Generator: Adobe Illustrator 18.1.1, SVG Export Plug-In . SVG Version: 6.00 Build 0)  -->
<!DOCTYPE svg PUBLIC "-//W3C//DTD SVG 1.1//EN" "http://www.w3.org/Graphics/SVG/1.1/DTD/svg11.dtd">
<svg version="1.1" id="Layer_1" xmlns="http://www.w3.org/2000/svg" xmlns:xlink="http://www.w3.org/1999/xlink" x="0px" y="0px"
	 viewBox="0 0 38 38" enable-background="new 0 0 38 38" xml:space="preserve">
<g id="_x36_.svg">
	<g>
		<path d="M19,0C8.5,0,0,8.5,0,19s8.5,19,19,19s19-8.5,19-19S29.5,0,19,0z M22.8,25.6c-0.9,1-2.2,1.5-3.6,1.5
			c-1.6,0-2.9-0.6-3.9-1.9c-1-1.2-1.5-3.3-1.5-6.1c0-2.9,0.5-5,1.6-6.2c1.1-1.3,2.5-1.9,4.2-1.9c1.2,0,2.2,0.3,3,1s1.3,1.6,1.5,2.9
			L21,15.2c-0.1-0.6-0.3-1-0.6-1.3c-0.3-0.3-0.7-0.4-1.2-0.4c-0.6,0-1.2,0.3-1.6,0.9c-0.4,0.6-0.7,1.8-0.8,3.6
			c0.8-0.9,1.7-1.3,2.8-1.3c1.3,0,2.3,0.5,3.2,1.4c0.9,1,1.3,2.2,1.3,3.7C24.3,23.3,23.8,24.6,22.8,25.6z"/>
		<path d="M19.2,18.8c-0.6,0-1.1,0.2-1.5,0.7s-0.6,1.1-0.6,2c0,1,0.2,1.7,0.7,2.3s1,0.8,1.5,0.8c0.6,0,1-0.2,1.4-0.7
			c0.4-0.4,0.6-1.2,0.6-2.1c0-1-0.2-1.8-0.6-2.3C20.3,19,19.8,18.8,19.2,18.8z"/>
	</g>
</g>
</svg>
