<?xml version="1.0" encoding="utf-8"?>
<!-- Generator: Adobe Illustrator 18.1.1, SVG Export Plug-In . SVG Version: 6.00 Build 0)  -->
<!DOCTYPE svg PUBLIC "-//W3C//DTD SVG 1.1//EN" "http://www.w3.org/Graphics/SVG/1.1/DTD/svg11.dtd">
<svg version="1.1" id="Layer_1" xmlns="http://www.w3.org/2000/svg" xmlns:xlink="http://www.w3.org/1999/xlink" x="0px" y="0px"
	 viewBox="0 0 38 38" enable-background="new 0 0 38 38" xml:space="preserve">
<g id="_x39_.svg">
	<g>
		<path d="M18.7,13.5c-0.6,0-1,0.2-1.4,0.7c-0.4,0.4-0.6,1.2-0.6,2.2s0.2,1.8,0.6,2.2c0.4,0.5,0.9,0.7,1.5,0.7
			s1.1-0.2,1.5-0.7s0.6-1.1,0.6-2c0-1-0.2-1.7-0.7-2.3C19.8,13.7,19.2,13.5,18.7,13.5z"/>
		<path d="M19,0C8.5,0,0,8.5,0,19s8.5,19,19,19s19-8.5,19-19S29.5,0,19,0z M22.7,25.1c-1.1,1.3-2.5,1.9-4.2,1.9
			c-1.2,0-2.2-0.3-3-1c-0.8-0.7-1.2-1.6-1.5-2.9l2.9-0.3c0.1,0.6,0.3,1,0.6,1.3s0.7,0.4,1.2,0.4c0.6,0,1.2-0.3,1.6-0.9
			s0.7-1.8,0.8-3.6c-0.8,0.9-1.7,1.3-2.8,1.3c-1.2,0-2.3-0.5-3.2-1.4c-0.9-1-1.3-2.2-1.3-3.7c0-1.6,0.5-2.9,1.4-3.9s2.2-1.5,3.6-1.5
			c1.6,0,2.9,0.6,3.9,1.9c1,1.2,1.5,3.3,1.5,6.1C24.3,21.8,23.7,23.9,22.7,25.1z"/>
	</g>
</g>
</svg>
