<?xml version="1.0" encoding="utf-8"?>
<!-- Generator: Adobe Illustrator 18.1.1, SVG Export Plug-In . SVG Version: 6.00 Build 0)  -->
<!DOCTYPE svg PUBLIC "-//W3C//DTD SVG 1.1//EN" "http://www.w3.org/Graphics/SVG/1.1/DTD/svg11.dtd">
<svg version="1.1" xmlns="http://www.w3.org/2000/svg" xmlns:xlink="http://www.w3.org/1999/xlink" x="0px" y="0px"
	 viewBox="0 0 38 38" enable-background="new 0 0 38 38" xml:space="preserve">
<g id="_x32_.svg">
	<path d="M19,0C8.5,0,0,8.5,0,19s8.5,19,19,19s19-8.5,19-19S29.5,0,19,0z M24.3,24.1v2.8H13.7c0.1-1.1,0.5-2.1,1-3
		c0.6-0.9,1.7-2.2,3.4-3.8c1.4-1.3,2.2-2.1,2.5-2.6c0.4-0.6,0.6-1.2,0.6-1.8c0-0.7-0.2-1.2-0.5-1.6c-0.4-0.4-0.9-0.5-1.5-0.5
		c-0.6,0-1.1,0.2-1.5,0.6c-0.4,0.4-0.6,1-0.6,1.9l-3-0.3c0.2-1.7,0.7-2.9,1.7-3.6c0.9-0.7,2.1-1.1,3.5-1.1c1.6,0,2.8,0.4,3.7,1.3
		c0.9,0.8,1.3,1.9,1.3,3.1c0,0.7-0.1,1.4-0.4,2c-0.3,0.6-0.7,1.3-1.2,2c-0.4,0.5-1,1.1-2,2c-1,0.9-1.6,1.5-1.8,1.7
		c-0.3,0.3-0.5,0.6-0.6,0.8H24.3z"/>
</g>
</svg>
