<?xml version="1.0" encoding="utf-8"?>
<!-- Generator: Adobe Illustrator 18.1.1, SVG Export Plug-In . SVG Version: 6.00 Build 0)  -->
<!DOCTYPE svg PUBLIC "-//W3C//DTD SVG 1.1//EN" "http://www.w3.org/Graphics/SVG/1.1/DTD/svg11.dtd">
<svg version="1.1" id="Layer_1" xmlns="http://www.w3.org/2000/svg" xmlns:xlink="http://www.w3.org/1999/xlink" x="0px" y="0px"
	 viewBox="0 0 38 38" enable-background="new 0 0 38 38" xml:space="preserve">
<g id="_x33_.svg">
	<path d="M19,0C8.5,0,0,8.5,0,19s8.5,19,19,19s19-8.5,19-19S29.5,0,19,0z M22.7,25.6c-1,1-2.3,1.5-3.8,1.5
		c-1.4,0-2.6-0.4-3.5-1.2c-0.9-0.8-1.5-1.9-1.6-3.2l2.9-0.4c0.1,0.7,0.3,1.3,0.8,1.7c0.4,0.4,0.9,0.6,1.5,0.6s1.1-0.2,1.6-0.7
		s0.6-1.1,0.6-1.9s-0.2-1.4-0.6-1.8s-0.9-0.7-1.5-0.7c-0.4,0-0.8,0.1-1.4,0.2l0.3-2.5c0.8,0,1.4-0.2,1.9-0.5
		c0.4-0.4,0.6-0.9,0.6-1.5c0-0.5-0.2-1-0.5-1.3s-0.7-0.5-1.3-0.5c-0.5,0-1,0.2-1.3,0.5c-0.4,0.4-0.6,0.9-0.7,1.6L14,15.1
		c0.2-1,0.5-1.7,0.9-2.3s0.9-1,1.6-1.3S18,11,18.8,11c1.5,0,2.7,0.5,3.6,1.4c0.7,0.8,1.1,1.6,1.1,2.6c0,1.4-0.8,2.5-2.3,3.3
		c0.9,0.2,1.6,0.6,2.2,1.3c0.5,0.7,0.8,1.5,0.8,2.4C24.2,23.4,23.7,24.6,22.7,25.6z"/>
</g>
</svg>
