<?xml version="1.0" encoding="utf-8"?>
<!-- Generator: Adobe Illustrator 18.1.1, SVG Export Plug-In . SVG Version: 6.00 Build 0)  -->
<!DOCTYPE svg PUBLIC "-//W3C//DTD SVG 1.1//EN" "http://www.w3.org/Graphics/SVG/1.1/DTD/svg11.dtd">
<svg version="1.1" id="Layer_1" xmlns="http://www.w3.org/2000/svg" xmlns:xlink="http://www.w3.org/1999/xlink" x="0px" y="0px"
	 viewBox="0 0 38 38" enable-background="new 0 0 38 38" xml:space="preserve">
<g id="_x38_.svg">
	<g>
		<path d="M18.9,17.1c0.6,0,1-0.2,1.4-0.5c0.3-0.3,0.5-0.8,0.5-1.4c0-0.6-0.2-1-0.5-1.4c-0.3-0.3-0.8-0.5-1.3-0.5
			c-0.6,0-1,0.2-1.4,0.5s-0.5,0.8-0.5,1.4c0,0.6,0.2,1.1,0.5,1.4C17.9,17,18.4,17.1,18.9,17.1z"/>
		<path d="M19,19.6c-0.7,0-1.3,0.3-1.6,0.8c-0.4,0.5-0.5,1.1-0.5,1.7c0,0.8,0.2,1.5,0.6,1.9c0.4,0.5,1,0.7,1.6,0.7
			s1.1-0.2,1.5-0.7s0.6-1.1,0.6-1.9c0-0.7-0.2-1.3-0.6-1.8C20.2,19.8,19.6,19.6,19,19.6z"/>
		<path d="M19,0C8.5,0,0,8.5,0,19s8.5,19,19,19s19-8.5,19-19S29.5,0,19,0z M22.8,25.7c-0.9,0.9-2.2,1.4-3.7,1.4
			c-1.4,0-2.6-0.4-3.6-1.1c-1.1-0.9-1.7-2.1-1.7-3.7c0-0.9,0.2-1.6,0.6-2.3c0.4-0.7,1.1-1.3,2-1.6c-0.8-0.3-1.3-0.8-1.7-1.4
			s-0.5-1.2-0.5-1.9c0-1.2,0.4-2.1,1.2-2.9c0.8-0.8,2-1.1,3.5-1.1s2.7,0.4,3.5,1.1c0.8,0.8,1.2,1.7,1.2,2.9c0,0.7-0.2,1.4-0.6,1.9
			c-0.4,0.6-0.9,1-1.6,1.3c0.9,0.4,1.5,0.9,2,1.5c0.5,0.7,0.7,1.5,0.7,2.3C24.2,23.6,23.7,24.8,22.8,25.7z"/>
	</g>
</g>
</svg>
