<?xml version="1.0" encoding="utf-8"?>
<!-- Generator: Adobe Illustrator 18.1.1, SVG Export Plug-In . SVG Version: 6.00 Build 0)  -->
<!DOCTYPE svg PUBLIC "-//W3C//DTD SVG 1.1//EN" "http://www.w3.org/Graphics/SVG/1.1/DTD/svg11.dtd">
<svg version="1.1" id="Layer_1" xmlns="http://www.w3.org/2000/svg" xmlns:xlink="http://www.w3.org/1999/xlink" x="0px" y="0px"
	 viewBox="0 0 38 38" enable-background="new 0 0 38 38" xml:space="preserve">
<g id="_x35_.svg">
	<path d="M19,0C8.5,0,0,8.5,0,19s8.5,19,19,19s19-8.5,19-19S29.5,0,19,0z M23.2,24.8c-1,1.4-2.4,2.1-4.3,2.1
		c-1.5,0-2.6-0.4-3.6-1.2c-0.9-0.8-1.5-1.8-1.6-3.1l3-0.3c0.1,0.7,0.3,1.2,0.8,1.6c0.4,0.4,0.9,0.6,1.5,0.6s1.2-0.3,1.6-0.8
		s0.7-1.3,0.7-2.3s-0.2-1.7-0.7-2.2s-1-0.7-1.7-0.7c-0.9,0-1.6,0.4-2.3,1.1l-2.4-0.4l1.5-8.2h8v2.8H18l-0.5,2.7
		c0.7-0.3,1.4-0.5,2.1-0.5c1.3,0,2.5,0.5,3.4,1.5s1.4,2.2,1.4,3.8C24.3,22.6,23.9,23.8,23.2,24.8z"/>
</g>
</svg>
