<?xml version="1.0" encoding="utf-8"?>
<!-- Generator: Adobe Illustrator 25.2.3, SVG Export Plug-In . SVG Version: 6.00 Build 0)  -->
<svg version="1.1" id="Layer_1" xmlns="http://www.w3.org/2000/svg" xmlns:xlink="http://www.w3.org/1999/xlink" x="0px" y="0px"
	 viewBox="0 0 39 39.9" style="enable-background:new 0 0 39 39.9;" xml:space="preserve">
<style type="text/css">
	.st0{fill:#111B40;}
</style>
<g>
	<path class="st0" d="M30.5,11.8c0,6.8-4.8,12.9-10.7,12.9S9.1,18.6,9.1,11.8C9.2,4.9,13.9,0,19.8,0S30.5,4.9,30.5,11.8"/>
	<path class="st0" d="M32,24.5c-0.9-0.3-3-1-3-1c-3.6,3.3-9.1,6.2-9.1,6.2s-6.1-3.2-9.3-6.4c0,0-2.4,0.8-3.5,1.2c-5.8,2.1-7,6-7,7.4
		c0,1.5,0.2,2.8,0.2,2.8s6.5,5.2,19.6,5.2c13.2,0,18.9-5.2,18.9-5.2s0.2-1.3,0.2-2.8C39,30.4,37.8,26.6,32,24.5"/>
</g>
</svg>
