<svg height="576" width="576" xmlns="http://www.w3.org/2000/svg"><path d="M529.286 254.837v65.758c0 9.141-3.194 16.905-9.591 23.302-6.396 6.388-14.161 9.591-23.293 9.591H353.91V495.98c0 9.133-3.203 16.896-9.591 23.284-6.388 6.397-14.161 9.591-23.303 9.591h-65.758c-9.136 0-16.9-3.193-23.293-9.591-6.396-6.388-9.591-14.151-9.591-23.284V353.488H79.887c-9.141 0-16.905-3.203-23.297-9.591-6.393-6.396-9.591-14.161-9.591-23.302v-65.758c0-9.136 3.198-16.905 9.591-23.297 6.392-6.393 14.156-9.591 23.297-9.591h142.488V79.461c0-9.136 3.194-16.9 9.591-23.297 6.393-6.392 14.157-9.591 23.293-9.591h65.758c9.142 0 16.915 3.199 23.303 9.591 6.388 6.397 9.591 14.161 9.591 23.297v142.488h142.492c9.132 0 16.896 3.198 23.293 9.591 6.396 6.392 9.59 14.161 9.59 23.297z"/></svg>