<svg xmlns="http://www.w3.org/2000/svg" width="24" height="24" viewBox="0 0 24 24">
    <g fill="none" fill-rule="evenodd">
        <g fill="#636363">
            <g>
                <g>
                    <path d="M14 4c5.523 0 10 4.477 10 10s-4.477 10-10 10S4 19.523 4 14 8.477 4 14 4zm4.4 7.404c-.384 0-.713.058-.985.174-.273.116-.481.286-.626.508-.145.222-.217.46-.217.716 0 .396.154.732.461 1.008.22.196.6.361 1.142.496.422.104.692.177.81.218.173.062.295.134.364.217.07.084.104.184.104.303 0 .185-.082.346-.247.484-.166.137-.411.206-.737.206-.308 0-.552-.077-.733-.232-.151-.13-.26-.32-.326-.57l-.035-.158-.984.096c.066.56.269.987.608 1.28.34.292.826.439 1.46.439.435 0 .798-.061 1.09-.183.292-.122.517-.308.677-.559.16-.25.24-.52.24-.806 0-.317-.068-.583-.2-.799-.134-.215-.319-.385-.555-.509-.235-.124-.6-.244-1.092-.36-.492-.117-.802-.228-.93-.335-.1-.085-.15-.186-.15-.305 0-.13.054-.233.161-.31.166-.121.396-.182.69-.182.285 0 .499.057.641.17.114.09.196.226.247.409l.032.146 1.012-.045c-.016-.46-.183-.828-.501-1.104-.318-.275-.791-.413-1.42-.413zm-9.074.085H7.702V16.5h1.012v-1.89h.66c.458 0 .808-.024 1.05-.072.177-.039.352-.118.524-.237.172-.12.314-.285.425-.494.112-.21.168-.469.168-.776 0-.399-.097-.724-.29-.976-.194-.252-.435-.415-.722-.49-.166-.045-.501-.07-1.006-.075h-.197zm6.668 0h-3.982v.848H13.5V16.5h1.012v-4.163h1.483v-.848zM11.5 2c1.685 0 3.268.439 4.64 1.208C15.448 3.072 14.732 3 14 3 7.925 3 3 7.925 3 14c0 .732.072 1.448.208 2.14C2.438 14.768 2 13.185 2 11.5 2 6.253 6.253 2 11.5 2zM9.203 12.337c.364 0 .607.011.728.034.164.03.3.104.407.222.107.119.16.27.16.451 0 .149-.038.278-.114.39-.077.112-.182.194-.316.246-.135.053-.401.079-.8.079h-.554v-1.422h.489zM9 0c1.624 0 3.148.43 4.463 1.183C12.827 1.063 12.171 1 11.5 1 5.701 1 1 5.701 1 11.5c0 .67.063 1.327.183 1.963C.43 12.148 0 10.624 0 9c0-4.97 4.03-9 9-9z" transform="translate(-16 -453) translate(0 433) translate(16 20)"/>
                </g>
            </g>
        </g>
    </g>
</svg>
