<svg height="576" width="576" xmlns="http://www.w3.org/2000/svg"><path d="M232.116 243.876c-2.395-.986-6.973-.376-13.745-.376h-26.372l-8.009 36h22.665c8.784 0 15.237-1.389 19.354-3.222 4.122-1.849 7.408-4.886 9.885-8.668 2.485-3.773 3.724-7.889 3.724-12.126 0-3.276-.651-5.459-1.964-7.533s-3.163-3.096-5.538-4.075z"/><path d="M527.971 214.361l-40.705-42.696-8.086-34.478-44.798-20.992-51.558-54.068-55.257 4.032-40.526-18.985-55.444 25.992-61.429 4.479-25.353 36.195-49.938 23.396-16.87 71.95-27.975 39.927 10.7 33.732-13.312 56.771 51.111 62.42 14.41 45.434 33.186 14.944 34.265 44.086h75.176l55.995 21.415 38.12-21.415h43.98l37.466-48.004 65.139-37.704 8.174-53.49 22.203-27.387-10.866-46.471zm-275.463 46.927a36.244 36.244 0 0 1-1.948 6.354c-.87 2.14-1.845 4.097-2.94 5.855a29.062 29.062 0 0 1-3.614 4.729 36.732 36.732 0 0 1-3.99 3.657c-1.339 1.044-2.686 1.917-4.045 2.621s-2.762 1.326-4.211 1.85c-1.45.522-2.946.953-4.488 1.292-3.295.748-6.611 2.109-9.945 2.493-3.333.373-6.683 1.362-10.05 1.362h-25.733l-4.347 20.005-4.352 19.995h-13.746l10.763-50.5 10.762-50.5h42.926c3.722 0 6.978.188 9.766.602 2.788.415 5.106 1.035 6.965 1.865a18.728 18.728 0 0 1 5.102 3.371c1.539 1.418 2.911 3.141 4.13 5.149a24.966 24.966 0 0 1 2.732 6.41c.61 2.255.917 4.634.917 7.131a30.925 30.925 0 0 1-.654 6.259zm54.415-17.788l-18.999 88h-13.751l19.004-88h-33.743l2.459-13h80.937l-2.444 13zm111.558 15.351l-13.25 1.028c0-2.829-.267-5.036-.78-6.628-.929-2.778-2.381-5.108-4.349-7.016-1.964-1.916-4.664-3.451-8.097-4.62-3.443-1.153-7.28-1.734-11.544-1.734-7.481 0-13.298 1.633-17.466 4.911-3.176 2.504-4.771 5.822-4.771 9.96 0 2.456.663 4.654 1.964 6.594 1.314 1.933 3.672 3.832 7.092 5.69 2.432 1.318 8.214 3.931 17.315 7.854 7.395 3.177 12.497 5.68 15.305 7.497 3.735 2.413 6.604 5.332 8.615 8.766 2.017 3.444 3.014 7.334 3.014 11.704 0 5.422-1.682 10.409-5.075 14.985-3.393 4.562-8.084 8.104-14.065 10.61-5.98 2.503-12.844 3.754-20.545 3.754-11.655 0-21.159-2.461-28.515-7.407-7.369-4.932-11.07-13.816-11.121-26.646l13.47-1.226-.141 3.474c0 3.865.905 7.406 2.74 10.617 1.812 3.201 4.834 5.68 9.04 7.432 4.213 1.749 9.207 2.629 15.014 2.629 8.223 0 14.509-1.751 18.833-5.243 4.323-3.517 6.489-7.521 6.489-12.009 0-3.152-1.146-6.005-3.44-8.619-2.338-2.536-8.727-6.005-19.155-10.366-8.085-3.401-13.593-6.021-16.555-7.846-4.616-2.953-8.029-6.179-10.226-9.646-2.208-3.492-3.305-7.456-3.305-11.918 0-5.134 1.454-9.77 4.35-13.918 2.893-4.146 7.144-7.298 12.729-9.479 5.586-2.181 11.885-3.276 18.898-3.276 8.378 0 15.428 1.368 21.197 4.097 5.736 2.729 9.917 6.361 12.509 10.915 2.601 4.544 3.888 8.883 3.888 13.03.001.407-.015 1.095-.062 2.05z"/></svg>