<svg height="576" width="576" xmlns="http://www.w3.org/2000/svg"><path d="M389.793 344.933l-45.426 45.417c-2.075 2.075-4.457 3.113-7.146 3.113-2.705 0-5.087-1.038-7.154-3.113l-42.622-42.618-42.622 42.618c-2.076 2.075-4.458 3.113-7.154 3.113-2.692 0-5.079-1.038-7.15-3.113l-45.417-45.417c-2.076-2.075-3.109-4.457-3.109-7.154 0-2.688 1.034-5.078 3.109-7.146l42.622-42.626-42.622-42.623c-2.076-2.072-3.109-4.458-3.109-7.15 0-2.696 1.034-5.078 3.109-7.154l45.417-45.417c2.071-2.071 4.458-3.109 7.15-3.109 2.696 0 5.078 1.038 7.154 3.109l42.622 42.623 42.622-42.623c2.067-2.071 4.449-3.109 7.154-3.109 2.688 0 5.07 1.038 7.146 3.109l45.426 45.417c2.066 2.076 3.104 4.458 3.104 7.154 0 2.692-1.038 5.078-3.104 7.15l-42.627 42.623 42.627 42.626c2.066 2.067 3.104 4.458 3.104 7.146 0 2.697-1.038 5.078-3.104 7.154zm66.879-56.935c0-30.696-7.571-59.006-22.713-84.93s-35.677-46.455-61.588-61.592c-25.928-15.142-54.238-22.708-84.935-22.708-30.7 0-59.01 7.566-84.93 22.708-25.924 15.137-46.455 35.668-61.596 61.592-15.138 25.924-22.708 54.233-22.708 84.93 0 30.691 7.571 59.002 22.708 84.93 15.142 25.929 35.672 46.455 61.596 61.588 25.92 15.142 54.229 22.713 84.93 22.713 30.696 0 59.007-7.571 84.935-22.713 25.911-15.133 46.446-35.659 61.588-61.588 15.142-25.928 22.713-54.239 22.713-84.93zm69.685 0c0 43.35-10.685 83.322-32.053 119.926-21.369 36.612-50.342 65.595-86.955 86.955-36.595 21.359-76.576 32.035-119.921 32.053-43.354 0-83.331-10.685-119.93-32.053-36.604-21.369-65.586-50.359-86.95-86.955-21.369-36.595-32.049-76.567-32.049-119.926s10.68-83.331 32.049-119.931c21.364-36.595 50.346-65.581 86.95-86.95 36.6-21.368 76.576-32.053 119.93-32.048 43.345.008 83.327 10.688 119.921 32.048 36.613 21.36 65.586 50.342 86.955 86.95 21.369 36.609 32.053 76.585 32.053 119.931z"/></svg>