<svg height="576" width="576" xmlns="http://www.w3.org/2000/svg"><path d="M380.644 251.104c0-35.816-12.723-66.459-38.183-91.924-25.461-25.464-56.104-38.194-91.928-38.19-35.825.008-66.467 12.738-91.928 38.19-25.457 25.453-38.188 56.096-38.188 91.924 0 35.833 12.73 66.479 38.188 91.924 25.46 25.461 56.103 38.184 91.928 38.191 35.824.008 66.467-12.723 91.928-38.191 25.46-25.462 38.183-56.1 38.183-91.924zm148.713 241.654c0 10.062-3.685 18.773-11.039 26.128-7.354 7.361-16.073 11.038-26.144 11.038-10.451 0-19.171-3.677-26.128-11.038l-99.619-99.317c-34.664 24.007-73.292 36.007-115.887 36.007-27.688 0-54.166-5.368-79.436-16.113-25.271-10.745-47.054-25.263-65.352-43.56-18.297-18.297-32.818-40.089-43.563-65.359s-16.117-51.747-16.117-79.432c0-27.684 5.373-54.165 16.117-79.432 10.745-25.27 25.267-47.054 43.563-65.351 18.298-18.298 40.081-32.819 65.352-43.563 25.27-10.749 51.747-16.118 79.436-16.118 27.688 0 54.165 5.369 79.436 16.118 25.27 10.745 47.054 25.266 65.351 43.563 18.298 18.297 32.823 40.081 43.56 65.351 10.753 25.267 16.122 51.748 16.122 79.432 0 42.599-12.008 81.227-36.023 115.884l99.619 99.619c7.163 7.162 10.752 15.874 10.752 26.143z"/></svg>