<svg width="24" height="24" viewBox="0 0 24 24" fill="none" xmlns="http://www.w3.org/2000/svg">
<path d="M3 6.5C3 5.67157 3.67157 5 4.5 5H19.5C20.3284 5 21 5.67157 21 6.5C21 7.32843 20.3284 8 19.5 8H4.5C3.67157 8 3 7.32843 3 6.5Z" fill="white"/>
<path d="M3 6.5C3 5.67157 3.67157 5 4.5 5H19.5C20.3284 5 21 5.67157 21 6.5C21 7.32843 20.3284 8 19.5 8H4.5C3.67157 8 3 7.32843 3 6.5Z" fill="#304CB2" fill-opacity="0.301569"/>
<path d="M3 12.5C3 11.6716 3.67157 11 4.5 11H11.5C12.3284 11 13 11.6716 13 12.5C13 13.3284 12.3284 14 11.5 14H4.5C3.67157 14 3 13.3284 3 12.5Z" fill="white"/>
<path d="M3 12.5C3 11.6716 3.67157 11 4.5 11H11.5C12.3284 11 13 11.6716 13 12.5C13 13.3284 12.3284 14 11.5 14H4.5C3.67157 14 3 13.3284 3 12.5Z" fill="#304CB2" fill-opacity="0.301569"/>
<path d="M3 18.5C3 17.6716 3.67157 17 4.5 17H7.5C8.32843 17 9 17.6716 9 18.5C9 19.3284 8.32843 20 7.5 20H4.5C3.67157 20 3 19.3284 3 18.5Z" fill="white"/>
<path d="M3 18.5C3 17.6716 3.67157 17 4.5 17H7.5C8.32843 17 9 17.6716 9 18.5C9 19.3284 8.32843 20 7.5 20H4.5C3.67157 20 3 19.3284 3 18.5Z" fill="#304CB2" fill-opacity="0.301569"/>
</svg>
