<svg height="576" width="576" xmlns="http://www.w3.org/2000/svg"><path d="M457.686 259.548C423.337 200.616 359.475 161 286.34 161c-73.48 0-137.617 39.982-171.848 99.377-38.065 9.308-66.319 43.624-66.319 84.56 0 48.084 38.981 87.063 87.065 87.063s87.065-38.979 87.065-87.063c0-33.951-19.444-63.342-47.794-77.699 24.467-35.932 65.637-59.577 112.387-59.577 47.095 0 88.478 24.027 112.873 60.407-27.468 14.643-46.172 43.564-46.172 76.869 0 48.084 38.979 87.063 87.063 87.063 48.083 0 87.062-38.979 87.062-87.063.001-42.262-30.107-77.472-70.036-85.389zM440.66 387.21c-23.349 0-42.273-18.929-42.273-42.273 0-23.348 18.925-42.273 42.273-42.273s42.272 18.926 42.272 42.273c.001 23.344-18.924 42.273-42.272 42.273z"/></svg>