<svg xmlns="http://www.w3.org/2000/svg" width="36" height="36" viewBox="0 0 36 36">
    <path fill="#00ADEE" fill-rule="evenodd" d="M17.757 0C7.95 0 0 7.95 0 17.757c0 9.807 7.95 17.757 17.757 17.757 9.807 0 17.757-7.95 17.757-17.757A17.756 17.756 0 0 0 17.757 0zm7.221 14.546A9.952 9.952 0 0 1 9.677 23.38a7.043 7.043 0 0 0 5.178-1.45 3.503 3.503 0 0 1-3.267-2.433c.216.048.437.07.659.068.311-.002.62-.044.921-.126a3.496 3.496 0 0 1-2.805-3.425v-.049a3.49 3.49 0 0 0 1.584.438 3.503 3.503 0 0 1-1.082-4.67 9.915 9.915 0 0 0 7.209 3.658 3.498 3.498 0 0 1 5.96-3.19 7.011 7.011 0 0 0 2.22-.847 3.528 3.528 0 0 1-1.537 1.936 6.966 6.966 0 0 0 2.009-.555 7.169 7.169 0 0 1-1.747 1.81z"/>
</svg>
