<?xml version="1.0" encoding="UTF-8"?>
<svg width="24px" height="24px" viewBox="0 0 24 24" version="1.1" xmlns="http://www.w3.org/2000/svg" xmlns:xlink="http://www.w3.org/1999/xlink">
    <title>Artboard Copy 3</title>
    <g id="Artboard-Copy-3" stroke="none" stroke-width="1" fill="none" fill-rule="evenodd">
        <g id="icon_doubleBags-2" transform="translate(1.000000, 5.000000)" fill="#111B40">
            <path d="M0,4.15929369 L0,9.89966517 C0,10.1155729 0.264649544,10.3774514 0.479468746,10.3774514 L4.31114034,10.3774514 L4.31114034,3.67944131 L0.479468746,3.67944131 C0.264649544,3.67944131 0,3.94250047 0,4.15929369 M4.31114775,2.25060578 L4.31003547,2.23496243 L4.32545915,2.23621685 L5.86174641,2.23621685 L7.2079072,2.23621685 L7.2079072,2.23496243 L8.17062646,2.23496243 L8.17062646,1.71341905 C8.17062646,1.49662584 7.95988563,1.2883184 7.7440283,1.2883184 L3.77243132,1.2883184 C3.55679645,1.2883184 3.3454624,1.49662584 3.3454624,1.71341905 L3.3454624,3.19297003 L4.31114775,3.19297003 L4.31114775,2.25060578 Z M21.3118667,3.41999783 L19.2069796,3.41999783 L18.6707844,3.41999783 L6.18338941,3.41999783 C5.87617645,3.41999783 5.49755483,3.79617612 5.49755483,4.10631291 L5.49755483,12.3165627 C5.49755483,12.6253713 5.87617645,13 6.18338941,13 L18.6707844,13 L19.2069796,13 L21.3118667,13 C21.3118667,13 22,12.9795603 22,12.3165627 L22,4.10631291 C22,3.79617612 21.6218974,3.41999783 21.3118667,3.41999783 M11.6841995,1.35580617 L13.8814804,1.35580617 L15.8069189,1.35580617 L15.8069189,2.72415654 L17.1838529,2.72415654 L17.1838529,0.608098328 C17.1838529,0.29796154 16.8824238,0 16.5736536,0 L10.893217,0 C10.5848176,0 10.2825728,0.29796154 10.2825728,0.608098328 L10.2825728,2.72415654 L11.6841995,2.72415654 L11.6841995,1.35580617 Z" id="icon_doubleBags"></path>
        </g>
    </g>
</svg>
