<svg xmlns="http://www.w3.org/2000/svg" width="24" height="24" viewBox="0 0 24 24">
    <path fill="#636363" fill-rule="evenodd" d="M15.147 17.541c2.636 0 4.983 1.048 6.808 2.67H8.301a10.03 10.03 0 0 1 6.846-2.67zM3.283 7.131l-2.5-.742c.625-.88 1.4-1.389 2.315-1.539a4.67 4.67 0 0 1 2.67.337 4.78 4.78 0 0 1 2.145-1.892c.914-.418 1.909-.388 2.975.069l-1.74 1.942a5.185 5.185 0 0 1 3.075.187c1.013.373 1.757 1.15 2.214 2.314l-3.871.22c1.15.998 1.79 2.383 1.386 4.141L8.218 9.852l3.244 7.603c-.794.272-1.757.745-2.45 1.15l-2.485-8.094-2.044 4.005c-1.235-1.267-1.453-2.788-.98-4.225l-3.43 1.825C-.13 10.85.09 9.784.75 8.923c.659-.863 1.503-1.47 2.534-1.792zm15.208 6.861l.44.035h.438l-.032.978c-.021.576-1.03.592-.896-.05l.05-.963zm4.968-2.67l-1.064-.05c.085-.27.135-.576.187-.896l.98.05c.27.015.438.22.438.49-.05.22-.27.39-.54.406zm-1.808 1.588l.66.761c.4.46-.286.985-.66.574l-.674-.744c.27-.168.489-.37.674-.59zm-6.048.321l.709-.625c.085.137.18.26.287.355l.338.305-.76.676c-.402.357-1.065-.405-.574-.71zm.168-2.399l-1.065-.05c-.572-.028-.505-.98.085-.88l.946.034c-.017.322 0 .61.034.896zm.71-.406c.038-.729.355-1.334.878-1.791a2.603 2.603 0 0 1 1.928-.66c1.505.102 2.593 1.305 2.483 2.807-.11 1.473-1.301 2.45-2.788 2.45-1.503-.136-2.581-1.302-2.501-2.806zm.1-2.128l-.675-.761c-.34-.384.312-1.021.711-.574l.676.76c-.256.17-.49.355-.711.575zm2.756-1.116h-.455l.05-.979c-.035-.592 1.03-.509.894.084l-.05.979a2.035 2.035 0 0 0-.439-.084zm3.278.76l-.71.66a5.359 5.359 0 0 0-.287-.356l-.34-.303.762-.676c.449-.399 1.03.32.575.676z"/>
</svg>
