<svg height="27.9" width="32.1" xmlns="http://www.w3.org/2000/svg"><g fill="#eb6500"><path d="M28.1 17s-.1 0-.3-.1c-.1 0-.2-.1-.3-.1s-.1 0-.2-.1c-.1 0-.2 0-.2-.1-.1 0-.2 0-.3-.1-.1 0-.2 0-.3-.1-.1 0-.2 0-.3-.1-.1 0-.2 0-.3-.1-.1 0-.2-.1-.4-.1-.1 0-.3 0-.4-.1-.1 0-.3 0-.4-.1-.1 0-.3 0-.4-.1h-1.9c-.7 0-1.4.1-2.1.3-.2 0-.4.1-.5.1-.2 0-.4.1-.5.2-.1 0-.2.1-.3.1h-.1l-.1.1c-.1 0-.2.1-.3.1s-.2.1-.3.1c-.3.1-.7.3-1 .5l-.3.1-.1.1-.1.1-.4.4-.2.2c-.6.4-1.3.9-1.8 1.4-.3.3-.6.5-.8.8l-.8.8c-.5.5-1 1.1-1.4 1.6s-.8 1.1-1.1 1.6-.6 1-.9 1.4-.5.8-.7 1.1-.3.6-.4.7c-.1.2-.1.3-.1.3v-.3c0-.2.1-.5.2-.8s.2-.8.4-1.2c.2-.5.4-1 .7-1.6.1-.3.3-.6.4-.9.1-.1.2-.3.2-.4.1-.2.2-.3.3-.5.4-.6.8-1.2 1.3-1.9.2-.3.5-.6.8-.9.1-.2.3-.3.4-.4l.4-.4c.6-.6 1.3-1.1 2-1.6l.3-.2.3-.2.1-.1.1-.1.3-.2c.4-.2.8-.4 1.2-.5.4-.2.8-.3 1.2-.4.2 0 .4-.1.6-.1.1 0 .2 0 .3-.1h.3c.8-.1 1.6-.1 2.3-.1.7.1 1.4.2 2 .3.6.2 1.2.3 1.6.5.1 0 .2.1.3.1s.2.1.3.1.2.1.3.1.2.1.3.1c.2.1.3.2.4.2.1.1.2.1.3.2.3.4.4.4.4.4z"/><path d="M3 9.4c.1-.1.1-.2.2-.3.2-.1.4-.3.7-.6s.7-.6 1.2-1 1-.7 1.7-1.1c.3-.2.7-.3 1-.5.4-.1.8-.3 1.2-.4.2-.1.4-.1.6-.2.2 0 .4-.1.7-.1.2 0 .4-.1.7-.1.2 0 .5-.1.7-.1h1.5c.5 0 1 .1 1.5.2.1 0 .2 0 .4.1.1 0 .2.1.4.1.2.1.5.1.7.2.1 0 .2.1.4.1.1 0 .2.1.4.1.2.1.5.2.7.3.9.4 1.8.9 2.6 1.4.2.1.4.3.6.4-.1.1.1.3.3.4s.4.3.5.4l.3.3c.1.1.2.2.3.2.7.6 1.3 1.3 1.9 1.9.1.2.3.3.4.5s.3.3.4.5c.2.3.5.6.7.9.1.1.2.3.3.4s.2.3.3.4.2.3.3.4.2.3.2.4c.1.1.2.2.2.4.1.1.1.2.2.3.1.2.2.4.4.6.1.2.2.3.3.5.1.1.1.3.2.4.1.2.2.3.2.3s-.3-.1-.4-.3-.4-.4-.6-.7c-.1-.2-.3-.3-.5-.5s-.3-.4-.5-.6l-.3-.3-.3-.3c-.1-.1-.2-.2-.3-.4l-.4-.4c-.5-.5-1-1.1-1.6-1.6l-.4-.4c-.2-.1-.3-.3-.5-.4s-.3-.3-.5-.4-.3-.3-.5-.4c-.3-.3-.7-.5-1.1-.8-.2-.3-.4-.5-.6-.6s-.4-.3-.6-.4c-.8-.5-1.6-.9-2.4-1.3-.8-.3-1.7-.6-2.5-.7-.9-.2-1.7-.3-2.6-.3h-.6c-.2 0-.4 0-.6.1-.2 0-.4.1-.6.1s-.4.1-.6.1-.4.1-.6.1-.4.1-.5.1c-.2.1-.4.1-.6.2s-.3.1-.5.2c-.2 0-.3.1-.5.2-.1 0-.3.1-.4.2-.3.1-.6.2-.8.4-.5.2-1 .5-1.3.7-.4.2-.7.4-.8.5-.2.2-.3.2-.3.2zm5.1 3.5c-2.6 0-4.7 2.1-4.7 4.7s2.1 5.7 4.7 10.2c2.7-4.6 4.7-7.6 4.7-10.2s-2.1-4.7-4.7-4.7zm0 6.3c-.9 0-1.7-.8-1.7-1.7s.8-1.7 1.7-1.7 1.7.8 1.7 1.7c0 1-.8 1.7-1.7 1.7z"/><path d="M28.1 4.3c-2.2 0-4 1.8-4 4s1.8 4.8 4 8.7c2.3-3.9 4-6.5 4-8.7s-1.8-4-4-4zm0 5.4c-.8 0-1.4-.6-1.4-1.4s.6-1.4 1.4-1.4 1.4.6 1.4 1.4c.1.8-.6 1.4-1.4 1.4zM3 0C1.3 0 0 1.3 0 3s1.3 3.6 3 6.5C4.7 6.6 6 4.6 6 3c0-1.7-1.4-3-3-3zm0 4c-.6 0-1.1-.5-1.1-1.1S2.4 1.8 3 1.8s1.1.5 1.1 1.1S3.6 4 3 4z"/></g></svg>