<?xml version="1.0" encoding="utf-8"?>
<svg version="1.1" id="Layer_1" xmlns="http://www.w3.org/2000/svg" xmlns:xlink="http://www.w3.org/1999/xlink" x="0px" y="0px"
	 viewBox="0 0 36 36" style="enable-background:new 0 0 36 36;" xml:space="preserve">
<style type="text/css">
	.st0{fill:#111B40;}
</style>
<path class="st0" d="M18,0C8.1,0,0,8.1,0,18s8.1,18,18,18s18-8.1,18-18S27.9,0,18,0z M23.3,16.6c1.9,0,3.4,1.6,3.4,3.7
	c0,2.2-1.6,4.1-3.4,4.1s-3.4-1.9-3.4-4.1C20,18.2,21.4,16.6,23.3,16.6z M23.1,26.3l0.2,0.1l0.2-0.1c0.1,0,1.8-1,3.2-2.1l0.8,0.3
	c2.2,0.8,2.2,2.2,2.2,2.2c0,0.3,0,0.6,0,0.7c-0.5,0.4-2.5,1.6-6.3,1.6c-3.8,0-6-1.3-6.6-1.6c0-0.2,0-0.4,0-0.7
	c0-0.4,0.4-1.5,2.2-2.2c0.2-0.1,0.7-0.2,1-0.3C21.1,25.2,23,26.3,23.1,26.3z M15.3,5c3.1,0,5.5,2.5,5.5,6.1c0,3.5-2.5,6.7-5.5,6.7
	s-5.5-3.2-5.5-6.7C9.8,7.5,12.2,5,15.3,5z M5.2,22.9c0,0-0.1-0.7-0.1-1.4c0-0.7,0.6-2.7,3.6-3.8c0.6-0.2,1.8-0.6,1.8-0.6
	c1.7,1.7,4.8,3.3,4.8,3.3s2.8-1.5,4.7-3.2c0,0,0,0,0,0c-0.7,0.8-1.1,1.9-1.1,3.2c0,1,0.3,2,0.7,2.8c-0.3,0.1-0.8,0.3-1.1,0.4
	c-1.4,0.5-2.2,1.3-2.6,2.1c-0.2,0-0.4,0-0.7,0C8.5,25.6,5.2,22.9,5.2,22.9z"/>
</svg>
