<svg xmlns="http://www.w3.org/2000/svg" width="200" height="36" viewBox="0 0 200 36">
    <g fill="none" fill-rule="evenodd">
        <rect width="200" height="36" fill="#000" rx="4"/>
        <text fill="#FFF" font-family="ITCAvantGardeStd-Md, ITC Avant Garde Gothic Std" font-size="14" font-weight="400" transform="translate(16 10)">
            <tspan x="66" y="13">Save to phone</tspan>
        </text>
        <g fill-rule="nonzero">
            <g fill="#FFF">
                <path d="M35.264 13.373v4.083h2.518c.6 0 1.096-.201 1.489-.604.402-.403.604-.882.604-1.438 0-.544-.202-1.018-.604-1.421-.393-.413-.889-.62-1.489-.62h-2.518zm0 5.52v4.737H33.76V11.936h3.99c1.013 0 1.874.338 2.583 1.013.72.674 1.08 1.497 1.08 2.465 0 .992-.36 1.82-1.08 2.483-.698.664-1.56.996-2.583.996h-2.486zM42.932 21.18c0 .392.166.719.5.98.332.261.721.392 1.168.392.632 0 1.196-.234 1.692-.702.496-.468.744-1.018.744-1.649-.47-.37-1.123-.555-1.962-.555-.611 0-1.12.147-1.529.441-.408.294-.613.657-.613 1.093m1.946-5.814c1.112 0 1.99.297 2.633.89.643.594.964 1.408.964 2.442v4.932h-1.438v-1.11h-.066c-.621.914-1.45 1.371-2.485 1.371-.883 0-1.622-.261-2.215-.784-.594-.522-.892-1.176-.892-1.96 0-.827.313-1.485.94-1.975s1.463-.736 2.51-.736c.893 0 1.63.164 2.207.49v-.343c0-.523-.208-.966-.622-1.331a2.132 2.132 0 0 0-1.454-.547c-.84 0-1.505.354-1.995 1.062l-1.325-.833c.73-1.046 1.81-1.568 3.238-1.568M56.732 15.627l-5.02 11.53h-1.553l1.864-4.034-3.303-7.496h1.635l2.387 5.75h.033l2.322-5.75z"/>
            </g>
            <path fill="#4285F4" d="M29.187 17.873c0-.474-.04-.93-.116-1.367h-6.344v2.588h3.633a3.11 3.11 0 0 1-1.343 2.042v1.681h2.168c1.27-1.17 2.002-2.9 2.002-4.944"/>
            <path fill="#34A853" d="M22.727 24.44c1.815 0 3.344-.596 4.458-1.623l-2.168-1.68c-.604.405-1.381.642-2.29.642-1.755 0-3.244-1.181-3.777-2.773h-2.233v1.73a6.728 6.728 0 0 0 6.01 3.703"/>
            <path fill="#FABB05" d="M18.95 19.006a4.034 4.034 0 0 1 0-2.573v-1.73h-2.233A6.678 6.678 0 0 0 16 17.72c0 1.085.259 2.11.717 3.017l2.233-1.731z"/>
            <path fill="#E94235" d="M22.727 13.66c.991 0 1.88.34 2.58 1.008l1.92-1.917C26.061 11.666 24.541 11 22.727 11a6.728 6.728 0 0 0-6.01 3.702l2.233 1.731c.533-1.592 2.022-2.773 3.777-2.773"/>
        </g>
        <path fill="#8F8F8F" d="M69 10h1v16h-1z"/>
    </g>
</svg>
