<?xml version="1.0" encoding="utf-8"?>
<!-- Generator: Adobe Illustrator 16.0.4, SVG Export Plug-In . SVG Version: 6.00 Build 0)  -->
<!DOCTYPE svg PUBLIC "-//W3C//DTD SVG 1.1//EN" "http://www.w3.org/Graphics/SVG/1.1/DTD/svg11.dtd">
<svg xmlns:xlink="http://www.w3.org/1999/xlink" xmlns="http://www.w3.org/2000/svg" version="1.1" width="39px" height="44px">
  <g transform="matrix(1 0 0 1 -14 -204 )">
    <path d="M 7.003364066304758 40.55240335000408  C 7.003364066304758 40.55240335000408  7.003364066304758 37.31537957755518  7.003364066304758 37.31537957755518  L 2.3106741632477834 35.42244872100194  C 0.44106515046315775 34.63279413291317  -0.4980472107973452 32.49064604820436  0.28885427845455314 30.650918869572216  C 0.28885427845455314 30.650918869572216  5.033238439929543 19.48934728048803  5.033238439929543 19.48934728048803  C 6.181999738107507 16.76195873864969  8.916051627771067 14.986636012237287  11.948781454960901 14.986636012237287  C 11.948781454960901 14.986636012237287  13.809774758009194 14.986636012237287  13.809774758009194 14.986636012237287  C 11.943037648470012 13.424127997508496  10.756941608101252 11.108367911163283  10.756941608101252 8.520989048064044  C 10.756941608101252 3.813863648854067  14.668473828397216 0  19.49614318399013 0  C 24.323812539583024 0  28.235344759878988 3.813863648854067  28.235344759878988 8.520989048064044  C 28.235344759878988 11.108367911163283  27.05212062275567 13.424127997508496  25.182511609971044 14.986636012237287  C 25.182511609971044 14.986636012237287  27.05212062275567 14.986636012237287  27.05212062275567 14.986636012237287  C 30.084850449945503 14.986636012237287  32.81890233960907 16.76475893222435  33.96766363778703 19.48934728048803  C 33.96766363778703 19.48934728048803  38.71779160575291 30.650918869572216  38.71779160575291 30.650918869572216  C 39.49320548202305 32.4878458546297  38.617274992162336 34.607592390740244  36.74479407613227 35.39724697882901  L 31.57536823433142 37.48619138561692  C 31.57536823433142 37.48619138561692  31.57536823433142 40.55240335000408  31.57536823433142 40.55240335000408  C 31.57536823433142 42.12611213903191  30.02454048179118 43.41420118343201  28.129084339797533 43.41420118343201  C 28.129084339797533 43.41420118343201  10.449647960838673 43.41420118343201  10.449647960838673 43.41420118343201  C 8.554191818845027 43.41420118343201  7.003364066304758 42.12611213903191  7.003364066304758 40.55240335000408  Z M 19.069440417512496 34.431952662721834  L 27.48796752681952 30.9135974416996  L 28.500000000000167 30.490250634617336  C 28.500000000000167 30.490250634617336  21.670194259205733 25.876342527699776  21.670194259205733 25.876342527699776  C 20.488547405045114 25.075416135922296  18.834807190490167 25.43011210942371  18.17613801101784 26.705873433469186  C 16.946433748912888 29.088629449006984  14.47854450565399 30.716226295154524  11.637503624239086 30.716226295154524  C 10.70745143519877 30.716226295154524  9.81980284140348 30.533157405605415  9.000000000000167 30.212786848894424  C 9.000000000000167 30.212786848894424  10.67635546535245 30.9135974416996  10.67635546535245 30.9135974416996  L 19.069440417512496 34.431952662721834  Z M 11.249999999999764 17.964497041420163  C 8.3517826336973 17.964497041420163  5.999999999999774 20.308628028759024  5.999999999999774 23.204142011834303  C 5.999999999999774 26.099655994909774  8.348763657274066 28.44378698224864  11.249999999999764 28.44378698224864  C 14.14821736630225 28.44378698224864  16.499999999999776 26.096642973075124  16.499999999999776 23.204142011834303  C 16.499999999999776 20.311641050593675  14.14821736630225 17.964497041420163  11.249999999999764 17.964497041420163  Z " fill-rule="nonzero" fill="#111b40" stroke="none" transform="matrix(1 0 0 1 14 204 )"/>
  </g>
</svg>