<svg xmlns="http://www.w3.org/2000/svg" width="18" height="18" viewBox="0 0 18 18">
    <path fill="#111B40" fill-rule="evenodd" d="M9 0C4.028 0 0 4.028 0 9s4.028 9 9 9 9-4.028 9-9-4.028-9-9-9zm.826 13.216v1.049H8.323v-.94c-.721-.06-1.673-.323-2.373-.708l.499-1.73c.795.31 1.952.7 2.809.512.747-.162.94-.835.057-1.215-.743-.336-3.308-.686-3.308-2.827 0-.887.664-2.11 2.32-2.468V3.823H9.83V4.8c.642.044 1.298.162 2.058.402-.074.332-.402 1.77-.402 1.77-.524-.18-1.38-.49-2.202-.441-1.014.056-1.088.8-.402 1.14 1.402.633 3.434 1.175 3.434 3.067-.004 1.455-1.14 2.29-2.49 2.477z"/>
</svg>
