<?xml version="1.0" encoding="utf-8"?>
<!-- Generator: Adobe Illustrator 19.2.1, SVG Export Plug-In . SVG Version: 6.00 Build 0)  -->
<!DOCTYPE svg PUBLIC "-//W3C//DTD SVG 1.1//EN" "http://www.w3.org/2000/svg">
<svg version="1.1" id="Layer_1" xmlns="http://www.w3.org/2000/svg" xmlns:xlink="http://www.w3.org/1999/xlink" x="0px" y="0px"
	 viewBox="0 0 41.6 33.5" style="enable-background:new 0 0 41.6 33.5;" xml:space="preserve">
<style type="text/css">
	.st0{fill:#a4baf2;}
</style>
<g>
	<path class="st0" d="M41.6,11.1c0-0.8-1-1.7-1.7-1.7H37v24.2h2.9c0,0,1.7-0.1,1.7-1.7V11.1z"/>
	<rect x="7.9" y="9.3" class="st0" width="26" height="24.2"/>
	<path class="st0" d="M15.7,3.4h5.5h4.8v3.5h3.5V1.5C29.5,0.8,28.8,0,28,0H13.7c-0.8,0-1.5,0.8-1.5,1.5v5.3h3.5V3.4z"/>
	<path class="st0" d="M0,11.1c0-0.8,1-1.7,1.7-1.7h2.9v24.2H1.7c0,0-1.7-0.1-1.7-1.7L0,11.1z"/>
</g>
</svg>
