<svg xmlns="http://www.w3.org/2000/svg" width="32" height="32" viewBox="0 0 32 32">
    <g fill="none">
        <circle cx="16" cy="16" r="16" fill="#304CB2"/>
        <path fill="#FFF" d="M23.467 9.114s0-.332-.125-.456c-.125-.125-.458-.125-.458-.125-.332 0-1.414 0-2.828 1.452l-2.371 2.365-7.53-1.991c-.374-.125-.623.124-.623.124l-.999.996 6.49 3.525-.874.872c-.5.456-.998 1.161-1.456 1.783l-2.246-.29c-.458-.083-.707.207-.707.207l-.999.996 2.62 1.203c-.332.622-.249 1.078-.249 1.078l.042.042s.458.083 1.081-.25L13.4 23.26l.999-.995s.25-.25.207-.705l-.25-2.282c.625-.456 1.332-.996 1.79-1.452l.873-.87 3.494 6.512.999-.996s.25-.249.166-.622l-1.997-7.508 2.371-2.406c1.415-1.41 1.415-2.448 1.415-2.82z"/>
    </g>
</svg>
