<?xml version="1.0" encoding="utf-8"?>
<!-- Generator: Adobe Illustrator 23.0.1, SVG Export Plug-In . SVG Version: 6.00 Build 0)  -->
<svg version="1.1" xmlns="http://www.w3.org/2000/svg" xmlns:xlink="http://www.w3.org/1999/xlink" x="0px" y="0px" width="153px"
	 height="167px" viewBox="0 0 153 167" enable-background="new 0 0 153 167" xml:space="preserve">
<g id="_x2014_ÎÓÈ_x5F_2">
</g>
<g id="_x2014_ÎÓÈ_x5F_3">
	<path fill="#1A2C80" d="M142.74,113.05l-16.52-39.86c-4-9.74-13.52-16.08-24.08-16.08h-6.48c6.5-5.58,10.63-13.85,10.63-23.09
		c0-16.81-13.62-30.43-30.43-30.43c-16.81,0-30.43,13.62-30.43,30.43c0,9.24,4.12,17.51,10.63,23.09h-6.51
		c-10.56,0-20.08,6.35-24.08,16.08L8.93,113.05c-2.7,6.56,0.35,14.13,6.87,16.95l0.22,0.09l17.78,7.37v10.95
		c0,5.62,5.4,10.22,12,10.22h61.56c6.6,0,12-4.6,12-10.22v-11.56l16.34-6.76l0.22-0.09C142.43,127.18,145.48,119.62,142.74,113.05z
		 M66.67,96.74c4.18-2.8,10.03-1.56,12.36,2.9c4.35,8.33,13.08,14.02,23.13,14.02c3.29,0,6.43-0.64,9.33-1.76l-5.93,2.45
		l-29.69,12.3l-29.78-12.3l-3.58-1.48L66.67,96.74z M102.12,104.92c-9.6,0-17.39-7.79-17.39-17.39c0-9.6,7.79-17.39,17.39-17.39
		c9.6,0,17.39,7.78,17.39,17.39C119.51,97.14,111.73,104.92,102.12,104.92z"/>
</g>
</svg>
