<!-- Generator: Adobe Illustrator 18.1.1, SVG Export Plug-In  -->
<svg version="1.1"
	 xmlns="http://www.w3.org/2000/svg" xmlns:xlink="http://www.w3.org/1999/xlink" xmlns:a="http://ns.adobe.com/AdobeSVGViewerExtensions/3.0/"
	 x="0px" y="0px" width="28.6px" height="34.5px" viewBox="0 0 28.6 34.5" enable-background="new 0 0 28.6 34.5"
	 xml:space="preserve">
<defs>
</defs>
<g>
	<path fill="#A4BAF2" d="M22.1,5.8l1.8-2.5l2.7,1.9l-1.7,2.5C24,6.9,23.1,6.3,22.1,5.8z"/>
	<path fill="#A4BAF2" d="M11.8,0v4c0.8-0.1,1.7-0.2,2.5-0.2c0.8,0,1.7,0.1,2.5,0.2V0H11.8z"/>
	<path fill="#A4BAF2" d="M14.3,5.9C6.4,5.9,0,12.3,0,20.2c0,7.9,6.4,14.3,14.3,14.3s14.3-6.4,14.3-14.3C28.6,12.3,22.2,5.9,14.3,5.9
		z M14.3,30.8C8.5,30.8,3.8,26,3.8,20.2c0-5.8,4.7-10.6,10.6-10.6c5.8,0,10.6,4.7,10.6,10.6C24.9,26,20.2,30.8,14.3,30.8z"/>
	<path fill="#ED373E" d="M17.1,20.9c0,1.5-1.2,2.6-2.6,2.6c-1.5,0-2.6-1.2-2.6-2.6c0-0.9,0.5-1.8,1.2-2.2l1-7.2
		c0-0.2,0.2-0.3,0.3-0.3c0.2,0,0.3,0.1,0.3,0.3l1.1,7.2C16.6,19.1,17.1,20,17.1,20.9z"/>
</g>
</svg>
