<svg xmlns="http://www.w3.org/2000/svg" width="24" height="15" viewBox="0 0 24 15">
    <path fill="#111B40" fill-rule="evenodd" d="M12.746 1.486h4.497v1.5h1.503V.666c0-.34-.329-.666-.666-.666h-6.197c-.336 0-.666.327-.666.667v2.32h1.53v-1.5zM24 4.502v9c0 .727-.75.75-.75.75H6.744c-.335 0-.748-.411-.748-.75v-9c0-.34.413-.753.748-.753H23.25c.338 0 .751.413.751.753zM4.703 3.5H3.65V1.878c0-.237.23-.466.465-.466h4.333c.235 0 .465.229.465.466v.572h-1.05v.002H4.72l-.017-.002.001.017V3.5zM0 4.56v6.293c0 .236.289.524.523.524h4.18V4.034H.523C.29 4.034 0 4.322 0 4.56z"/>
</svg>
