<svg xmlns="http://www.w3.org/2000/svg" width="70" height="18" viewBox="0 0 70 18">
    <defs>
        <linearGradient id="prefix__a" x1="45.604%" x2="49.507%" y1="73.073%" y2="98.342%">
            <stop offset="0%"/>
            <stop offset="33.1%" stop-color="#46AC3A"/>
            <stop offset="100%" stop-color="#6AC757"/>
        </linearGradient>
        <linearGradient id="prefix__b" x1="47.635%" x2="47.635%" y1="74.156%" y2=".04%">
            <stop offset="0%" stop-color="#274621"/>
            <stop offset="50%" stop-color="#64A953"/>
            <stop offset="100%" stop-color="#2BA641"/>
        </linearGradient>
        <linearGradient id="prefix__c" x1="37.125%" x2="37.125%" y1=".685%" y2="100.434%">
            <stop offset="0%" stop-color="#3D913A"/>
            <stop offset="50%" stop-color="#6AC64E"/>
            <stop offset="100%" stop-color="#90D36A"/>
        </linearGradient>
        <linearGradient id="prefix__d" x1="49.547%" x2="49.547%" y1=".32%" y2="97.102%">
            <stop offset="0%" stop-color="#32582A"/>
            <stop offset="82.4%" stop-color="#295828"/>
            <stop offset="90%" stop-color="#5DC243"/>
            <stop offset="100%" stop-color="#8FDC5C"/>
        </linearGradient>
        <linearGradient id="prefix__e" x1="52.455%" x2="52.455%" y1="-.036%" y2="100.165%">
            <stop offset="0%" stop-color="#45A938"/>
            <stop offset="100%" stop-color="#50BD36"/>
        </linearGradient>
    </defs>
    <g fill="none">
        <path fill="#0D4D84" d="M2.958 14.167V5.44H0l.04-1.28h7.228l.027 1.28H4.337v8.726h-1.38zm7.256.186c-1.141 0-2.123-.293-2.919-.76l.213-1.241c.809.494 1.67.76 2.692.76 1.406 0 2.096-.64 2.096-1.707 0-2.268-4.92-1.281-4.92-4.603C7.375 5.228 8.382 4 10.65 4c.969 0 1.91.187 2.627.534l-.186 1.187c-.783-.307-1.539-.48-2.374-.48-1.5 0-2.03.694-2.03 1.48 0 2.175 4.921 1.162 4.921 4.59 0 1.882-1.207 3.042-3.395 3.042zm7.295-8.152l-1.472 4.39h3.595l-1.446-4.39-.305-1.04h-.04L17.51 6.2zm2.507 5.577h-4.377l-.796 2.389h-1.459L17.045 4.16h1.618l3.674 10.007h-1.525l-.796-2.389zm9.418-6.43h-1.95V9.27h1.95c1.406 0 2.082-.44 2.082-1.974 0-1.455-.636-1.948-2.082-1.948zm0 5.07h-1.95v3.749h-1.353V4.16h3.303c2.44 0 3.475.96 3.475 3.136 0 2.054-1.008 3.121-3.475 3.121zm4.298 3.749V6.268l1.008-.067.106 1.708h.027c.49-1.147 1.353-1.814 2.427-1.814.292 0 .57.04.783.106l-.08 1.281c-.239-.08-.504-.107-.782-.107-1.234 0-2.229 1.055-2.229 2.762v4.03h-1.26zm9.63-4.67c-.026-1.681-.809-2.322-1.95-2.322-1.34 0-1.936.747-2.016 2.322h3.966zm-5.226.48c0-2.495 1.088-3.896 3.263-3.896 1.883 0 3.117 1.121 3.117 3.67 0 .2-.013.44-.026.613h-5.067c.066 2.095.836 2.815 2.533 2.815.796 0 1.473-.173 2.15-.507l.145 1.068c-.663.36-1.486.587-2.441.587-2.6 0-3.674-1.375-3.674-4.35zM61.86 1.348c.31 0 .558.241.558.55 0 .31-.247.555-.56.555-.314 0-.564-.245-.564-.554 0-.31.25-.55.567-.55zm-.006.11c-.237 0-.42.2-.42.44 0 .246.183.44.427.44.236.004.417-.194.417-.436 0-.245-.18-.443-.424-.443zm0 .159c.103 0 .15.016.187.044.037.027.058.07.056.117 0 .067-.05.11-.113.131v.006c.053.017.08.06.097.135.016.084.03.114.04.134h-.134c-.016-.02-.026-.067-.043-.134-.01-.057-.044-.084-.113-.084h-.06v.218h-.127v-.55c.05-.007.12-.017.21-.017zm-.01.094c-.024 0-.047.001-.07.007v.157h.06c.07 0 .127-.023.127-.08 0-.05-.037-.084-.117-.084z" transform="translate(4)"/>
        <g>
            <path fill="url(#prefix__a)" d="M6.9 9.165c-.557-.04-1.117-.033-1.672.023-.409.04-.777.552-.829.76-.746 2.993-2.53 4.16-4.26 5.998-.152.161-.204.387-.03.522.55.425 1.128.78 1.785 1.009.301.105.818-.062 1.108-.325.994-.906 1.847-1.955 2.53-3.113" transform="translate(4) translate(45.302 .304) matrix(1 0 0 -1 0 26.648)"/>
            <path fill="url(#prefix__b)" d="M14.345.001c-.44-.018-.847.145-1.189.382-4.073 2.832-6.504 7.454-7.554 12.602v3.53l1.298.992c.646-.11.929-.408.976-.968.55-6.253 2.575-11.365 7.646-15.434.155-.123.199-.444.029-.597-.286-.256-.695-.436-1.015-.488-.063-.01-.127-.016-.19-.019z" transform="translate(4) translate(45.302 .304)"/>
            <path fill="url(#prefix__c)" d="M5.979.467l.148-.32 3.994 8.315 5.04 5.1s-.56.255-.745.233C13.12 13.641 7.475 9.055 5.98.467z" transform="translate(4) translate(45.302 .304) matrix(1 0 0 -1 0 13.944)"/>
            <path fill="url(#prefix__d)" d="M2.9 17.431c-.696.377-1.616-.331-2.203-.716-.417-.273-.333-.533.01-.859 2.553-2.423 3.659-4.21 4.12-6.102.123-.5 1.69-.42 2.073-.38l-4 8.057z" transform="translate(4) translate(45.302 .304) matrix(1 0 0 -1 0 26.882)"/>
            <path fill="url(#prefix__e)" d="M6.213 4.304c.93 5.012 3.384 10.103 7.549 12.866.395.263.49.412 1.004.33.321-.051.454-.077.74-.334.17-.153.094-.374-.061-.497-5.022-3.987-7.054-9.204-7.623-15.466-.038-.406-.31-.73-.636-.828C6.636.207 6.081.26 5.536.33c-.497.064-.518.508-.586.71C3.963 3.965 2.51 5.147.778 6.985c-.152.162-.105.332.07.467.55.425 1.015.653 1.674.877.147.05.36.055.535-.083 1.063-.84 2.498-2.9 3.004-4.058.088-.202.152.117.152.117" transform="translate(4) translate(45.302 .304) matrix(1 0 0 -1 0 17.786)"/>
        </g>
    </g>
</svg>
