<?xml version="1.0" encoding="utf-8"?>
<!-- Generator: Adobe Illustrator 18.1.1, SVG Export Plug-In . SVG Version: 6.00 Build 0)  -->
<svg version="1.1" id="Layer_1" xmlns="http://www.w3.org/2000/svg" xmlns:xlink="http://www.w3.org/1999/xlink" x="0px" y="0px"
	 width="600px" height="366px" viewBox="0 426 600 366" enable-background="new 0 426 600 366" xml:space="preserve">
<g>
	<defs>
		<rect id="SVGID_1_" y="427" width="600" height="365"/>
	</defs>
	<clipPath id="SVGID_2_">
		<use xlink:href="#SVGID_1_"  overflow="visible"/>
	</clipPath>
	<g clip-path="url(#SVGID_2_)">
		<g>
			<path fill="#D5152E" d="M110.9,813.7c13.1,4.2,39.2,8.9,64.7,13.1H302c-13.7-2.4-26.7-4.7-37.4-7.1
				c-100.9-23.2-189.4-70.1-304-160.9C-166.4,559-240,498.4-310.7,440.8h-127.6C-367.7,499-273.3,578-145.6,676.5
				C-45.3,754.3,19.4,785.8,110.9,813.7z"/>
			<path fill="#FFBF27" d="M264.6,819.6c10.7,2.4,23.2,4.7,37.4,7.1h89.1c-32.1-5.3-60.6-11.3-79.6-17.8
				c-80.2-26.7-143.7-52.2-292.1-174.5l-239.9-194.1h-90.8C-240,498.4-166.4,559-39.3,658.7C75.2,749.6,163.7,796.5,264.6,819.6z"/>
			<path fill="#E6E7E8" d="M-62.5,643.3c0,0,39.8,31.5,43.3,33.8c14.8,11.3,29.7,22,44.5,32.7c15.4,10.7,30.9,20.8,46.3,30.3
				c16,9.5,32.1,18.4,48.1,27.3c16.6,8.3,33.2,16,50.5,23.2c17.2,7.1,34.4,13.1,52.2,18.4c8.9,2.4,17.8,5.3,26.7,7.1
				c4.7,1.2,8.9,2.4,13.7,3c4.7,1.2,8.9,1.8,13.7,3c8.3,1.8,16.6,3,24.9,4.2h7.7c-10.7-1.8-21.4-3.6-32.1-5.9
				c-4.7-1.2-8.9-1.8-13.7-3c-4.7-1.2-8.9-1.8-13.7-3c-8.9-2.4-17.8-4.7-26.7-7.7c-17.8-5.3-35-11.9-51.7-19s-33.2-15.4-49.9-23.7
				c-16-8.3-32.1-17.8-47.5-27.3c-15.4-9.5-30.9-20.2-45.7-30.9c-14.8-10.7-29.7-21.4-43.9-33.2c-3.6-3-43.3-34.4-43.3-34.4
				l-86.1-68.9c0,0-133-108.6-156.7-128.2H-316c26.1,21.4,166.8,133.6,166.8,133.6L-62.5,643.3z"/>
			<path fill="#E6E7E8" d="M-191.3,643.3c0,0,39.8,31.5,43.3,33.8c14.8,11.3,29.7,22,44.5,32.7c15.4,10.7,30.9,20.8,46.3,30.3
				c16.6,9.5,32.7,19,48.7,27.3c16.6,8.3,33.2,16,50.5,23.2c17.2,7.1,34.4,13.1,52.2,18.4c8.9,2.4,17.8,5.3,26.7,7.1
				c4.7,1.2,8.9,2.4,13.7,3c4.7,1.2,8.9,1.8,13.7,3c8.3,1.8,16.6,3,24.9,4.2h7.7c-10.7-1.8-21.4-3.6-32.1-5.9
				c-4.7-1.2-8.9-1.8-13.7-3c-4.7-1.2-8.9-1.8-13.7-3c-8.9-2.4-17.8-4.7-26.7-7.7c-17.8-5.3-35-11.9-51.7-19
				c-16.6-7.1-33.2-15.4-49.9-23.7c-16-8.3-32.1-17.8-47.5-27.3c-15.4-9.5-30.9-20.2-45.7-30.9s-29.7-21.4-43.9-33.2
				c-3.6-3-43.3-34.4-43.3-34.4l-86.1-68.9c0,0-133-108.6-156.7-128.2h-14.2c26.1,21.4,166.8,133.6,166.8,133.6L-191.3,643.3z"/>
			<path fill="#E6E7E8" d="M25.4,643.3c0,0,39.8,31.5,43.3,33.8c14.8,11.3,29.7,22,44.5,32.7c15.4,10.7,30.9,20.8,46.3,30.3
				c16,9.5,32.1,18.4,48.1,27.3c16.6,8.3,33.2,16,50.5,23.2c17.2,7.1,34.4,13.1,52.2,18.4c8.9,2.4,17.8,5.3,26.7,7.1
				c4.7,1.2,8.9,2.4,13.7,3c4.7,1.2,8.9,1.8,13.7,3c8.3,1.8,16.6,3,24.9,4.2h7.7c-10.7-1.8-21.4-3.6-32.1-5.9
				c-4.7-1.2-8.9-1.8-13.7-3c-4.7-1.2-8.9-1.8-13.7-3c-8.9-2.4-17.8-4.7-26.7-7.7c-17.8-5.3-35-11.9-51.7-19
				c-17.2-7.1-33.2-15.4-49.9-23.7c-16-8.3-32.1-17.8-47.5-27.3c-15.4-9.5-30.9-20.2-45.7-30.9c-14.8-10.7-29.7-21.4-43.9-33.2
				c-3.6-3-43.3-34.4-43.3-34.4l-86.1-68.9c0,0-133-108.6-156.7-128.2h-14.2c26.7,21.4,166.8,133.6,166.8,133.6L25.4,643.3z"/>
		</g>
	</g>
</g>
</svg>
