<svg xmlns="http://www.w3.org/2000/svg" width="50" height="50" viewBox="0 0 50 50">
    <g fill="none" fill-rule="evenodd">
        <circle cx="25" cy="25" r="25" fill="#111B40"/>
        <g fill-rule="nonzero">
            <path fill="#304CB2" d="M25 0C11.25 0 0 11.25 0 25s11.25 25 25 25 25-11.25 25-25S38.75 0 25 0z"/>
            <path fill="#FFF" d="M40 33.75H10V29c2.125 0 4-1.875 4-4s-1.75-4-4-4v-4.75h30v17.5zM20.875 20c-.625 0-1.125.5-1.125 1.125s.5 1.125 1.125 1.125S22 21.75 22 21.125 21.5 20 20.875 20zm0 4c-.625 0-1.125.5-1.125 1.125s.5 1.125 1.125 1.125S22 25.75 22 25.125 21.5 24 20.875 24zm0 3.875c-.625 0-1.125.5-1.125 1.125s.5 1.125 1.125 1.125S22 29.625 22 29s-.5-1.125-1.125-1.125z"/>
        </g>
    </g>
</svg>
