<?xml version="1.0" encoding="utf-8"?>
<!-- Generator: Adobe Illustrator 25.2.1, SVG Export Plug-In . SVG Version: 6.00 Build 0)  -->
<svg version="1.1" id="Layer_1" xmlns="http://www.w3.org/2000/svg" xmlns:xlink="http://www.w3.org/1999/xlink" x="0px" y="0px"
	 viewBox="0 0 45.2 44.7" style="enable-background:new 0 0 45.2 44.7;" xml:space="preserve">
<style type="text/css">
	.st0{fill:#A4BAF2;}
	.st1{fill-rule:evenodd;clip-rule:evenodd;fill:#A4BAF2;}
</style>
<g>
	<path class="st0" d="M22.6,44.1c-12,0-21.8-9.7-21.8-21.8S10.6,0.6,22.6,0.6s21.8,9.8,21.8,21.8S34.7,44.1,22.6,44.1z M22.6,3.3
		c-10.5,0-19.1,8.6-19.1,19.1s8.6,19.2,19.1,19.2s19.2-8.6,19.2-19.2S33.2,3.3,22.6,3.3z"/>
	<path class="st1" d="M7.8,29.6v-7.9h4c0,0.8,0.1,1.4,0.3,2H9.9v3.8h25.9v-3.8h-2.4c0.2-0.6,0.3-1.4,0.3-2h4v7.9H7.8z M22.2,25.4v-1
		c-0.3,0-0.6-0.1-1-0.2c-0.3-0.1-0.5-0.2-0.8-0.3v-0.1l0.3-1.1c0.2,0.1,0.4,0.2,0.8,0.3c0.3,0.1,0.6,0.1,1,0.1s0.5-0.1,0.8-0.2
		c0.2-0.1,0.3-0.3,0.3-0.5c0-0.2-0.1-0.4-0.3-0.5c-0.1-0.1-0.2-0.1-0.3-0.2c-0.1-0.1-0.3-0.1-0.5-0.2c-0.5-0.2-1-0.4-1.3-0.8
		c-0.3-0.3-0.5-0.8-0.5-1.3c0-0.5,0.1-1,0.4-1.3c0.3-0.3,0.8-0.5,1.3-0.6v-1.1h1.1v1c0.3,0,0.6,0,0.9,0.1c0.2,0.1,0.4,0.1,0.6,0.2
		l-0.3,1.2c-0.1-0.1-0.3-0.1-0.5-0.2c-0.2-0.1-0.5-0.1-1-0.1c-0.3,0-0.5,0.1-0.8,0.2c-0.1,0.1-0.2,0.2-0.2,0.4
		c0,0.2,0.1,0.3,0.3,0.4c0.2,0.1,0.5,0.3,1,0.4c0.6,0.2,1.1,0.5,1.4,0.9c0.1,0.2,0.2,0.4,0.3,0.6c0,0.2,0.1,0.3,0.1,0.5
		c0,0.5-0.1,1-0.4,1.3c-0.1,0.1-0.1,0.1-0.2,0.2c-0.3,0.2-0.6,0.4-1.2,0.5v1.1h-1.2C22.2,25.2,22.2,25.4,22.2,25.4z M31.3,23.8
		c-0.2,0.5-0.4,1.2-0.8,1.6h-2.4c0.4-0.5,0.8-1.1,1-1.6c0.2-0.6,0.4-1.3,0.5-2c0-0.2,0.1-0.5,0.1-0.8c0-4-3.1-7.2-7-7.2
		c-1.8,0-3.5,0.6-4.6,1.8c-1.4,1.3-2.3,3.2-2.3,5.4c0,0.2,0,0.5,0.1,0.8c0.1,0.8,0.2,1.4,0.4,2c0.2,0.6,0.6,1.2,1,1.6h-2.4
		c-0.3-0.5-0.5-1.1-0.8-1.6c-0.2-0.6-0.3-1.3-0.4-2c0-0.2,0-0.5,0-0.8c0-2.7,1.1-5.1,2.9-6.8c1.6-1.5,3.7-2.5,6-2.5c5,0,9,4.1,9,9.3
		c0,0.2,0,0.5,0,0.8C31.7,22.5,31.6,23.1,31.3,23.8z"/>
</g>
</svg>
