<svg xmlns="http://www.w3.org/2000/svg" width="50" height="50" viewBox="0 0 50 50">
    <g fill="none" fill-rule="evenodd">
        <circle cx="25" cy="25" r="25" fill="#111B40"/>
        <g fill-rule="nonzero">
            <circle cx="25" cy="25" r="25" fill="#304CB2"/>
            <path fill="#FFF" d="M7.875 33.375V24.25H12.5c0 .875.125 1.625.375 2.375H10.25V31h30v-4.375H37.5c.25-.75.375-1.625.375-2.375H42.5v9.125H7.875zM24.5 28.5v-1.125c-.375 0-.75-.125-1.125-.25s-.625-.25-.875-.375v-.125l.375-1.25c.25.125.5.25.875.375s.75.125 1.125.125.625-.125.875-.25a.687.687 0 0 0 .375-.625c0-.25-.125-.5-.375-.625-.125-.125-.25-.125-.375-.25S25 24 24.75 23.875c-.625-.25-1.125-.5-1.5-.875a2.07 2.07 0 0 1-.625-1.5c0-.625.125-1.125.5-1.5s.875-.625 1.5-.75V18h1.25v1.125c.375 0 .75 0 1 .125s.5.125.75.25l-.375 1.375c-.125-.125-.375-.125-.625-.25S26 20.5 25.5 20.5c-.375 0-.625.125-.875.25-.125.125-.25.25-.25.5s.125.375.375.5.625.375 1.125.5c.75.25 1.25.625 1.625 1l.375.75c0 .25.125.375.125.625 0 .625-.125 1.125-.5 1.5l-.25.25c-.375.25-.75.5-1.375.625v1.25H24.5v.25zm10.625-1.875c-.25.625-.5 1.375-.875 1.875H31.5c.5-.625.875-1.25 1.125-1.875.25-.75.5-1.5.625-2.375 0-.25.125-.625.125-.875C33.375 18.75 29.75 15 25.25 15c-2.125 0-4 .75-5.375 2.125-1.625 1.5-2.625 3.75-2.625 6.25 0 .25 0 .625.125.875.125.875.25 1.625.5 2.375S18.625 28 19 28.5h-2.75c-.375-.625-.625-1.25-.875-1.875-.25-.75-.375-1.5-.5-2.375v-.875c0-3.125 1.25-5.875 3.375-7.875 1.875-1.75 4.25-2.875 7-2.875 5.75 0 10.375 4.75 10.375 10.75v.875c-.125.875-.25 1.625-.5 2.375z"/>
        </g>
    </g>
</svg>
