<?xml version="1.0" encoding="utf-8"?>
<!-- Generator: Adobe Illustrator 25.2.1, SVG Export Plug-In . SVG Version: 6.00 Build 0)  -->
<svg version="1.1" id="Layer_1" xmlns="http://www.w3.org/2000/svg" xmlns:xlink="http://www.w3.org/1999/xlink" x="0px" y="0px"
	 viewBox="0 0 40 40" style="enable-background:new 0 0 40 40;" xml:space="preserve">
<style type="text/css">
	.st0{fill:#A4BAF2;}
	.st1{fill:#FFFFFF;}
</style>
<g>
	<circle class="st0" cx="20" cy="20" r="20"/>
	<path class="st1" d="M6.3,26.7v-7.3H10c0,0.7,0.1,1.3,0.3,1.9H8.2v3.5h24v-3.5H30c0.2-0.6,0.3-1.3,0.3-1.9H34v7.3H6.3z M19.6,22.8
		v-0.9c-0.3,0-0.6-0.1-0.9-0.2s-0.5-0.2-0.7-0.3v-0.1l0.3-1c0.2,0.1,0.4,0.2,0.7,0.3c0.3,0.1,0.6,0.1,0.9,0.1s0.5-0.1,0.7-0.2
		s0.3-0.3,0.3-0.5s-0.1-0.4-0.3-0.5c-0.1-0.1-0.2-0.1-0.3-0.2c-0.1-0.1-0.3-0.1-0.5-0.2c-0.5-0.2-0.9-0.4-1.2-0.7
		c-0.3-0.3-0.5-0.7-0.5-1.2s0.1-0.9,0.4-1.2s0.7-0.5,1.2-0.6v-1h1v0.9c0.3,0,0.6,0,0.8,0.1c0.2,0.1,0.4,0.1,0.6,0.2l-0.3,1.1
		c-0.1-0.1-0.3-0.1-0.5-0.2s-0.5-0.1-0.9-0.1c-0.3,0-0.5,0.1-0.7,0.2c-0.1,0.1-0.2,0.2-0.2,0.4c0,0.2,0.1,0.3,0.3,0.4
		c0.2,0.1,0.5,0.3,0.9,0.4c0.6,0.2,1,0.5,1.3,0.8c0.1,0.2,0.2,0.4,0.3,0.6c0,0.2,0.1,0.3,0.1,0.5c0,0.5-0.1,0.9-0.4,1.2
		c-0.1,0.1-0.1,0.1-0.2,0.2c-0.3,0.2-0.6,0.4-1.1,0.5v1h-1.1V22.8z M28.1,21.3c-0.2,0.5-0.4,1.1-0.7,1.5h-2.2c0.4-0.5,0.7-1,0.9-1.5
		c0.2-0.6,0.4-1.2,0.5-1.9c0-0.2,0.1-0.5,0.1-0.7c0-3.7-2.9-6.7-6.5-6.7c-1.7,0-3.2,0.6-4.3,1.7c-1.3,1.2-2.1,3-2.1,5
		c0,0.2,0,0.5,0.1,0.7c0.1,0.7,0.2,1.3,0.4,1.9s0.6,1.1,0.9,1.5H13c-0.3-0.5-0.5-1-0.7-1.5c-0.2-0.6-0.3-1.2-0.4-1.9
		c0-0.2,0-0.5,0-0.7c0-2.5,1-4.7,2.7-6.3c1.5-1.4,3.4-2.3,5.6-2.3c4.6,0,8.3,3.8,8.3,8.6c0,0.2,0,0.5,0,0.7
		C28.4,20.1,28.3,20.7,28.1,21.3z"/>
</g>
</svg>
