<?xml version="1.0" encoding="utf-8"?>
<!-- Generator: Adobe Illustrator 25.2.1, SVG Export Plug-In . SVG Version: 6.00 Build 0)  -->
<svg version="1.1" id="Layer_1" xmlns="http://www.w3.org/2000/svg" xmlns:xlink="http://www.w3.org/1999/xlink" x="0px" y="0px"
	 viewBox="0 0 41.5 41.5" style="enable-background:new 0 0 41.5 41.5;" xml:space="preserve">
<style type="text/css">
	.st0{fill:#008020;}
	.st1{fill:#FFFFFF;}
</style>
<g>
	<circle class="st0" cx="20.8" cy="20.8" r="20"/>
	<path class="st1" d="M7.1,27.5v-7.3h3.7c0,0.7,0.1,1.3,0.3,1.9H9v3.5h24v-3.5h-2.2c0.2-0.6,0.3-1.3,0.3-1.9h3.7v7.3H7.1z
		 M20.4,23.6v-0.9c-0.3,0-0.6-0.1-0.9-0.2s-0.5-0.2-0.7-0.3v-0.1l0.3-1c0.2,0.1,0.4,0.2,0.7,0.3c0.3,0.1,0.6,0.1,0.9,0.1
		s0.5-0.1,0.7-0.2s0.3-0.3,0.3-0.5s-0.1-0.4-0.3-0.5c-0.1-0.1-0.2-0.1-0.3-0.2C21,20,20.8,20,20.6,19.9c-0.5-0.2-0.9-0.4-1.2-0.7
		c-0.3-0.3-0.5-0.7-0.5-1.2s0.1-0.9,0.4-1.2c0.3-0.3,0.7-0.5,1.2-0.6v-1h1v0.9c0.3,0,0.6,0,0.8,0.1c0.2,0.1,0.4,0.1,0.6,0.2
		l-0.3,1.1c-0.1-0.1-0.3-0.1-0.5-0.2s-0.5-0.1-0.9-0.1c-0.3,0-0.5,0.1-0.7,0.2c-0.1,0.1-0.2,0.2-0.2,0.4c0,0.2,0.1,0.3,0.3,0.4
		c0.2,0.1,0.5,0.3,0.9,0.4c0.6,0.2,1,0.5,1.3,0.8c0.1,0.2,0.2,0.4,0.3,0.6c0,0.2,0.1,0.3,0.1,0.5c0,0.5-0.1,0.9-0.4,1.2
		c-0.1,0.1-0.1,0.1-0.2,0.2c-0.3,0.2-0.6,0.4-1.1,0.5v1h-1.1C20.4,23.4,20.4,23.6,20.4,23.6z M28.9,22.1c-0.2,0.5-0.4,1.1-0.7,1.5
		H26c0.4-0.5,0.7-1,0.9-1.5c0.2-0.6,0.4-1.2,0.5-1.9c0-0.2,0.1-0.5,0.1-0.7c0-3.7-2.9-6.7-6.5-6.7c-1.7,0-3.2,0.6-4.3,1.7
		c-1.3,1.2-2.1,3-2.1,5c0,0.2,0,0.5,0.1,0.7c0.1,0.7,0.2,1.3,0.4,1.9s0.6,1.1,0.9,1.5h-2.2c-0.3-0.5-0.5-1-0.7-1.5
		c-0.2-0.6-0.3-1.2-0.4-1.9c0-0.2,0-0.5,0-0.7c0-2.5,1-4.7,2.7-6.3c1.5-1.4,3.4-2.3,5.6-2.3c4.6,0,8.3,3.8,8.3,8.6
		c0,0.2,0,0.5,0,0.7C29.2,20.9,29.1,21.5,28.9,22.1z"/>
</g>
</svg>
