<svg xmlns="http://www.w3.org/2000/svg" width="50" height="32" viewBox="0 0 50 32">
    <g fill="none">
        <path fill="#304CB2" d="M0 6.918L23.964 22.24l12.89-8.194c1.607 1.334 3.672 2.135 5.924 2.135 1.84 0 3.556-.535 5-1.46v11.774c0 2.985-2.384 5.403-5.309 5.403H5.324C2.383 31.897 0 29.48 0 26.494V6.918zM1.911 3l32.426.007c-.544 1.181-.848 2.497-.848 3.883 0 1.292.264 2.523.741 3.641l-.004-.009-10.313 6.682L1.91 3z"/>
        <ellipse cx="42.759" cy="7.224" fill="#D5152E" rx="7.222" ry="7.224"/>
        <path fill="#FFF" d="M43.75 10.744V3.58h-.948c-.133.435-.379.815-.737 1.141-.357.326-.689.548-.994.664v1.241c.58-.224 1.083-.569 1.51-1.036v5.153h1.169z"/>
    </g>
</svg>
